<?xml version="1.0" encoding="utf-8"?>
<!-- Generator: Adobe Illustrator 25.4.1, SVG Export Plug-In . SVG Version: 6.00 Build 0)  -->
<svg version="1.1" id="Слой_1" xmlns="http://www.w3.org/2000/svg" xmlns:xlink="http://www.w3.org/1999/xlink" x="0px" y="0px"
	 viewBox="0 0 400 400" style="enable-background:new 0 0 400 400;" xml:space="preserve">
<style type="text/css">
	.st0{fill:#272F64;}
	.st1{fill:#D8DFEF;}
</style>
<g>
	<circle class="st0" cx="200" cy="200" r="197"/>
	<g>
		<path class="st1" d="M216.7,242.4L216.7,242.4c2.9-6.9,10.9-10.1,17.8-7.2l31.4,13.4c0-0.2-0.1-0.3-0.1-0.5L254.1,231
			c-0.3-0.4-0.6-0.7-0.9-1.1l-47.6-68.9c-3.2-4.7-2-11.1,2.6-14.3c4.7-3.2,11.1-2,14.3,2.6l39.3,57c0.1,0,0.2,0,0.3,0.1
			c0.7,0.2,3.1,0.8,4.9-0.4c1.6-1.1,1.7-2.8,2.3-4.6l-47.6-68.9c-3.2-4.7-2-11.1,2.6-14.3l0,0c4.7-3.2,11.1-2,14.3,2.6l47.6,68.9
			c0.1,0.2,0.2,0.4,0.4,0.6c1.1,0.1,2.6,0.3,3.9-0.6c1.2-0.8,1.7-2.3,2-3.5l-42.1-61c-3.2-4.7-2-11.1,2.6-14.3l0,0
			c4.7-3.2,11.1-2,14.3,2.6l45.9,66.6c1.5,0.5,3.8,1.5,5.4,0.4c1.4-1,1.7-3.1,1.7-4.8l-31.9-46.3c-3.2-4.7-2-11.1,2.6-14.3
			c4.7-3.2,11.1-2,14.3,2.6l47,68.2l0.2,0l8.8,13l-0.1,0c0.5,0.6,1,1.3,1.5,2l7.1,10.3c12.7,18.4,8,43.7-10.3,56.4l-24,16.5
			c-8.9,6.2-19.5,8.2-29.5,6.6c-5.9-1.4-11.7-2.9-17.6-4.3c-2.5-0.7-5-1.4-7.4-2.1c-19.1-8-38.1-15.9-57.2-23.9
			C217,257.3,213.8,249.3,216.7,242.4z"/>
		<path class="st1" d="M183.3,242.4L183.3,242.4c-2.9-6.9-10.9-10.1-17.8-7.2l-31.4,13.4c0-0.2,0.1-0.3,0.1-0.5l11.7-17.1
			c0.3-0.4,0.6-0.7,0.9-1.1l47.6-68.9c3.2-4.7,2-11.1-2.6-14.3c-4.7-3.2-11.1-2-14.3,2.6l-39.3,57c-0.1,0-0.2,0-0.3,0.1
			c-0.7,0.2-3.1,0.8-4.9-0.4c-1.6-1.1-1.7-2.8-2.3-4.6l47.6-68.9c3.2-4.7,2-11.1-2.6-14.3l0,0c-4.7-3.2-11.1-2-14.3,2.6l-47.6,68.9
			c-0.1,0.2-0.2,0.4-0.4,0.6c-1.1,0.1-2.6,0.3-3.9-0.6c-1.2-0.8-1.7-2.3-2-3.5l42.1-61c3.2-4.7,2-11.1-2.6-14.3l0,0
			c-4.7-3.2-11.1-2-14.3,2.6l-45.9,66.6c-1.5,0.5-3.8,1.5-5.4,0.4c-1.4-1-1.7-3.1-1.7-4.8l31.9-46.3c3.2-4.7,2-11.1-2.6-14.3
			s-11.1-2-14.3,2.6l-47,68.2l-0.2,0l-8.8,13l0.1,0c-0.5,0.6-1,1.3-1.5,2L30,211.1c-12.7,18.4-8,43.7,10.3,56.4l24,16.5
			c8.9,6.2,19.5,8.2,29.5,6.6c5.9-1.4,11.7-2.9,17.6-4.3c2.5-0.7,5-1.4,7.4-2.1c19.1-8,38.1-15.9,57.2-23.9
			C183,257.3,186.2,249.3,183.3,242.4z"/>
	</g>
</g>
<g>
</g>
<g>
</g>
<g>
</g>
<g>
</g>
<g>
</g>
<g>
</g>
</svg>
