<?xml version="1.0" encoding="utf-8"?>
<!-- Generator: Adobe Illustrator 25.4.1, SVG Export Plug-In . SVG Version: 6.00 Build 0)  -->
<svg version="1.1" id="Слой_1" xmlns="http://www.w3.org/2000/svg" xmlns:xlink="http://www.w3.org/1999/xlink" x="0px" y="0px"
	 viewBox="0 0 400 400" style="enable-background:new 0 0 400 400;" xml:space="preserve">
<style type="text/css">
	.st0{fill:#272F64;}
	.st1{fill:#D8DFEF;}
	.st2{fill:#C2CBE9;}
</style>
<circle class="st0" cx="200" cy="200" r="197"/>
<circle class="st1" cx="133.4" cy="189.3" r="31.7"/>
<path class="st1" d="M241.5,188.7l-1.2-1.4c-5.8-6.9-16.2-7.9-23.2-2.1l-57.7,48.2c-5.9-3.5-12.7-5.6-20-5.6H131
	c-21.5,0-39,17.6-39,39v48c0,21.5,17.6,39,39,39h8.5c21.5,0,39-17.6,39-39v-48c0-1.3-0.1-2.6-0.2-3.9l61.2-51.2
	C246.4,206,247.3,195.6,241.5,188.7z"/>
<path class="st2" d="M310.4,51.4H194.1c-7.2,0-13,5.9-13,13v71.8c0,0.5,0,1.1,0.1,1.6l-0.2,30.1l13.4-18.7h116.2c7.2,0,13-5.9,13-13
	V64.4C323.5,57.3,317.6,51.4,310.4,51.4z"/>
<path class="st0" d="M272.9,70.6h-80.6c-2.1,0-3.8-1.7-3.8-3.8v0c0-2.1,1.7-3.8,3.8-3.8h80.6c2.1,0,3.8,1.7,3.8,3.8v0
	C276.8,68.9,275,70.6,272.9,70.6z"/>
<path class="st0" d="M313.6,68.9h-23.3c-1.5,0-2.8-1.2-2.8-2.8v0c0-1.5,1.2-2.8,2.8-2.8h23.3c1.5,0,2.8,1.2,2.8,2.8v0
	C316.4,67.7,315.1,68.9,313.6,68.9z"/>
<path class="st0" d="M248.1,84h-56.6c-1.7,0-3-1.3-3-3v0c0-1.6,1.3-3,3-3h56.6c1.6,0,3,1.3,3,3v0C251.1,82.7,249.7,84,248.1,84z"/>
<path class="st0" d="M291.7,83.8h-27.3c-1.6,0-2.9-1.3-2.9-2.9v0c0-1.6,1.3-2.9,2.9-2.9h27.3c1.6,0,2.9,1.3,2.9,2.9v0
	C294.6,82.5,293.3,83.8,291.7,83.8z"/>
<path class="st0" d="M224.7,97H192c-2,0-3.6-1.6-3.6-3.6v0c0-2,1.6-3.6,3.6-3.6h32.6c2,0,3.6,1.6,3.6,3.6v0
	C228.3,95.4,226.7,97,224.7,97z"/>
<path class="st0" d="M285.8,97h-34.1c-1.8,0-3.2-1.5-3.2-3.2v0c0-1.8,1.5-3.2,3.2-3.2h34.1c1.8,0,3.2,1.5,3.2,3.2v0
	C289,95.5,287.5,97,285.8,97z"/>
<path class="st0" d="M317,97h-14.9c-1.8,0-3.2-1.5-3.2-3.2v0c0-1.8,1.5-3.2,3.2-3.2H317c1.8,0,3.2,1.5,3.2,3.2v0
	C320.2,95.5,318.7,97,317,97z"/>
<path class="st0" d="M229.6,111.9h-37.4c-2,0-3.7-1.7-3.7-3.7v0c0-2,1.7-3.7,3.7-3.7h37.4c2,0,3.7,1.7,3.7,3.7v0
	C233.3,110.2,231.6,111.9,229.6,111.9z"/>
<path class="st0" d="M308.7,111.9h-51.1c-2.1,0-3.8-1.7-3.8-3.8v0c0-2.1,1.7-3.8,3.8-3.8h51.1c2.1,0,3.8,1.7,3.8,3.8v0
	C312.5,110.2,310.8,111.9,308.7,111.9z"/>
<path class="st0" d="M248.1,125.4h-56.6c-1.7,0-3-1.3-3-3v0c0-1.6,1.3-3,3-3h56.6c1.6,0,3,1.3,3,3v0
	C251.1,124.1,249.7,125.4,248.1,125.4z"/>
<path class="st0" d="M301.3,124.7H274c-1.6,0-2.9-1.3-2.9-2.9v0c0-1.6,1.3-2.9,2.9-2.9h27.3c1.6,0,2.9,1.3,2.9,2.9v0
	C304.2,123.4,302.9,124.7,301.3,124.7z"/>
<path class="st0" d="M224.7,138.4H192c-2,0-3.6-1.6-3.6-3.6l0,0c0-2,1.6-3.6,3.6-3.6h32.6c2,0,3.6,1.6,3.6,3.6l0,0
	C228.3,136.8,226.7,138.4,224.7,138.4z"/>
<path class="st0" d="M284.6,138.4h-34.1c-1.8,0-3.2-1.5-3.2-3.2l0,0c0-1.8,1.5-3.2,3.2-3.2h34.1c1.8,0,3.2,1.5,3.2,3.2l0,0
	C287.8,136.9,286.3,138.4,284.6,138.4z"/>
<g>
</g>
<g>
</g>
<g>
</g>
<g>
</g>
<g>
</g>
<g>
</g>
</svg>
