<?xml version="1.0" encoding="utf-8"?>
<!-- Generator: Adobe Illustrator 25.4.1, SVG Export Plug-In . SVG Version: 6.00 Build 0)  -->
<svg version="1.1" id="Слой_1" xmlns="http://www.w3.org/2000/svg" xmlns:xlink="http://www.w3.org/1999/xlink" x="0px" y="0px"
	 viewBox="0 0 400 400" style="enable-background:new 0 0 400 400;" xml:space="preserve">
<style type="text/css">
	.st0{fill:#272F64;}
	.st1{fill:#D8DFEF;}
</style>
<g>
	<circle class="st0" cx="200" cy="200" r="197"/>
	<path class="st1" d="M336.3,120.7c-6.2-20.4-20.4-34.1-30.9-42.1c-4.5-3-25.8-16.2-52.5-10.5c-25.2,5.4-45.5,25.6-52.9,52.1
		c-7.3-26.5-27.6-46.8-52.9-52.2c-26.7-5.7-48,7.5-52.5,10.5c-10.4,8-24.7,21.7-30.9,42.1C53,156,73.5,189.2,94.9,223.7
		c17.3,27.8,48.6,69.9,102.9,109c0.8,0.2,1.7,0.5,2.5,0.7c0.6-0.2,1.3-0.4,1.9-0.6c54.2-39.1,85.6-81.3,102.9-109
		C326.5,189.3,347,156.2,336.3,120.7z"/>
</g>
<g>
</g>
<g>
</g>
<g>
</g>
<g>
</g>
<g>
</g>
<g>
</g>
</svg>
