<?xml version="1.0" encoding="utf-8"?>
<!-- Generator: Adobe Illustrator 25.4.1, SVG Export Plug-In . SVG Version: 6.00 Build 0)  -->
<svg version="1.1" id="Слой_1" xmlns="http://www.w3.org/2000/svg" xmlns:xlink="http://www.w3.org/1999/xlink" x="0px" y="0px"
	 viewBox="0 0 1431.52 792.16" style="enable-background:new 0 0 1431.52 792.16;" xml:space="preserve">
<style type="text/css">
	.st0{fill:#343F70;}
	.st1{fill:#ACB9DD;}
	.st2{fill:#C2CBE9;}
	.st3{fill:#DAE1F2;}
	.st4{fill:none;stroke:#343F70;stroke-width:5;stroke-miterlimit:10;}
</style>
<g>
	<g>
		<g>
			<polygon class="st0" points="192.5,511.72 90.27,556.81 277.11,724.98 322.47,611.09 			"/>
			<path d="M342.25-324.82"/>
			<path class="st0" d="M331.53,257.57c0,0-167.74-25.33-313.5,161.9L218.3,450.7L331.53,257.57z"/>
			<path class="st0" d="M562.98,458.52c0,0,39.13,165.07-135.4,325.82l-47.7-197L562.98,458.52z"/>
			<path class="st1" d="M756.69,23.83c0,0,73.94,257.85-403.6,658.47L131.15,478.03C131.15,478.03,405.3,34.45,756.69,23.83z"/>
			<circle class="st2" cx="529.28" cy="275.72" r="86.12"/>
			<path class="st0" d="M732.37,207.21c43.27-117.27,24.32-183.38,24.32-183.38c-62.57,1.89-122.68,17.52-179.24,41.91
				L732.37,207.21z"/>
			<path class="st3" d="M611.25,249.33l-166.27,8.81c-3.63,17.5-1.75,35.86,5.52,52.36l161.59-11.15
				C616.75,282.96,616.44,265.51,611.25,249.33z"/>
		</g>
		<g>
			<g>
				<path class="st0" d="M408.38,391.31l-60.26,65.47l-14.53-13.38l10.8-66.61l-38.14,41.44l-6.38-5.87l60.26-65.47l12.04,11.08
					l-11.35,72.21L402,385.44L408.38,391.31z"/>
				<path class="st0" d="M437.71,469.37l-60.26,65.47l-18.32-16.86l41.94-45.57l-54.7,33.82l-10.6-9.76l28.14-56.85l-41.23,44.8
					l-6.38-5.87l60.26-65.47l19.28,17.75l-25.15,49.85l47.55-29.24L437.71,469.37z"/>
			</g>
			<circle class="st4" cx="367.78" cy="439.94" r="92.34"/>
		</g>
	</g>
	<g>
		<path class="st0" d="M724.47,356.58l44.34,67.09v-67.71c0-4.4,0.94-7.7,2.83-9.9c1.89-2.2,4.44-3.3,7.65-3.3
			c3.31,0,5.93,1.1,7.84,3.3c1.92,2.2,2.87,5.5,2.87,9.9v89.53c0,9.99-4.14,14.99-12.42,14.99c-2.07,0-3.93-0.3-5.59-0.89
			c-1.66-0.6-3.21-1.54-4.66-2.83c-1.45-1.29-2.8-2.81-4.04-4.54c-1.24-1.73-2.48-3.51-3.73-5.32l-43.25-66.31v66.7
			c0,4.35-1.01,7.64-3.03,9.86s-4.61,3.34-7.76,3.34c-3.26,0-5.88-1.13-7.84-3.38c-1.97-2.25-2.95-5.52-2.95-9.82v-87.82
			c0-3.73,0.41-6.65,1.24-8.77c0.98-2.33,2.61-4.23,4.89-5.71s4.74-2.21,7.38-2.21c2.07,0,3.84,0.34,5.32,1.01
			c1.48,0.67,2.77,1.58,3.88,2.72c1.11,1.14,2.25,2.61,3.42,4.43C722.03,352.73,723.23,354.62,724.47,356.58z"/>
		<path class="st0" d="M893.12,417.38c0,6.32-0.98,12.14-2.95,17.47c-1.97,5.33-4.81,9.91-8.54,13.74
			c-3.73,3.83-8.18,6.77-13.36,8.81c-5.18,2.04-11,3.07-17.47,3.07c-6.42,0-12.19-1.04-17.32-3.11c-5.12-2.07-9.56-5.03-13.32-8.89
			c-3.75-3.86-6.6-8.41-8.54-13.67c-1.94-5.25-2.91-11.06-2.91-17.43c0-6.42,0.98-12.29,2.95-17.63c1.97-5.33,4.79-9.89,8.46-13.67
			c3.68-3.78,8.13-6.69,13.36-8.74c5.23-2.04,11-3.07,17.32-3.07c6.42,0,12.24,1.04,17.47,3.11c5.23,2.07,9.71,5.02,13.43,8.85
			c3.73,3.83,6.56,8.39,8.5,13.67C892.15,405.19,893.12,411.01,893.12,417.38z M871.85,417.38c0-8.64-1.9-15.37-5.71-20.19
			s-8.92-7.22-15.34-7.22c-4.14,0-7.79,1.08-10.95,3.22c-3.16,2.15-5.59,5.32-7.3,9.51c-1.71,4.19-2.56,9.08-2.56,14.68
			c0,5.54,0.84,10.38,2.52,14.52c1.68,4.14,4.09,7.31,7.22,9.51c3.13,2.2,6.82,3.3,11.06,3.3c6.42,0,11.53-2.42,15.34-7.26
			C869.94,432.61,871.85,425.92,871.85,417.38z"/>
		<path class="st0" d="M978.07,432.76c0,5.85-1.42,10.86-4.27,15.02c-2.85,4.17-7.05,7.33-12.62,9.47
			c-5.56,2.15-12.33,3.22-20.3,3.22c-7.61,0-14.13-1.16-19.57-3.49c-5.44-2.33-9.45-5.24-12.04-8.74c-2.59-3.49-3.88-7-3.88-10.52
			c0-2.33,0.83-4.32,2.48-5.98c1.66-1.66,3.75-2.48,6.29-2.48c2.23,0,3.93,0.54,5.12,1.63s2.33,2.61,3.42,4.58
			c2.17,3.78,4.78,6.6,7.8,8.46c3.03,1.86,7.16,2.8,12.38,2.8c4.24,0,7.73-0.94,10.44-2.83c2.72-1.89,4.08-4.05,4.08-6.48
			c0-3.73-1.41-6.44-4.23-8.15c-2.82-1.71-7.47-3.34-13.94-4.89c-7.3-1.81-13.24-3.71-17.82-5.71c-4.58-1.99-8.24-4.62-10.99-7.88
			c-2.74-3.26-4.12-7.27-4.12-12.04c0-4.24,1.27-8.26,3.8-12.04c2.54-3.78,6.28-6.79,11.22-9.05c4.94-2.25,10.91-3.38,17.9-3.38
			c5.49,0,10.42,0.57,14.79,1.71c4.37,1.14,8.02,2.67,10.95,4.58c2.92,1.92,5.15,4.04,6.68,6.37c1.53,2.33,2.29,4.61,2.29,6.83
			c0,2.43-0.82,4.43-2.45,5.98s-3.95,2.33-6.95,2.33c-2.17,0-4.02-0.62-5.55-1.86c-1.53-1.24-3.27-3.11-5.24-5.59
			c-1.6-2.07-3.49-3.73-5.67-4.97s-5.12-1.86-8.85-1.86c-3.83,0-7.01,0.82-9.55,2.45c-2.54,1.63-3.8,3.66-3.8,6.1
			c0,2.23,0.93,4.05,2.8,5.47c1.86,1.42,4.37,2.6,7.53,3.53s7.51,2.07,13.04,3.42c6.57,1.6,11.94,3.52,16.11,5.75
			c4.17,2.23,7.32,4.85,9.47,7.88S978.07,428.87,978.07,432.76z"/>
		<path class="st0" d="M997.17,376.15h2.33v-12.73c0-3.42,0.09-6.1,0.27-8.04c0.18-1.94,0.69-3.61,1.51-5.01
			c0.83-1.45,2.02-2.63,3.57-3.53c1.55-0.9,3.29-1.36,5.2-1.36c2.69,0,5.12,1.01,7.3,3.03c1.45,1.35,2.37,2.99,2.76,4.93
			c0.39,1.94,0.58,4.7,0.58,8.27v14.44h7.76c3,0,5.29,0.71,6.87,2.14c1.58,1.42,2.37,3.25,2.37,5.47c0,2.85-1.13,4.84-3.38,5.98
			c-2.25,1.14-5.47,1.71-9.67,1.71h-3.96v38.98c0,3.31,0.12,5.86,0.35,7.65c0.23,1.79,0.85,3.24,1.86,4.35
			c1.01,1.11,2.65,1.67,4.93,1.67c1.24,0,2.92-0.22,5.05-0.66c2.12-0.44,3.78-0.66,4.97-0.66c1.71,0,3.25,0.69,4.62,2.06
			c1.37,1.37,2.06,3.07,2.06,5.09c0,3.42-1.86,6.03-5.59,7.84c-3.73,1.81-9.08,2.72-16.07,2.72c-6.63,0-11.65-1.11-15.06-3.34
			s-5.66-5.31-6.72-9.24c-1.06-3.93-1.59-9.19-1.59-15.76v-40.69h-2.8c-3.05,0-5.38-0.72-6.99-2.17c-1.6-1.45-2.41-3.29-2.41-5.51
			c0-2.22,0.84-4.05,2.52-5.47C991.51,376.86,993.96,376.15,997.17,376.15z"/>
		<path class="st0" d="M1105.88,448.52c-5.12,3.99-10.08,6.98-14.87,8.97s-10.16,2.99-16.11,2.99c-5.44,0-10.21-1.08-14.33-3.22
			c-4.12-2.15-7.29-5.06-9.51-8.74c-2.23-3.68-3.34-7.66-3.34-11.96c0-5.8,1.84-10.74,5.51-14.83c3.68-4.09,8.72-6.83,15.14-8.23
			c1.35-0.31,4.68-1.01,10.02-2.1c5.33-1.09,9.9-2.08,13.7-2.99c3.8-0.9,7.93-2.01,12.38-3.3c-0.26-5.59-1.38-9.69-3.38-12.31
			c-1.99-2.61-6.12-3.92-12.38-3.92c-5.38,0-9.43,0.75-12.15,2.25c-2.72,1.5-5.05,3.75-6.99,6.76c-1.94,3-3.31,4.98-4.12,5.94
			c-0.8,0.96-2.52,1.44-5.16,1.44c-2.38,0-4.44-0.76-6.17-2.29c-1.73-1.53-2.6-3.48-2.6-5.86c0-3.73,1.32-7.35,3.96-10.87
			c2.64-3.52,6.76-6.42,12.35-8.7c5.59-2.28,12.55-3.42,20.89-3.42c9.32,0,16.64,1.1,21.97,3.3c5.33,2.2,9.1,5.68,11.3,10.44
			c2.2,4.76,3.3,11.08,3.3,18.95c0,4.97-0.01,9.19-0.04,12.66c-0.03,3.47-0.06,7.33-0.12,11.57c0,3.99,0.66,8.14,1.98,12.46
			c1.32,4.32,1.98,7.1,1.98,8.35c0,2.17-1.02,4.15-3.07,5.94c-2.04,1.79-4.36,2.68-6.95,2.68c-2.17,0-4.32-1.02-6.44-3.07
			C1110.51,455.36,1108.26,452.4,1105.88,448.52z M1104.48,417.85c-3.11,1.14-7.62,2.34-13.55,3.61c-5.93,1.27-10.03,2.2-12.31,2.8
			c-2.28,0.6-4.45,1.76-6.52,3.49c-2.07,1.74-3.11,4.15-3.11,7.26c0,3.21,1.22,5.94,3.65,8.19c2.43,2.25,5.62,3.38,9.55,3.38
			c4.19,0,8.06-0.92,11.61-2.76c3.55-1.84,6.15-4.2,7.8-7.1c1.92-3.21,2.87-8.49,2.87-15.84V417.85z"/>
		<path class="st0" d="M1146.8,447.59v-91.93c0-4.24,0.94-7.45,2.83-9.63s4.44-3.26,7.65-3.26s5.8,1.08,7.76,3.22
			c1.97,2.15,2.95,5.37,2.95,9.67v91.93c0,4.3-1,7.52-2.99,9.67c-1.99,2.15-4.57,3.22-7.73,3.22c-3.11,0-5.63-1.11-7.57-3.34
			C1147.77,454.91,1146.8,451.73,1146.8,447.59z"/>
		<path class="st0" d="M1267.85,389.82v61.57c0,7.04-0.75,13.1-2.25,18.17c-1.5,5.07-3.91,9.27-7.22,12.58
			c-3.31,3.31-7.65,5.77-13.01,7.38c-5.36,1.6-12.02,2.41-19.99,2.41c-7.3,0-13.82-1.02-19.57-3.07
			c-5.75-2.05-10.17-4.69-13.28-7.92c-3.11-3.24-4.66-6.56-4.66-9.98c0-2.59,0.88-4.7,2.64-6.33c1.76-1.63,3.88-2.45,6.37-2.45
			c3.11,0,5.82,1.37,8.15,4.12c1.14,1.4,2.32,2.81,3.53,4.23c1.22,1.42,2.56,2.64,4.04,3.65c1.48,1.01,3.25,1.76,5.32,2.25
			c2.07,0.49,4.45,0.74,7.14,0.74c5.49,0,9.74-0.76,12.77-2.29c3.03-1.53,5.15-3.66,6.37-6.41c1.22-2.74,1.93-5.68,2.14-8.81
			c0.21-3.13,0.36-8.16,0.47-15.1c-3.26,4.56-7.03,8.02-11.3,10.4c-4.27,2.38-9.36,3.57-15.26,3.57c-7.09,0-13.29-1.81-18.6-5.44
			c-5.31-3.62-9.38-8.7-12.23-15.22c-2.85-6.52-4.27-14.05-4.27-22.6c0-6.37,0.87-12.11,2.6-17.24s4.21-9.45,7.42-12.97
			c3.21-3.52,6.91-6.17,11.1-7.96c4.19-1.79,8.8-2.68,13.82-2.68c6,0,11.21,1.15,15.61,3.46c4.4,2.3,8.49,5.91,12.27,10.83v-2.87
			c0-3.68,0.91-6.52,2.72-8.54c1.81-2.02,4.14-3.03,6.99-3.03c4.09,0,6.81,1.33,8.15,4C1267.18,380.95,1267.85,384.8,1267.85,389.82
			z M1206.43,416.68c0,8.59,1.88,15.09,5.63,19.49c3.75,4.4,8.61,6.6,14.56,6.6c3.52,0,6.85-0.94,9.98-2.83
			c3.13-1.89,5.68-4.74,7.65-8.54s2.95-8.42,2.95-13.86c0-8.64-1.9-15.37-5.71-20.19c-3.8-4.81-8.81-7.22-15.02-7.22
			c-6.06,0-10.91,2.3-14.56,6.91C1208.26,401.65,1206.43,408.19,1206.43,416.68z"/>
		<path class="st0" d="M1300,364.43c-2.95,0-5.47-0.9-7.57-2.72c-2.1-1.81-3.14-4.37-3.14-7.69c0-3,1.07-5.47,3.22-7.42
			c2.15-1.94,4.65-2.91,7.49-2.91c2.74,0,5.18,0.88,7.3,2.64c2.12,1.76,3.18,4.32,3.18,7.69c0,3.26-1.04,5.81-3.11,7.65
			C1305.3,363.51,1302.84,364.43,1300,364.43z M1310.48,386.32v61.26c0,4.24-1.01,7.45-3.03,9.63c-2.02,2.17-4.58,3.26-7.69,3.26
			c-3.11,0-5.63-1.11-7.57-3.34s-2.91-5.41-2.91-9.55v-60.64c0-4.19,0.97-7.35,2.91-9.47c1.94-2.12,4.46-3.18,7.57-3.18
			c3.11,0,5.67,1.06,7.69,3.18C1309.47,379.59,1310.48,382.55,1310.48,386.32z"/>
		<path class="st0" d="M1385.95,448.52c-5.12,3.99-10.08,6.98-14.87,8.97c-4.79,1.99-10.16,2.99-16.11,2.99
			c-5.44,0-10.21-1.08-14.33-3.22c-4.12-2.15-7.29-5.06-9.51-8.74c-2.23-3.68-3.34-7.66-3.34-11.96c0-5.8,1.84-10.74,5.51-14.83
			c3.68-4.09,8.72-6.83,15.14-8.23c1.35-0.31,4.68-1.01,10.02-2.1s9.9-2.08,13.7-2.99c3.8-0.9,7.93-2.01,12.38-3.3
			c-0.26-5.59-1.38-9.69-3.38-12.31c-1.99-2.61-6.12-3.92-12.38-3.92c-5.38,0-9.43,0.75-12.15,2.25c-2.72,1.5-5.05,3.75-6.99,6.76
			c-1.94,3-3.31,4.98-4.12,5.94c-0.8,0.96-2.52,1.44-5.16,1.44c-2.38,0-4.44-0.76-6.17-2.29c-1.73-1.53-2.6-3.48-2.6-5.86
			c0-3.73,1.32-7.35,3.96-10.87c2.64-3.52,6.76-6.42,12.35-8.7c5.59-2.28,12.55-3.42,20.89-3.42c9.32,0,16.64,1.1,21.97,3.3
			c5.33,2.2,9.1,5.68,11.3,10.44c2.2,4.76,3.3,11.08,3.3,18.95c0,4.97-0.01,9.19-0.04,12.66c-0.03,3.47-0.06,7.33-0.12,11.57
			c0,3.99,0.66,8.14,1.98,12.46c1.32,4.32,1.98,7.1,1.98,8.35c0,2.17-1.02,4.15-3.07,5.94c-2.04,1.79-4.36,2.68-6.95,2.68
			c-2.17,0-4.32-1.02-6.44-3.07C1390.58,455.36,1388.33,452.4,1385.95,448.52z M1384.55,417.85c-3.11,1.14-7.62,2.34-13.55,3.61
			c-5.93,1.27-10.03,2.2-12.31,2.8c-2.28,0.6-4.45,1.76-6.52,3.49c-2.07,1.74-3.11,4.15-3.11,7.26c0,3.21,1.22,5.94,3.65,8.19
			c2.43,2.25,5.62,3.38,9.55,3.38c4.19,0,8.06-0.92,11.61-2.76c3.55-1.84,6.15-4.2,7.8-7.1c1.92-3.21,2.87-8.49,2.87-15.84V417.85z"
			/>
	</g>
	<g>
		<path class="st0" d="M734.18,573.55l-18.25-72.52v78.58c0,4.35-0.97,7.61-2.91,9.78c-1.94,2.17-4.52,3.26-7.73,3.26
			c-3.11,0-5.64-1.08-7.61-3.22c-1.97-2.15-2.95-5.42-2.95-9.82v-90.07c0-4.97,1.29-8.32,3.88-10.06c2.59-1.73,6.08-2.6,10.48-2.6
			h7.14c4.3,0,7.42,0.39,9.36,1.16c1.94,0.78,3.38,2.17,4.31,4.19c0.93,2.02,1.99,5.31,3.18,9.86l16.54,62.35l16.54-62.35
			c1.19-4.55,2.25-7.84,3.18-9.86s2.37-3.42,4.31-4.19c1.94-0.78,5.06-1.16,9.36-1.16h7.14c4.4,0,7.89,0.87,10.48,2.6
			c2.59,1.74,3.88,5.09,3.88,10.06v90.07c0,4.35-0.97,7.61-2.91,9.78c-1.94,2.17-4.54,3.26-7.8,3.26c-3.05,0-5.56-1.09-7.53-3.26
			c-1.97-2.17-2.95-5.44-2.95-9.78v-78.58l-18.25,72.52c-1.19,4.71-2.16,8.17-2.91,10.37c-0.75,2.2-2.14,4.21-4.15,6.02
			c-2.02,1.81-4.81,2.72-8.39,2.72c-2.69,0-4.97-0.58-6.83-1.75c-1.86-1.16-3.31-2.65-4.35-4.46c-1.04-1.81-1.85-3.82-2.45-6.02
			C735.41,578.22,734.8,575.93,734.18,573.55z"/>
		<path class="st0" d="M881.79,580.7v-2.72c-2.54,3.21-5.2,5.9-8,8.08c-2.8,2.17-5.85,3.79-9.16,4.85
			c-3.31,1.06-7.09,1.59-11.34,1.59c-5.12,0-9.72-1.06-13.78-3.18c-4.06-2.12-7.21-5.05-9.43-8.77c-2.64-4.5-3.96-10.97-3.96-19.41
			v-42.01c0-4.24,0.96-7.42,2.87-9.51c1.92-2.1,4.45-3.14,7.61-3.14c3.21,0,5.8,1.06,7.76,3.18c1.97,2.12,2.95,5.28,2.95,9.47v33.93
			c0,4.92,0.41,9.05,1.24,12.38c0.83,3.34,2.32,5.95,4.46,7.84c2.15,1.89,5.06,2.83,8.74,2.83c3.57,0,6.94-1.06,10.09-3.18
			c3.16-2.12,5.46-4.89,6.91-8.31c1.19-3,1.79-9.58,1.79-19.72v-25.78c0-4.19,0.98-7.35,2.95-9.47c1.97-2.12,4.53-3.18,7.69-3.18
			c3.16,0,5.69,1.05,7.61,3.14c1.92,2.1,2.87,5.27,2.87,9.51v61.42c0,4.04-0.92,7.07-2.76,9.08c-1.84,2.02-4.21,3.03-7.1,3.03
			s-5.29-1.05-7.18-3.14C882.73,587.41,881.79,584.47,881.79,580.7z"/>
		<path class="st0" d="M991.04,564.93c0,5.85-1.42,10.86-4.27,15.02c-2.85,4.17-7.05,7.33-12.62,9.47
			c-5.56,2.15-12.33,3.22-20.3,3.22c-7.61,0-14.13-1.16-19.57-3.49c-5.44-2.33-9.45-5.24-12.04-8.74s-3.88-7-3.88-10.52
			c0-2.33,0.83-4.32,2.48-5.98c1.66-1.66,3.75-2.48,6.29-2.48c2.23,0,3.93,0.54,5.12,1.63c1.19,1.09,2.33,2.61,3.42,4.58
			c2.17,3.78,4.78,6.6,7.8,8.46c3.03,1.86,7.16,2.8,12.38,2.8c4.24,0,7.73-0.94,10.44-2.83c2.72-1.89,4.08-4.05,4.08-6.48
			c0-3.73-1.41-6.44-4.23-8.15c-2.82-1.71-7.47-3.34-13.94-4.89c-7.3-1.81-13.24-3.71-17.82-5.71c-4.58-1.99-8.24-4.62-10.99-7.88
			c-2.74-3.26-4.12-7.27-4.12-12.04c0-4.24,1.27-8.26,3.8-12.04c2.54-3.78,6.28-6.79,11.22-9.05c4.94-2.25,10.91-3.38,17.9-3.38
			c5.49,0,10.42,0.57,14.79,1.71c4.37,1.14,8.02,2.67,10.95,4.58c2.92,1.92,5.15,4.04,6.68,6.37c1.53,2.33,2.29,4.61,2.29,6.83
			c0,2.43-0.82,4.43-2.45,5.98c-1.63,1.55-3.95,2.33-6.95,2.33c-2.17,0-4.02-0.62-5.55-1.86c-1.53-1.24-3.27-3.11-5.24-5.59
			c-1.6-2.07-3.49-3.73-5.67-4.97s-5.12-1.86-8.85-1.86c-3.83,0-7.01,0.82-9.55,2.45c-2.54,1.63-3.8,3.66-3.8,6.1
			c0,2.23,0.93,4.05,2.8,5.47c1.86,1.42,4.37,2.6,7.53,3.53c3.16,0.93,7.51,2.07,13.04,3.42c6.57,1.6,11.94,3.52,16.11,5.75
			c4.17,2.23,7.32,4.85,9.47,7.88S991.04,561.05,991.04,564.93z"/>
		<path class="st0" d="M1068.14,554.76h-41.46c0.05,4.81,1.02,9.06,2.91,12.73c1.89,3.68,4.4,6.44,7.53,8.31
			c3.13,1.86,6.59,2.8,10.37,2.8c2.54,0,4.85-0.3,6.95-0.89c2.1-0.59,4.13-1.53,6.1-2.8c1.97-1.27,3.78-2.63,5.44-4.08
			c1.66-1.45,3.8-3.42,6.44-5.9c1.09-0.93,2.64-1.4,4.66-1.4c2.17,0,3.93,0.6,5.28,1.79c1.35,1.19,2.02,2.87,2.02,5.05
			c0,1.92-0.75,4.15-2.25,6.72c-1.5,2.56-3.77,5.02-6.79,7.38c-3.03,2.36-6.83,4.31-11.41,5.86c-4.58,1.55-9.85,2.33-15.8,2.33
			c-13.61,0-24.2-3.88-31.76-11.65c-7.56-7.76-11.34-18.3-11.34-31.6c0-6.26,0.93-12.07,2.8-17.43c1.86-5.36,4.58-9.95,8.15-13.78
			c3.57-3.83,7.97-6.77,13.2-8.81c5.23-2.04,11.03-3.07,17.39-3.07c8.28,0,15.39,1.75,21.31,5.24s10.37,8.01,13.32,13.55
			c2.95,5.54,4.43,11.18,4.43,16.93c0,5.33-1.53,8.79-4.58,10.37C1077.98,553.97,1073.68,554.76,1068.14,554.76z M1026.68,542.73
			h38.44c-0.52-7.25-2.47-12.67-5.86-16.27c-3.39-3.6-7.86-5.4-13.39-5.4c-5.28,0-9.62,1.82-13.01,5.47
			S1027.4,535.58,1026.68,542.73z"/>
		<path class="st0" d="M1158.52,580.7v-2.72c-2.54,3.21-5.2,5.9-8,8.08s-5.85,3.79-9.16,4.85c-3.31,1.06-7.09,1.59-11.34,1.59
			c-5.12,0-9.72-1.06-13.78-3.18c-4.06-2.12-7.21-5.05-9.43-8.77c-2.64-4.5-3.96-10.97-3.96-19.41v-42.01
			c0-4.24,0.96-7.42,2.87-9.51c1.92-2.1,4.45-3.14,7.61-3.14c3.21,0,5.8,1.06,7.76,3.18c1.97,2.12,2.95,5.28,2.95,9.47v33.93
			c0,4.92,0.41,9.05,1.24,12.38c0.83,3.34,2.32,5.95,4.46,7.84c2.15,1.89,5.06,2.83,8.74,2.83c3.57,0,6.94-1.06,10.09-3.18
			c3.16-2.12,5.46-4.89,6.91-8.31c1.19-3,1.79-9.58,1.79-19.72v-25.78c0-4.19,0.98-7.35,2.95-9.47c1.97-2.12,4.53-3.18,7.69-3.18
			c3.16,0,5.69,1.05,7.61,3.14c1.92,2.1,2.87,5.27,2.87,9.51v61.42c0,4.04-0.92,7.07-2.76,9.08c-1.84,2.02-4.21,3.03-7.1,3.03
			c-2.9,0-5.29-1.05-7.18-3.14C1159.47,587.41,1158.52,584.47,1158.52,580.7z"/>
		<path class="st0" d="M1270.02,551.11v28.19c0,4.45-1.01,7.79-3.03,10.02c-2.02,2.22-4.68,3.34-8,3.34c-3.21,0-5.81-1.11-7.8-3.34
			c-1.99-2.22-2.99-5.56-2.99-10.02v-33.78c0-5.33-0.18-9.47-0.54-12.42c-0.36-2.95-1.35-5.37-2.95-7.26
			c-1.6-1.89-4.14-2.83-7.61-2.83c-6.94,0-11.5,2.38-13.7,7.14c-2.2,4.76-3.3,11.6-3.3,20.5v28.65c0,4.4-1,7.73-2.99,9.98
			c-1.99,2.25-4.62,3.38-7.88,3.38c-3.21,0-5.84-1.13-7.88-3.38c-2.04-2.25-3.07-5.58-3.07-9.98v-60.64c0-3.99,0.92-7.01,2.76-9.08
			c1.84-2.07,4.26-3.11,7.26-3.11c2.9,0,5.32,0.97,7.26,2.91s2.91,4.62,2.91,8.04v2.02c3.68-4.4,7.61-7.64,11.8-9.71
			c4.19-2.07,8.85-3.11,13.98-3.11c5.33,0,9.91,1.06,13.74,3.18c3.83,2.12,6.99,5.33,9.47,9.63c3.57-4.35,7.4-7.57,11.49-9.67
			c4.09-2.1,8.62-3.14,13.59-3.14c5.8,0,10.79,1.14,14.99,3.42c4.19,2.28,7.32,5.54,9.4,9.78c1.81,3.83,2.72,9.86,2.72,18.09v41.39
			c0,4.45-1.01,7.79-3.03,10.02c-2.02,2.22-4.68,3.34-8,3.34c-3.21,0-5.84-1.13-7.88-3.38c-2.04-2.25-3.07-5.58-3.07-9.98v-35.64
			c0-4.55-0.19-8.2-0.58-10.95c-0.39-2.74-1.44-5.05-3.14-6.91c-1.71-1.86-4.3-2.8-7.76-2.8c-2.8,0-5.45,0.83-7.96,2.48
			c-2.51,1.66-4.46,3.88-5.86,6.68C1270.8,535.74,1270.02,542.05,1270.02,551.11z"/>
	</g>
</g>
</svg>
