<?xml version="1.0" encoding="utf-8"?>
<!-- Generator: Adobe Illustrator 25.4.1, SVG Export Plug-In . SVG Version: 6.00 Build 0)  -->
<svg version="1.1" id="Слой_1" xmlns="http://www.w3.org/2000/svg" xmlns:xlink="http://www.w3.org/1999/xlink" x="0px" y="0px"
	 viewBox="0 0 1025.4 1600" style="enable-background:new 0 0 1025.4 1600;" xml:space="preserve">
<style type="text/css">
	.st0{fill:#1C2343;}
	.st1{fill:#5161AA;}
	.st2{fill:#404B85;}
	.st3{fill:#272F64;}
	.st4{fill:#ACB9DD;}
	.st5{fill:#D8DFEF;}
	.st6{fill:#F4EB6A;}
	.st7{fill:#C2CBE9;}
	.st8{fill:#343F70;}
	.st9{fill:none;stroke:#404B85;stroke-miterlimit:10;}
</style>
<g>
	<path class="st0" d="M650.3,102.9c-1.2,0-2.4,0-3.6,0c-50.3-54.5-125.1-89-208.6-89c-151.6,0-274.4,113.8-274.4,254.1
		c0,6.5,0.3,13,0.8,19.4C86.6,337.4,34.1,432.3,34.1,541.2c0,160.7,114.3,290.9,255.4,290.9c17.9,0,35.3-2.1,52.1-6.1
		c0.3,25.8,14.9,48.8,37.9,64.5c-6.9,12-10.8,25.5-10.8,39.8c0,24.9,11.8,47.4,30.9,63.6c-4.6,11.1-7.2,23.4-7.2,36.3
		c0,49.6,37.9,89.8,84.7,89.8c46.8,0,84.7-40.2,84.7-89.8c0-14.6-3.3-28.5-9.2-40.7c16.3-15.8,26.1-36.6,26.1-59.3
		c0-24.7-11.7-47.1-30.6-63.3c6.4-9,10.7-19.1,12.6-29.7c28.6,8.2,58.6,12.6,89.6,12.6c191.6,0,346.8-167.2,346.8-373.5
		S841.8,102.9,650.3,102.9z"/>
	<g>
		<polygon class="st1" points="81.4,1223.9 81.4,1583.5 879.2,1586 878,1225.2 		"/>
		<path class="st2" d="M879.6,1225.2c-265.5-0.4-531.1-0.8-796.6-1.3c-11-13.1-22-26.3-33-39.4h862.6
			C901.7,1198.1,890.7,1211.6,879.6,1225.2z"/>
		<polygon class="st3" points="191.1,1188.8 483.3,1014.7 766.6,1187.5 		"/>
		<rect x="142.8" y="1292.7" class="st4" width="52.1" height="53.4"/>
		<polygon class="st4" points="660.7,1277.7 649.7,1538.6 578.1,1538.1 571.8,1277.7 		"/>
		<polygon class="st4" points="304.1,1273.9 315.1,1534.8 386.7,1534.3 393.1,1273.9 		"/>
		<polygon class="st2" points="81.7,1530.7 879.2,1532.6 879.2,1586 81.7,1584 		"/>
		<polygon class="st2" points="432.9,1274.3 444.7,1530.9 515.9,1530.9 525.2,1274.3 		"/>
		<polygon class="st4" points="477.6,1530.9 476.1,1403 438.8,1402.5 444.7,1530.9 		"/>
		<polygon class="st4" points="515.9,1530.9 520.5,1402.6 486.2,1403 484.7,1530.9 		"/>
		<polygon class="st4" points="643.4,1146.4 482.6,1053.6 482.4,1053.3 482.2,1053.4 482,1053.3 481.8,1053.6 321.1,1146.4 
			327.4,1157.4 482.2,1068 637,1157.4 		"/>
		<rect x="81.7" y="1530.7" class="st3" width="161.8" height="53.4"/>
		<rect x="717.5" y="1532.6" class="st3" width="161.8" height="53.4"/>
		<rect x="237.2" y="1224.5" class="st3" width="487" height="50.8"/>
		<g>
			<polygon class="st5" points="178.4,1346.1 194.9,1346.1 194.9,1328.2 150.6,1292.7 142.8,1292.7 142.8,1310.9 			"/>
		</g>
		<g>
			<rect x="144" y="1381.9" class="st4" width="50.8" height="115.2"/>
			<polygon class="st5" points="144,1416.1 194.9,1449.8 194.9,1431.5 144,1398.9 			"/>
			<polygon class="st5" points="144,1454.9 194.9,1486.8 194.9,1468 144,1437.2 			"/>
		</g>
		<g>
			<rect x="766.6" y="1292.7" class="st4" width="52.1" height="53.4"/>
			<polygon class="st5" points="802.2,1346.1 818.7,1346.1 818.7,1328.2 774.4,1292.7 766.6,1292.7 766.6,1310.9 			"/>
		</g>
		<g>
			<rect x="764.7" y="1381.9" class="st4" width="50.8" height="115.2"/>
			<polygon class="st5" points="764.7,1416.1 815.5,1449.8 815.5,1431.5 764.7,1398.9 			"/>
			<polygon class="st5" points="764.7,1454.9 815.5,1486.8 815.5,1468 764.7,1437.2 			"/>
		</g>
		<polygon class="st5" points="387.8,1487.4 388.7,1451.5 308.2,1371 309.8,1409.3 		"/>
		<polygon class="st5" points="306.5,1330.6 389.6,1413.8 390.5,1377.9 305.1,1292.5 304.9,1292.8 		"/>
		<polygon class="st5" points="654.5,1424 656.1,1387.4 572.4,1302.6 573.3,1341.8 		"/>
		<polygon class="st5" points="651.5,1496.5 653,1459.5 574.3,1382.7 575.3,1422.1 		"/>
		<polygon class="st5" points="441.7,1465.6 477.1,1486 476.8,1464.8 440.7,1444 		"/>
		<polygon class="st5" points="485.2,1487.5 516.8,1505.3 517.6,1483.3 485.5,1465.2 		"/>
	</g>
	<g>
		
			<image style="overflow:visible;opacity:0.72;" width="253" height="260" xlink:href="58791554.png"  transform="matrix(0.24 0 0 0.24 300.06 60.04)">
		</image>
		<g>
			<polygon class="st6" points="327.2,75.2 325.2,86.4 315.1,90.7 324.4,96.2 325.6,107.4 333.7,100.1 344.4,102.2 340.1,92.3 
				345.7,82.9 334.6,83.8 			"/>
		</g>
	</g>
	<g>
		
			<image style="overflow:visible;opacity:0.72;" width="350" height="357" xlink:href="58791555.png"  transform="matrix(0.24 0 0 0.24 359.1 39.16)">
		</image>
		<g>
			<polygon class="st6" points="405.5,54.2 393.5,69.9 374.3,68.4 384.3,84.4 377.2,102.7 395.6,97.9 410.6,109.7 411.8,90.8 
				428.1,80.8 410,73.3 			"/>
		</g>
	</g>
	<g>
		
			<image style="overflow:visible;opacity:0.72;" width="291" height="296" xlink:href="58791553.png"  transform="matrix(0.24 0 0 0.24 252.54 97.48)">
		</image>
		<g>
			<polygon class="st6" points="269.4,117.8 275.4,131.2 267.7,143.1 281.6,142.3 291.1,153.4 294.4,139.7 307.3,134.1 295.5,126.7 
				294.7,112.5 283.5,121.6 			"/>
		</g>
	</g>
	<g>
		
			<image style="overflow:visible;opacity:0.72;" width="359" height="366" xlink:href="5879155C.png"  transform="matrix(0.24 0 0 0.24 399.18 167.56)">
		</image>
		<g>
			<polygon class="st6" points="416.8,190.2 425.2,209 414.3,225.8 434,224.6 447.3,240.3 451.9,221 470.2,213.1 453.6,202.6 
				452.4,182.7 436.6,195.5 			"/>
		</g>
	</g>
	<g>
		
			<image style="overflow:visible;opacity:0.72;" width="253" height="250" xlink:href="5879155F.png"  transform="matrix(0.24 0 0 0.24 337.02 175.24)">
		</image>
		<g>
			<polygon class="st6" points="382.6,207.1 373.6,200.9 373.9,190.3 365.4,196.3 355.1,192.9 358.2,202.8 352.2,211.4 362.6,211.6 
				368.6,220.2 372.2,210.1 			"/>
		</g>
	</g>
	<g>
		
			<image style="overflow:visible;opacity:0.72;" width="335" height="346" xlink:href="5879155D.png"  transform="matrix(0.24 0 0 0.24 303.18 222.04)">
		</image>
		<g>
			<polygon class="st6" points="368.5,280.8 359.6,264.2 368.3,248.2 350.6,250.6 337.4,237.2 334.4,255.1 318.3,263.5 334.2,271.9 
				336.5,290 350.1,277.3 			"/>
		</g>
	</g>
	<g>
		
			<image style="overflow:visible;opacity:0.72;" width="299" height="294" xlink:href="58791552.png"  transform="matrix(0.24 0 0 0.24 313.26 107.8)">
		</image>
		<g>
			<polygon class="st6" points="369.9,135.1 355.2,135 347.4,123 342.4,136.1 328.3,140.2 339.4,148.9 339.2,163.2 351,155.4 
				364.3,160.5 360.6,146.4 			"/>
		</g>
	</g>
	<g>
		
			<image style="overflow:visible;opacity:0.72;" width="434" height="423" xlink:href="58791556.png"  transform="matrix(0.24 0 0 0.24 193.26 251.56)">
		</image>
		<g>
			<polygon class="st6" points="282.4,288.1 256.2,288 242.4,266.6 233.5,290 208.4,297.1 228.2,312.7 227.9,338 248.7,324.2 
				272.4,333.3 265.8,308.2 			"/>
		</g>
	</g>
	<g>
		
			<image style="overflow:visible;opacity:0.72;" width="213" height="217" xlink:href="58791557.png"  transform="matrix(0.24 0 0 0.24 241.26 147.4)">
		</image>
		<g>
			<polygon class="st6" points="264.7,162.6 263.3,170.1 256.5,173 262.7,176.7 263.5,184.3 269,179.4 276.3,180.8 273.4,174.1 
				277.2,167.7 269.6,168.4 			"/>
		</g>
	</g>
	<g>
		
			<image style="overflow:visible;opacity:0.72;" width="238" height="241" xlink:href="C9801573.png"  transform="matrix(0.24 0 0 0.24 212.94 169)">
		</image>
		<g>
			<polygon class="st6" points="229.2,187.8 233.3,196.8 228,204.9 237.4,204.3 243.8,211.8 246.1,202.6 254.8,198.8 246.9,193.7 
				246.3,184.2 238.7,190.3 			"/>
		</g>
	</g>
	<g>
		
			<image style="overflow:visible;opacity:0.72;" width="208" height="206" xlink:href="C9801571.png"  transform="matrix(0.24 0 0 0.24 270.54 219.16)">
		</image>
		<g>
			<polygon class="st6" points="305.3,245.1 299.5,241.1 299.7,234.3 294.2,238.1 287.6,235.9 289.6,242.3 285.7,247.9 292.4,248 
				296.3,253.6 298.6,247 			"/>
		</g>
	</g>
	<g>
		
			<image style="overflow:visible;opacity:0.72;" width="234" height="230" xlink:href="C9801577.png"  transform="matrix(0.24 0 0 0.24 281.1 172.12)">
		</image>
		<g>
			<polygon class="st6" points="322.2,194.7 313,194.7 308.2,187.2 305.1,195.3 296.3,197.9 303.2,203.3 303.1,212.2 310.4,207.3 
				318.7,210.5 316.4,201.7 			"/>
		</g>
	</g>
	<g>
		
			<image style="overflow:visible;opacity:0.72;" width="258" height="253" xlink:href="C9801572.png"  transform="matrix(0.24 0 0 0.24 628.14 170.92)">
		</image>
		<g>
			<polygon class="st6" points="670.3,186.8 660.1,191.7 650.7,186 651.6,196.7 643.2,204.3 653.9,206.6 658.5,216.5 664,207.2 
				674.9,206.3 667.6,197.8 			"/>
		</g>
	</g>
	<g>
		
			<image style="overflow:visible;opacity:0.72;" width="359" height="349" xlink:href="C980156D.png"  transform="matrix(0.24 0 0 0.24 661.98 205.96)">
		</image>
		<g>
			<polygon class="st6" points="733.1,237.9 713.3,237.4 703.3,221 696.2,238.5 677.2,243.4 691.9,255.5 691.1,274.6 707.1,264.6 
				724.7,271.8 720.3,252.8 			"/>
		</g>
	</g>
	<g>
		
			<image style="overflow:visible;opacity:0.72;" width="295" height="293" xlink:href="C980156E.png"  transform="matrix(0.24 0 0 0.24 565.26 149.8)">
		</image>
		<g>
			<polygon class="st6" points="601.9,164.8 594.6,177.5 580.4,178.2 589.3,189 585.8,203.1 598.8,197.8 610.9,205 610,191.1 
				621,182.2 607.1,178.4 			"/>
		</g>
	</g>
	<g>
		
			<image style="overflow:visible;opacity:0.72;" width="429" height="426" xlink:href="C980156F.png"  transform="matrix(0.24 0 0 0.24 381.42 263.08)">
		</image>
		<g>
			<polygon class="st6" points="435.1,278.1 421.9,300.8 396.5,302.1 412.4,321.4 406.1,346.8 429.4,337.3 451.2,350.3 449.6,325.3 
				469.3,309.3 444.3,302.5 			"/>
		</g>
	</g>
	<g>
		
			<image style="overflow:visible;opacity:0.72;" width="250" height="253" xlink:href="C9801591.png"  transform="matrix(0.24 0 0 0.24 559.26 263.08)">
		</image>
		<g>
			<polygon class="st6" points="595.7,308.7 595.4,297.9 604.2,291.9 594.4,288.5 591.1,278.1 584.9,286.5 574.4,286.6 580.3,295.2 
				576.8,305.1 587.1,302.1 			"/>
		</g>
	</g>
	<g>
		
			<image style="overflow:visible;opacity:0.72;" width="345" height="337" xlink:href="C9801593.png"  transform="matrix(0.24 0 0 0.24 486.3 274.6)">
		</image>
		<g>
			<polygon class="st6" points="527.6,340.4 535.8,323.5 554,321.2 541.6,308.2 544.8,289.8 528.6,297.7 512.3,289.6 514.7,307.4 
				501.5,319.8 519.7,323.4 			"/>
		</g>
	</g>
	<g>
		
			<image style="overflow:visible;opacity:0.72;" width="296" height="297" xlink:href="C9801596.png"  transform="matrix(0.24 0 0 0.24 590.7 210.52)">
		</image>
		<g>
			<polygon class="st6" points="646.7,256.4 638.1,244.4 643.3,231.1 629.7,234.7 618.2,225.6 617.6,239.8 605.9,247.9 619.1,252.9 
				622.7,266.7 632,255.5 			"/>
		</g>
	</g>
	<g>
		
			<image style="overflow:visible;opacity:0.72;" width="427" height="430" xlink:href="C980158A.png"  transform="matrix(0.24 0 0 0.24 109.5 382.84)">
		</image>
		<g>
			<polygon class="st6" points="196.9,452.7 181.7,431.3 191,407.7 166.9,414.1 146.4,398 145.4,423.1 124.6,437.6 148,446.4 
				154.4,471 170.9,451 			"/>
		</g>
	</g>
	<g>
		
			<image style="overflow:visible;opacity:0.72;" width="240" height="239" xlink:href="C9801589.png"  transform="matrix(0.24 0 0 0.24 492.06 157.96)">
		</image>
		<g>
			<polygon class="st6" points="521.7,173 516.7,181.6 507.1,182.1 513.1,189.4 510.7,198.9 519.5,195.4 527.8,200.3 527.2,190.8 
				534.6,184.8 525.2,182.2 			"/>
		</g>
	</g>
	<g>
		
			<image style="overflow:visible;opacity:0.72;" width="206" height="208" xlink:href="C98015B6.png"  transform="matrix(0.24 0 0 0.24 490.86 233.32)">
		</image>
		<g>
			<polygon class="st6" points="519.7,268.2 519.5,261.2 525.1,257.4 518.8,255.2 516.7,248.5 512.7,253.9 505.9,254 509.8,259.5 
				507.5,265.9 514.2,264 			"/>
		</g>
	</g>
	<g>
		
			<image style="overflow:visible;opacity:0.72;" width="231" height="233" xlink:href="C98015B9.png"  transform="matrix(0.24 0 0 0.24 529.98 218.2)">
		</image>
		<g>
			<polygon class="st6" points="570.4,252.5 565.1,245 568.3,236.7 559.9,239 552.7,233.3 552.3,242.1 545.1,247.2 553.2,250.3 
				555.5,258.9 561.3,251.9 			"/>
		</g>
	</g>
	<g>
		
			<image style="overflow:visible;opacity:0.72;" width="254" height="257" xlink:href="C98015BA.png"  transform="matrix(0.24 0 0 0.24 491.34 36.28)">
		</image>
		<g>
			<polygon class="st6" points="537.1,57.2 526,59.3 518.4,51.3 516.5,61.9 506.5,67.1 516.1,72 518.1,82.8 525.8,75.2 536.6,77.2 
				531.7,67.1 			"/>
		</g>
	</g>
	<g>
		
			<image style="overflow:visible;opacity:0.72;" width="357" height="354" xlink:href="C98015B8.png"  transform="matrix(0.24 0 0 0.24 514.14 83.56)">
		</image>
		<g>
			<polygon class="st6" points="584.6,122.7 565.7,117.1 560.2,98.7 548.9,113.8 529.2,113.7 540.3,129.1 534.6,147.3 552.6,141.8 
				567.8,153.3 568.4,133.8 			"/>
		</g>
	</g>
	<g>
		
			<image style="overflow:visible;opacity:0.72;" width="251" height="254" xlink:href="C98015BE.png"  transform="matrix(0.24 0 0 0.24 401.1 109.96)">
		</image>
		<g>
			<polygon class="st6" points="433.6,155.8 436.2,145.2 446.2,141.7 437.6,135.8 437.1,125 428.9,131.5 418.7,128.9 422.3,138.7 
				416.3,147.4 427.1,147.1 			"/>
		</g>
	</g>
	<g>
		
			<image style="overflow:visible;opacity:0.72;" width="295" height="297" xlink:href="C98015BB.png"  transform="matrix(0.24 0 0 0.24 444.06 66.04)">
		</image>
		<g>
			<polygon class="st6" points="496.4,118.3 491.2,104.5 499.7,93 485.6,93 476.8,81.2 472.6,94.8 459.2,99.6 470.6,107.9 
				470.6,122.1 482.5,113.7 			"/>
		</g>
	</g>
	<g>
		
			<image style="overflow:visible;opacity:0.72;" width="257" height="255" xlink:href="C9801586.png"  transform="matrix(0.24 0 0 0.24 459.42 717.64)">
		</image>
		<g>
			<polygon class="st6" points="481.6,763.8 491.1,757.6 501.2,762 498.8,751.4 506.1,742.8 495.2,742 489.3,732.8 485.1,742.8 
				474.4,745.1 482.8,752.6 			"/>
		</g>
	</g>
	<g>
		
			<image style="overflow:visible;opacity:0.72;" width="354" height="354" xlink:href="C9801587.png"  transform="matrix(0.24 0 0 0.24 397.26 664.6)">
		</image>
		<g>
			<polygon class="st6" points="412.5,721.6 432.1,719.5 444.2,734.4 448.9,716.1 467.1,708.6 451,698.7 449.1,679.6 434.7,691.7 
				416.2,686.9 423.2,705.1 			"/>
		</g>
	</g>
	<g>
		
			<image style="overflow:visible;opacity:0.72;" width="295" height="294" xlink:href="C98015DD.png"  transform="matrix(0.24 0 0 0.24 516.06 721)">
		</image>
		<g>
			<polygon class="st6" points="552.3,776.4 557.9,762.8 571.8,760.2 561.6,750.7 563.2,736.2 551,743.2 538,737.7 540.7,751.4 
				531.1,761.7 545.4,763.6 			"/>
		</g>
	</g>
	<g>
		
			<image style="overflow:visible;opacity:0.72;" width="431" height="425" xlink:href="C98015DB.png"  transform="matrix(0.24 0 0 0.24 449.34 541.24)">
		</image>
		<g>
			<polygon class="st6" points="502.7,628.2 512.6,603.9 537.6,599.2 519.3,582.2 522.1,556.3 500.3,568.8 476.9,558.9 481.9,583.4 
				464.6,601.9 490.2,605.3 			"/>
		</g>
	</g>
	<g>
		
			<image style="overflow:visible;opacity:0.72;" width="252" height="250" xlink:href="C98015E5.png"  transform="matrix(0.24 0 0 0.24 517.74 617.8)">
		</image>
		<g>
			<polygon class="st6" points="539.1,632.9 540.8,643.7 532.9,650.7 543.1,652.8 547.7,662.6 552.8,653.4 563.2,651.9 556.1,644.3 
				558.3,634 548.4,638.3 			"/>
		</g>
	</g>
	<g>
		
			<image style="overflow:visible;opacity:0.72;" width="343" height="345" xlink:href="C98015E7.png"  transform="matrix(0.24 0 0 0.24 563.58 577.24)">
		</image>
		<g>
			<polygon class="st6" points="602.2,592.3 596.4,610.2 578.7,614.9 592.7,626.1 592.1,644.8 607,634.7 624.3,640.6 619.4,623.3 
				630.9,609.2 612.3,608.1 			"/>
		</g>
	</g>
	<g>
		
			<image style="overflow:visible;opacity:0.72;" width="299" height="293" xlink:href="C98015E4.png"  transform="matrix(0.24 0 0 0.24 480.54 663.16)">
		</image>
		<g>
			<polygon class="st6" points="495.6,691.6 505.7,702.4 502.3,716.3 515.3,710.9 528,718.3 526.6,704.2 537.1,694.5 523.4,691.4 
				517.9,678.2 510.2,690.6 			"/>
		</g>
	</g>
	<g>
		
			<image style="overflow:visible;opacity:0.72;" width="433" height="422" xlink:href="C98015EB.png"  transform="matrix(0.24 0 0 0.24 651.66 610.84)">
		</image>
		<g>
			<polygon class="st6" points="666.8,649.7 684.8,668.8 678.8,693.5 701.8,683.9 724.3,697.1 721.9,672 740.6,654.9 716.2,649.3 
				706.5,625.9 692.8,647.8 			"/>
		</g>
	</g>
	<g>
		
			<image style="overflow:visible;opacity:0.72;" width="215" height="214" xlink:href="C98015ED.png"  transform="matrix(0.24 0 0 0.24 568.14 712.84)">
		</image>
		<g>
			<polygon class="st6" points="588.1,749 594.5,744.8 601.3,747.8 599.7,740.7 604.6,734.8 597.3,734.3 593.2,728 590.4,734.8 
				583.2,736.4 588.8,741.4 			"/>
		</g>
	</g>
	<g>
		
			<image style="overflow:visible;opacity:0.72;" width="241" height="240" xlink:href="C98015EF.png"  transform="matrix(0.24 0 0 0.24 601.26 715)">
		</image>
		<g>
			<polygon class="st6" points="630.7,757.4 634.5,748.2 643.9,746.4 637,740 638.1,730.2 629.8,734.9 621,731.2 622.9,740.5 
				616.4,747.4 626,748.7 			"/>
		</g>
	</g>
	<g>
		
			<image style="overflow:visible;opacity:0.72;" width="207" height="206" xlink:href="C98015EC.png"  transform="matrix(0.24 0 0 0.24 600.78 647.56)">
		</image>
		<g>
			<polygon class="st6" points="619.9,662.8 621,669.7 615.9,674.2 622.5,675.6 625.4,681.9 628.7,676 635.4,675 630.8,670.1 
				632.2,663.4 625.9,666.2 			"/>
		</g>
	</g>
	<g>
		
			<image style="overflow:visible;opacity:0.72;" width="233" height="230" xlink:href="C98015E6.png"  transform="matrix(0.24 0 0 0.24 556.62 661.72)">
		</image>
		<g>
			<polygon class="st6" points="571.7,685.2 578,691.9 575.9,700.5 584,697.2 591.9,701.8 591,693 597.5,687 589,685 585.6,676.8 
				580.8,684.5 			"/>
		</g>
	</g>
	<g>
		
			<image style="overflow:visible;opacity:0.72;" width="256" height="258" xlink:href="C98015C0.png"  transform="matrix(0.24 0 0 0.24 311.1 406.36)">
		</image>
		<g>
			<polygon class="st6" points="326.2,438.3 336.8,442.3 339.1,453.1 346.3,445 357.5,445.9 351.9,436.6 355.9,426.4 345.3,428.8 
				337.1,421.5 336,432.6 			"/>
		</g>
	</g>
	<g>
		
			<image style="overflow:visible;opacity:0.72;" width="357" height="352" xlink:href="C98015C3.png"  transform="matrix(0.24 0 0 0.24 304.86 325)">
		</image>
		<g>
			<polygon class="st6" points="320,357.5 333.2,372.2 328.3,390.7 345.8,383.9 362.5,394.3 361.2,375.3 375.5,362.7 357.2,358 
				350.4,340.2 339.6,356.5 			"/>
		</g>
	</g>
	<g>
		
			<image style="overflow:visible;opacity:0.72;" width="290" height="295" xlink:href="C98015C1.png"  transform="matrix(0.24 0 0 0.24 341.82 453.64)">
		</image>
		<g>
			<polygon class="st6" points="357.3,503 371.6,499.6 381.9,509.4 383.6,495.5 396.2,488.3 383.5,482.5 380.3,468.7 370.8,479 
				356.8,477.1 363.7,489.9 			"/>
		</g>
	</g>
	<g>
		
			<image style="overflow:visible;opacity:0.72;" width="341" height="342" xlink:href="C98015C7.png"  transform="matrix(0.24 0 0 0.24 472.14 415)">
		</image>
		<g>
			<polygon class="st6" points="535.9,435.9 517.9,441.6 503.8,430 502.9,447.9 487.3,458.3 504.3,464.6 509.6,482 520.8,468 
				538.9,469 529,453.3 			"/>
		</g>
	</g>
	<g>
		
			<image style="overflow:visible;opacity:0.72;" width="293" height="301" xlink:href="C98015C2.png"  transform="matrix(0.24 0 0 0.24 361.74 392.2)">
		</image>
		<g>
			<polygon class="st6" points="392.9,407.4 390.1,421.9 376.9,427.3 388.8,434.7 390.2,449.3 400.9,440 414.9,442.8 409.4,429.8 
				416.9,417.7 402.4,418.7 			"/>
		</g>
	</g>
	<g>
		
			<image style="overflow:visible;opacity:0.72;" width="422" height="436" xlink:href="C98015DC.png"  transform="matrix(0.24 0 0 0.24 671.58 113.56)">
		</image>
		<g>
			<polygon class="st6" points="715.2,128.7 710.2,154.4 686.7,164 707.9,177 710.3,203 729.3,186.4 754.1,191.5 744.4,168.5 
				757.7,146.9 731.9,148.7 			"/>
		</g>
	</g>
	<g>
		
			<image style="overflow:visible;opacity:0.72;" width="238" height="240" xlink:href="C98015DE.png"  transform="matrix(0.24 0 0 0.24 403.02 517.24)">
		</image>
		<g>
			<polygon class="st6" points="418.6,555.5 428.2,553.2 435.2,559.8 436.4,550.5 444.9,545.6 436.3,541.7 434.1,532.3 427.7,539.3 
				418.2,538 422.9,546.6 			"/>
		</g>
	</g>
	<g>
		
			<image style="overflow:visible;opacity:0.72;" width="205" height="209" xlink:href="C98015DF.png"  transform="matrix(0.24 0 0 0.24 461.58 476.2)">
		</image>
		<g>
			<polygon class="st6" points="489,491.4 484,496.3 477.4,494.9 480.1,501 476.7,507.1 483.4,506.3 488.1,511.1 489.5,504.6 
				495.7,501.8 489.7,498.3 			"/>
		</g>
	</g>
	<g>
		
			<image style="overflow:visible;opacity:0.72;" width="230" height="235" xlink:href="C98015C4.png"  transform="matrix(0.24 0 0 0.24 417.42 450.28)">
		</image>
		<g>
			<polygon class="st6" points="442.6,465.4 440.9,474.4 432.7,477.8 440.1,482.4 440.9,491.5 447.6,485.7 456.3,487.4 452.9,479.4 
				457.6,471.8 448.5,472.4 			"/>
		</g>
	</g>
	<g>
		
			<image style="overflow:visible;opacity:0.72;" width="258" height="255" xlink:href="C98015C5.png"  transform="matrix(0.24 0 0 0.24 308.94 595.72)">
		</image>
		<g>
			<polygon class="st6" points="324,624.1 333.2,630.7 332.6,641.7 341.6,635.7 352.2,639.5 349.2,629.1 355.7,620.3 344.9,619.9 
				338.8,610.7 334.8,621.2 			"/>
		</g>
	</g>
	<g>
		
			<image style="overflow:visible;opacity:0.72;" width="346" height="357" xlink:href="C980163F.png"  transform="matrix(0.24 0 0 0.24 323.1 520.36)">
		</image>
		<g>
			<polygon class="st6" points="338.8,544.5 347.8,562.1 338.2,578.7 356.9,576.6 370.4,590.9 373.9,572.3 391,563.8 374.6,554.6 
				372.5,535.6 358,548.6 			"/>
		</g>
	</g>
	<g>
		
			<image style="overflow:visible;opacity:0.72;" width="253" height="248" xlink:href="C980163D.png"  transform="matrix(0.24 0 0 0.24 427.02 616.12)">
		</image>
		<g>
			<polygon class="st6" points="466.7,631.2 457.3,636.7 447.9,631.8 449.6,642.1 442,649.9 452.4,651.3 457.5,660.5 462.2,651.2 
				472.6,649.6 465,641.9 			"/>
		</g>
	</g>
	<g>
		
			<image style="overflow:visible;opacity:0.72;" width="298" height="292" xlink:href="C980163B.png"  transform="matrix(0.24 0 0 0.24 360.54 596.44)">
		</image>
		<g>
			<polygon class="st6" points="396.4,611.5 389.9,624.8 375.7,626.6 385.4,636.8 382.9,651.3 395.7,645 408.4,651.3 406.5,637.4 
				416.9,627.6 402.6,624.8 			"/>
		</g>
	</g>
	<g>
		
			<image style="overflow:visible;opacity:0.72;" width="258" height="255" xlink:href="C9801625.png"  transform="matrix(0.24 0 0 0.24 118.14 577.24)">
		</image>
		<g>
			<polygon class="st6" points="140.5,623.4 150,617.2 160.1,621.6 157.7,611 165,602.5 154.1,601.6 148.2,592.4 144,602.4 
				133.3,604.7 141.7,612.2 			"/>
		</g>
	</g>
	<g>
		
			<image style="overflow:visible;opacity:0.72;" width="354" height="354" xlink:href="C9801627.png"  transform="matrix(0.24 0 0 0.24 56.22 524.2)">
		</image>
		<g>
			<polygon class="st6" points="71.4,581.2 91,579.1 103.1,594 107.8,575.7 126,568.2 109.9,558.3 108,539.2 93.6,551.3 75.1,546.5 
				82.1,564.7 			"/>
		</g>
	</g>
	<g>
		
			<image style="overflow:visible;opacity:0.72;" width="296" height="294" xlink:href="C980162A.png"  transform="matrix(0.24 0 0 0.24 174.78 580.6)">
		</image>
		<g>
			<polygon class="st6" points="211.2,636 216.8,622.4 230.7,619.8 220.5,610.3 222.1,595.8 209.9,602.8 196.9,597.3 199.6,611 
				190,621.3 204.3,623.2 			"/>
		</g>
	</g>
	<g>
		
			<image style="overflow:visible;opacity:0.72;" width="252" height="250" xlink:href="C980162B.png"  transform="matrix(0.24 0 0 0.24 176.7 477.4)">
		</image>
		<g>
			<polygon class="st6" points="198,492.5 199.7,503.3 191.8,510.3 202,512.4 206.6,522.2 211.7,513.1 222.1,511.5 215,503.9 
				217.2,493.6 207.3,497.9 			"/>
		</g>
	</g>
	<g>
		
			<image style="overflow:visible;opacity:0.72;" width="343" height="345" xlink:href="C980162D.png"  transform="matrix(0.24 0 0 0.24 222.54 436.84)">
		</image>
		<g>
			<polygon class="st6" points="261.1,451.9 255.3,469.8 237.6,474.5 251.6,485.7 250.9,504.4 265.9,494.3 283.2,500.2 278.3,482.9 
				289.8,468.8 271.2,467.7 			"/>
		</g>
	</g>
	<g>
		
			<image style="overflow:visible;opacity:0.72;" width="300" height="293" xlink:href="C980162F.png"  transform="matrix(0.24 0 0 0.24 139.26 522.76)">
		</image>
		<g>
			<polygon class="st6" points="154.5,551.2 164.6,562 161.2,575.9 174.2,570.5 186.9,577.9 185.5,563.8 196,554.1 182.3,551 
				176.8,537.8 169.1,550.2 			"/>
		</g>
	</g>
	<g>
		
			<image style="overflow:visible;opacity:0.72;" width="216" height="214" xlink:href="C9801628.png"  transform="matrix(0.24 0 0 0.24 226.86 572.44)">
		</image>
		<g>
			<polygon class="st6" points="246.9,608.6 253.3,604.4 260.2,607.4 258.5,600.3 263.5,594.4 256.1,593.9 252.1,587.6 249.3,594.4 
				242.1,596 247.7,601 			"/>
		</g>
	</g>
	<g>
		
			<image style="overflow:visible;opacity:0.72;" width="241" height="240" xlink:href="C980160E.png"  transform="matrix(0.24 0 0 0.24 260.22 574.6)">
		</image>
		<g>
			<polygon class="st6" points="289.6,617 293.4,607.8 302.8,606 295.9,599.6 297,589.8 288.7,594.5 279.9,590.8 281.8,600.1 
				275.3,607 284.9,608.3 			"/>
		</g>
	</g>
	<g>
		
			<image style="overflow:visible;opacity:0.72;" width="207" height="206" xlink:href="C980160D.png"  transform="matrix(0.24 0 0 0.24 259.74 507.16)">
		</image>
		<g>
			<polygon class="st6" points="278.8,522.4 279.9,529.3 274.8,533.8 281.4,535.2 284.3,541.5 287.6,535.6 294.3,534.6 289.7,529.7 
				291.1,523.1 284.8,525.9 			"/>
		</g>
	</g>
	<g>
		
			<image style="overflow:visible;opacity:0.72;" width="233" height="230" xlink:href="C980160A.png"  transform="matrix(0.24 0 0 0.24 215.58 521.32)">
		</image>
		<g>
			<polygon class="st6" points="230.6,544.8 236.9,551.5 234.8,560.1 242.9,556.8 250.7,561.4 249.9,552.6 256.4,546.6 247.9,544.6 
				244.5,536.4 239.7,544.1 			"/>
		</g>
	</g>
	<g>
		
			<image style="overflow:visible;opacity:0.72;" width="253" height="248" xlink:href="C9801675.png"  transform="matrix(0.24 0 0 0.24 85.74 475.72)">
		</image>
		<g>
			<polygon class="st6" points="125.6,490.8 116.2,496.3 106.8,491.4 108.5,501.7 100.9,509.5 111.3,510.9 116.4,520.1 121.1,510.8 
				131.5,509.2 123.9,501.5 			"/>
		</g>
	</g>
	<g>
		
			<image style="overflow:visible;opacity:0.72;" width="274" height="274" xlink:href="C9801676.png"  transform="matrix(0.24 0 0 0.24 709.02 384.04)">
		</image>
		<g>
			<polygon class="st6" points="740.4,434.7 747.2,423.8 759.7,423.5 752.2,413.8 755.7,401.4 744.1,405.7 733.6,399 734,411.3 
				724.1,418.9 736.3,422.6 			"/>
		</g>
	</g>
	<g>
		
			<image style="overflow:visible;opacity:0.72;" width="388" height="379" xlink:href="C9801674.png"  transform="matrix(0.24 0 0 0.24 621.18 348.28)">
		</image>
		<g>
			<polygon class="st6" points="649,424.1 668.2,412.5 687.8,422.1 684,401 699.2,384.6 677.8,382 666.8,363.3 657.7,382.7 
				636.3,386.5 652.2,402 			"/>
		</g>
	</g>
	<g>
		
			<image style="overflow:visible;opacity:0.72;" width="317" height="320" xlink:href="C980167A.png"  transform="matrix(0.24 0 0 0.24 770.94 352.36)">
		</image>
		<g>
			<polygon class="st6" points="819.4,414 818.7,397.4 831.8,388.1 816.8,383.1 811.5,367.5 802.2,380.5 786.2,381 795.5,393.8 
				790.4,409 806.1,404.2 			"/>
		</g>
	</g>
	<g>
		
			<image style="overflow:visible;opacity:0.72;" width="267" height="270" xlink:href="C980167D.png"  transform="matrix(0.24 0 0 0.24 722.46 249.16)">
		</image>
		<g>
			<polygon class="st6" points="737.5,272.3 744.4,282.5 739.6,293.6 751.1,290.9 760.5,298.8 761.4,287 771.4,280.4 760.5,275.9 
				757.8,264.2 749.7,273.4 			"/>
		</g>
	</g>
	<g>
		
			<image style="overflow:visible;opacity:0.72;" width="373" height="372" xlink:href="C980167E.png"  transform="matrix(0.24 0 0 0.24 754.62 185.32)">
		</image>
		<g>
			<polygon class="st6" points="783.4,200.3 785.8,221.6 769.8,234.8 789.6,239.8 797.8,259.4 808.5,241.8 829.1,239.7 815.9,224.1 
				821,204.1 801.3,211.8 			"/>
		</g>
	</g>
	<g>
		
			<image style="overflow:visible;opacity:0.72;" width="318" height="321" xlink:href="C980167C.png"  transform="matrix(0.24 0 0 0.24 705.42 313.96)">
		</image>
		<g>
			<polygon class="st6" points="720.5,353.6 736.1,359.8 739.2,375.8 750,364.1 766.7,365.7 758.5,351.8 764.8,336.8 749.1,340.1 
				737.2,329.1 735.1,345.5 			"/>
		</g>
	</g>
	<g>
		
			<image style="overflow:visible;opacity:0.72;" width="227" height="227" xlink:href="C9801611.png"  transform="matrix(0.24 0 0 0.24 817.02 329.56)">
		</image>
		<g>
			<polygon class="st6" points="843.2,368.8 847.8,361.4 856.3,361.3 851.2,354.7 853.6,346.3 845.7,349.2 838.6,344.7 838.9,353 
				832.2,358.1 840.4,360.7 			"/>
		</g>
	</g>
	<g>
		
			<image style="overflow:visible;opacity:0.72;" width="254" height="257" xlink:href="C980161F.png"  transform="matrix(0.24 0 0 0.24 853.74 310.6)">
		</image>
		<g>
			<polygon class="st6" points="891.3,357.2 890.8,345.9 899.7,339.6 889.5,336.2 885.9,325.6 879.7,334.4 868.8,334.8 875.1,343.4 
				871.7,353.7 882.3,350.5 			"/>
		</g>
	</g>
	<g>
		
			<image style="overflow:visible;opacity:0.72;" width="217" height="219" xlink:href="C9801610.png"  transform="matrix(0.24 0 0 0.24 819.9 244.36)">
		</image>
		<g>
			<polygon class="st6" points="835.1,264.7 839.5,271.3 836.4,278.4 843.8,276.7 849.9,281.8 850.5,274.1 856.9,269.9 849.9,267 
				848.2,259.5 842.9,265.4 			"/>
		</g>
	</g>
	<g>
		
			<image style="overflow:visible;opacity:0.72;" width="245" height="247" xlink:href="C9801613.png"  transform="matrix(0.24 0 0 0.24 781.02 280.36)">
		</image>
		<g>
			<polygon class="st6" points="796,310.7 805.7,314.6 807.7,324.6 814.4,317.2 824.7,318.3 819.7,309.6 823.5,300.3 813.8,302.3 
				806.4,295.5 805.1,305.7 			"/>
		</g>
	</g>
	<g>
		
			<image style="overflow:visible;opacity:0.72;" width="267" height="271" xlink:href="C9801617.png"  transform="matrix(0.24 0 0 0.24 627.66 289.72)">
		</image>
		<g>
			<polygon class="st6" points="662,304.9 654.8,315 642.8,314.5 649.4,324.3 645.4,335.9 656.8,332.5 666.4,339.6 666.8,327.7 
				676.7,321.1 665.3,316.8 			"/>
		</g>
	</g>
	<g>
		
			<image style="overflow:visible;opacity:0.72;" width="278" height="269" xlink:href="C9801612.png"  transform="matrix(0.24 0 0 0.24 674.7 535.48)">
		</image>
		<g>
			<polygon class="st6" points="689.8,572 702.6,573.6 708,584.8 713.7,574 726.4,571.9 717.6,563.2 719.3,550.9 708.3,556.4 
				697.3,550.6 699,563.2 			"/>
		</g>
	</g>
	<g>
		
			<image style="overflow:visible;opacity:0.72;" width="387" height="383" xlink:href="C980160C.png"  transform="matrix(0.24 0 0 0.24 645.9 442.12)">
		</image>
		<g>
			<polygon class="st6" points="661.1,484.5 679.6,497.2 679.2,519 696.7,506.7 717.9,513.6 711.3,493.1 723.7,475.2 702.3,475 
				689.9,457.2 682.5,478.2 			"/>
		</g>
	</g>
	<g>
		
			<image style="overflow:visible;opacity:0.72;" width="319" height="311" xlink:href="C980160F.png"  transform="matrix(0.24 0 0 0.24 719.1 575.8)">
		</image>
		<g>
			<polygon class="st6" points="741.7,635 756.5,627.4 770.5,635.4 768.6,619.7 780.7,608.3 765,605.3 757.8,591 750.1,604.8 
				734.1,606.6 745.1,618.8 			"/>
		</g>
	</g>
	<g>
		
			<image style="overflow:visible;opacity:0.72;" width="269" height="268" xlink:href="C980160B.png"  transform="matrix(0.24 0 0 0.24 802.38 486.04)">
		</image>
		<g>
			<polygon class="st6" points="836,501.1 829.5,511.7 817.5,512 824.8,521.3 821.6,533.2 832.7,529 842.8,535.3 842.3,523.6 
				851.8,516.2 840.1,512.7 			"/>
		</g>
	</g>
	<g>
		
			<image style="overflow:visible;opacity:0.72;" width="376" height="367" xlink:href="C9801630.png"  transform="matrix(0.24 0 0 0.24 857.82 497.56)">
		</image>
		<g>
			<polygon class="st6" points="920.5,512.6 902.3,523.7 883.6,514.8 887.4,534.8 873,550.5 893.4,552.8 904,570.6 912.6,552.1 
				932.9,548.3 917.7,533.7 			"/>
		</g>
	</g>
	<g>
		
			<image style="overflow:visible;opacity:0.72;" width="319" height="322" xlink:href="C980162C.png"  transform="matrix(0.24 0 0 0.24 727.5 504.76)">
		</image>
		<g>
			<polygon class="st6" points="755.1,519.9 755.9,536.7 742.7,546.2 758,551.1 763.4,566.9 772.7,553.6 788.9,553 779.3,540.2 
				784.3,524.7 768.5,529.8 			"/>
		</g>
	</g>
	<g>
		
			<image style="overflow:visible;opacity:0.72;" width="229" height="223" xlink:href="C980162E.png"  transform="matrix(0.24 0 0 0.24 777.66 607.96)">
		</image>
		<g>
			<polygon class="st6" points="792.7,637.7 801.4,638.7 805.1,646.3 808.9,639 817.5,637.6 811.6,631.7 812.7,623.4 805.3,627.1 
				797.8,623.2 799,631.7 			"/>
		</g>
	</g>
	<g>
		
			<image style="overflow:visible;opacity:0.72;" width="257" height="251" xlink:href="C9801629.png"  transform="matrix(0.24 0 0 0.24 803.34 631.48)">
		</image>
		<g>
			<polygon class="st6" points="823.5,676.4 833.5,671.2 843,676.6 841.8,666 849.9,658.3 839.3,656.3 834.4,646.6 829.2,656 
				818.4,657.2 825.8,665.4 			"/>
		</g>
	</g>
	<g>
		
			<image style="overflow:visible;opacity:0.72;" width="218" height="217" xlink:href="C9801626.png"  transform="matrix(0.24 0 0 0.24 856.86 571.48)">
		</image>
		<g>
			<polygon class="st6" points="883.9,586.5 879.7,593.3 872,593.5 876.7,599.5 874.6,607.2 881.7,604.5 888.3,608.5 888,601 
				894,596.2 886.5,594 			"/>
		</g>
	</g>
	<g>
		
			<image style="overflow:visible;opacity:0.72;" width="246" height="247" xlink:href="C98016D4.png"  transform="matrix(0.24 0 0 0.24 802.86 555.4)">
		</image>
		<g>
			<polygon class="st6" points="825.7,570.4 826.2,580.9 818,586.8 827.5,589.8 830.8,599.6 836.6,591.4 846.7,591 840.7,583 
				843.8,573.4 834,576.6 			"/>
		</g>
	</g>
	<g>
		
			<image style="overflow:visible;opacity:0.72;" width="272" height="266" xlink:href="C98016D7.png"  transform="matrix(0.24 0 0 0.24 724.38 417.88)">
		</image>
		<g>
			<polygon class="st6" points="774.6,446.4 762.5,444.1 757.9,433 751.8,443.1 739.5,444.3 747.4,453.2 745.1,464.9 756,460.3 
				766.2,466.5 765.3,454.3 			"/>
		</g>
	</g>
	<g>
		
			<image style="overflow:visible;opacity:0.72;" width="252" height="250" xlink:href="C98016D5.png"  transform="matrix(0.24 0 0 0.24 833.1 383.32)">
		</image>
		<g>
			<polygon class="st6" points="854.3,398.5 856,409.3 848.1,416.3 858.3,418.4 862.9,428.2 868,419 878.4,417.5 871.3,409.9 
				873.5,399.6 863.6,403.9 			"/>
		</g>
	</g>
	<g>
		
			<image style="overflow:visible;opacity:0.72;" width="299" height="293" xlink:href="C98016DB.png"  transform="matrix(0.24 0 0 0.24 795.66 428.68)">
		</image>
		<g>
			<polygon class="st6" points="810.8,457.2 820.9,468 817.5,481.9 830.5,476.5 843.2,483.9 841.8,469.8 852.3,460.1 838.6,457 
				833.1,443.8 825.4,456.2 			"/>
		</g>
	</g>
	<g>
		
			<image style="overflow:visible;opacity:0.72;" width="208" height="205" xlink:href="C98016DC.png"  transform="matrix(0.24 0 0 0.24 915.9 413.32)">
		</image>
		<g>
			<polygon class="st6" points="935.1,428.3 936.2,435.3 931.1,439.8 937.7,441.2 940.6,447.5 943.9,441.6 950.6,440.6 946,435.7 
				947.4,429 941.1,431.8 			"/>
		</g>
	</g>
	<g>
		
			<image style="overflow:visible;opacity:0.72;" width="234" height="230" xlink:href="C98016DF.png"  transform="matrix(0.24 0 0 0.24 871.74 427.24)">
		</image>
		<g>
			<polygon class="st6" points="886.9,450.8 893.2,457.5 891.1,466.1 899.2,462.8 907,467.4 906.2,458.6 912.7,452.6 904.2,450.6 
				900.8,442.4 896,450.1 			"/>
		</g>
	</g>
	<g>
		
			<image style="overflow:visible;opacity:0.72;" width="252" height="250" xlink:href="C98016FB.png"  transform="matrix(0.24 0 0 0.24 470.94 324.52)">
		</image>
		<g>
			<polygon class="st6" points="492.1,339.7 493.8,350.5 486,357.6 496.2,359.6 500.8,369.4 505.8,360.3 516.2,358.7 509.2,351.1 
				511.3,340.8 501.5,345.2 			"/>
		</g>
	</g>
	<g>
		
			<image style="overflow:visible;opacity:0.72;" width="299" height="293" xlink:href="C98016F9.png"  transform="matrix(0.24 0 0 0.24 433.5 369.88)">
		</image>
		<g>
			<polygon class="st6" points="448.7,398.5 458.8,409.2 455.4,423.1 468.4,417.7 481,425.2 479.7,411 490.2,401.4 476.5,398.2 
				471,385 463.3,397.4 			"/>
		</g>
	</g>
	<g>
		
			<image style="overflow:visible;opacity:0.72;" width="208" height="205" xlink:href="C98016FF.png"  transform="matrix(0.24 0 0 0.24 553.74 354.52)">
		</image>
		<g>
			<polygon class="st6" points="572.9,369.6 574,376.5 569,381.1 575.5,382.4 578.5,388.7 581.7,382.8 588.4,381.8 583.9,376.9 
				585.3,370.3 579,373.1 			"/>
		</g>
	</g>
	<g>
		
			<image style="overflow:visible;opacity:0.72;" width="234" height="230" xlink:href="C98016FA.png"  transform="matrix(0.24 0 0 0.24 509.58 368.44)">
		</image>
		<g>
			<polygon class="st6" points="524.8,392 531.1,398.7 529,407.4 537,404 544.9,408.6 544.1,399.8 550.6,393.8 542.1,391.9 
				538.7,383.7 533.9,391.4 			"/>
		</g>
	</g>
	<g>
		
			<image style="overflow:visible;opacity:0.72;" width="250" height="252" xlink:href="C98016C5.png"  transform="matrix(0.24 0 0 0.24 600.3 472.36)">
		</image>
		<g>
			<polygon class="st6" points="645.2,501.9 635.1,497.8 633.1,487.4 626.1,495 615.3,494 620.6,503 616.5,512.7 626.7,510.6 
				634.4,517.8 635.8,507.1 			"/>
		</g>
	</g>
	<g>
		
			<image style="overflow:visible;opacity:0.72;" width="291" height="297" xlink:href="C98016C6.png"  transform="matrix(0.24 0 0 0.24 562.62 412.36)">
		</image>
		<g>
			<polygon class="st6" points="617.3,434.3 602.9,437.5 592.7,427.4 590.7,441.3 577.8,448.3 590.5,454.4 593.4,468.4 603.2,458.3 
				617.3,460.4 610.7,447.4 			"/>
		</g>
	</g>
	<g>
		
			<image style="overflow:visible;opacity:0.72;" width="206" height="208" xlink:href="C98016C7.png"  transform="matrix(0.24 0 0 0.24 543.66 531.16)">
		</image>
		<g>
			<polygon class="st6" points="578,555.7 571.5,553.1 570.2,546.4 565.7,551.3 558.7,550.6 562.1,556.4 559.5,562.7 566.1,561.3 
				571,565.9 571.9,559.1 			"/>
		</g>
	</g>
	<g>
		
			<image style="overflow:visible;opacity:0.72;" width="228" height="232" xlink:href="C98016C9.png"  transform="matrix(0.24 0 0 0.24 543.9 483.4)">
		</image>
		<g>
			<polygon class="st6" points="583.6,502.9 574.6,504.8 568.3,498.5 567,507.2 559,511.6 567,515.4 568.7,524.1 574.8,517.8 
				583.6,519.1 579.5,511 			"/>
		</g>
	</g>
	<g>
		
			<image style="overflow:visible;opacity:0.72;" width="248" height="255" xlink:href="C98016CB.png"  transform="matrix(0.24 0 0 0.24 209.82 383.32)">
		</image>
		<g>
			<polygon class="st6" points="244.1,429.4 244.9,418.5 254.1,413.4 244.7,409.1 242.4,398.5 235.4,406.3 224.9,405.4 230.1,414.4 
				225.7,424 236.2,422 			"/>
		</g>
	</g>
	<g>
		
			<image style="overflow:visible;opacity:0.72;" width="292" height="298" xlink:href="C98016CE.png"  transform="matrix(0.24 0 0 0.24 244.86 333.64)">
		</image>
		<g>
			<polygon class="st6" points="299.8,382 292.3,369.2 298.8,356.5 284.9,358.8 274.3,348.7 272.4,362.7 260,369.8 272.6,376 
				275,390 285.3,379.7 			"/>
		</g>
	</g>
	<g>
		
			<image style="overflow:visible;opacity:0.72;" width="204" height="209" xlink:href="1F831AC9.png"  transform="matrix(0.24 0 0 0.24 144.78 347.08)">
		</image>
		<g>
			<polygon class="st6" points="172.2,382 172.7,375 178.6,371.7 172.6,368.9 171.1,362.1 166.6,367.1 159.8,366.6 163.2,372.4 
				160.3,378.6 167.1,377.3 			"/>
		</g>
	</g>
	<g>
		
			<image style="overflow:visible;opacity:0.72;" width="229" height="233" xlink:href="1F831ACB.png"  transform="matrix(0.24 0 0 0.24 184.38 335.32)">
		</image>
		<g>
			<polygon class="st6" points="224.2,371.1 219.5,363.1 223.6,355.2 214.9,356.6 208.3,350.3 207.1,359.1 199.4,363.5 207.3,367.3 
				208.7,376.1 215.2,369.6 			"/>
		</g>
	</g>
	<g>
		
			<image style="overflow:visible;opacity:0.72;" width="239" height="243" xlink:href="1F831AC8.png"  transform="matrix(0.24 0 0 0.24 241.26 640.84)">
		</image>
		<g>
			<polygon class="st6" points="256.7,679.5 266.5,677.2 273.6,683.9 274.8,674.4 283.6,669.4 274.7,665.4 272.6,655.9 266,662.9 
				256.3,661.7 261,670.5 			"/>
		</g>
	</g>
	<g>
		
			<image style="overflow:visible;opacity:0.72;" width="202" height="205" xlink:href="1F831AD7.png"  transform="matrix(0.24 0 0 0.24 283.74 684.76)">
		</image>
		<g>
			<polygon class="st6" points="299,715.8 305.7,714.2 310.5,718.8 311.3,712.3 317.2,709 311.2,706.3 309.8,699.8 305.3,704.6 
				298.8,703.8 302,709.7 			"/>
		</g>
	</g>
	<g>
		
			<image style="overflow:visible;opacity:0.72;" width="217" height="215" xlink:href="1F831AD9.png"  transform="matrix(0.24 0 0 0.24 218.46 739)">
		</image>
		<g>
			<polygon class="st6" points="233.6,763.3 240,767.8 239.6,775.4 245.8,771.3 253.2,773.9 251,766.7 255.5,760.6 248.1,760.3 
				243.9,754 241.1,761.2 			"/>
		</g>
	</g>
	<g>
		
			<image style="overflow:visible;opacity:0.72;" width="278" height="285" xlink:href="1F831ADB.png"  transform="matrix(0.24 0 0 0.24 228.3 686.92)">
		</image>
		<g>
			<polygon class="st6" points="243.8,708.2 250.1,720.4 243.4,731.9 256.4,730.4 265.7,740.3 268.1,727.4 280,721.6 268.6,715.2 
				267.2,702.1 257.1,711.1 			"/>
		</g>
	</g>
	<g>
		
			<image style="overflow:visible;opacity:0.72;" width="245" height="240" xlink:href="1F831AD8.png"  transform="matrix(0.24 0 0 0.24 254.22 739.48)">
		</image>
		<g>
			<polygon class="st6" points="283.7,754.5 279.2,763.7 269.4,764.9 276.1,772 274.4,782 283.2,777.7 292,782.1 290.7,772.4 
				297.8,765.7 287.9,763.7 			"/>
		</g>
	</g>
	<g>
		
			<image style="overflow:visible;opacity:0.72;" width="277" height="277" xlink:href="1F831ADF.png"  transform="matrix(0.24 0 0 0.24 158.7 629.08)">
		</image>
		<g>
			<polygon class="st6" points="190.2,644.2 186.1,656.6 173.9,659.8 183.6,667.6 183.2,680.5 193.5,673.6 205.4,677.6 202.1,665.7 
				210,655.9 197.2,655.1 			"/>
		</g>
	</g>
	<g>
		
			<image style="overflow:visible;opacity:0.72;" width="205" height="204" xlink:href="1F831ADA.png"  transform="matrix(0.24 0 0 0.24 184.86 724.36)">
		</image>
		<g>
			<polygon class="st6" points="209.9,758.3 212.5,752 219,750.8 214.2,746.3 215,739.6 209.3,742.8 203.2,740.2 204.5,746.6 
				200,751.5 206.6,752.3 			"/>
		</g>
	</g>
	<g>
		
			<image style="overflow:visible;opacity:0.72;" width="227" height="227" xlink:href="1F831AC6.png"  transform="matrix(0.24 0 0 0.24 396.3 803.8)">
		</image>
		<g>
			<polygon class="st6" points="422.5,843.1 427.1,835.7 435.6,835.6 430.5,829 432.8,820.6 425,823.5 417.9,819 418.2,827.3 
				411.5,832.4 419.7,834.9 			"/>
		</g>
	</g>
	<g>
		
			<image style="overflow:visible;opacity:0.72;" width="254" height="257" xlink:href="1F831ABC.png"  transform="matrix(0.24 0 0 0.24 433.02 784.84)">
		</image>
		<g>
			<polygon class="st6" points="470.5,831.4 470.1,820.2 479,813.9 468.8,810.5 465.2,799.9 459,808.7 448.1,809 454.4,817.7 
				451,828 461.6,824.7 			"/>
		</g>
	</g>
	<g>
		
			<image style="overflow:visible;opacity:0.72;" width="245" height="247" xlink:href="1F831AA3.png"  transform="matrix(0.24 0 0 0.24 360.3 754.6)">
		</image>
		<g>
			<polygon class="st6" points="375.3,785 385,788.9 386.9,798.8 393.6,791.5 404,792.6 398.9,783.9 402.8,774.6 393.1,776.6 
				385.7,769.8 384.4,780 			"/>
		</g>
	</g>
	<g>
		
			<image style="overflow:visible;opacity:0.72;" width="252" height="250" xlink:href="1F831AA4.png"  transform="matrix(0.24 0 0 0.24 412.38 857.56)">
		</image>
		<g>
			<polygon class="st6" points="433.5,872.8 435.2,883.5 427.4,890.6 437.6,892.7 442.2,902.5 447.2,893.3 457.6,891.8 450.6,884.2 
				452.7,873.9 442.9,878.2 			"/>
		</g>
	</g>
	<g>
		
			<image style="overflow:visible;opacity:0.72;" width="229" height="225" xlink:href="1F831AA7.png"  transform="matrix(0.24 0 0 0.24 716.7 709)">
		</image>
		<g>
			<polygon class="st6" points="731.8,738.3 740.3,740 743.5,747.8 747.8,740.7 756.5,740 751,733.7 752.7,725.4 745,728.6 
				737.8,724.2 738.4,732.8 			"/>
		</g>
	</g>
	<g>
		
			<image style="overflow:visible;opacity:0.72;" width="256" height="254" xlink:href="1F831AA5.png"  transform="matrix(0.24 0 0 0.24 740.94 734.92)">
		</image>
		<g>
			<polygon class="st6" points="759.8,779 770.1,774.6 779.2,780.7 778.7,770 787.3,762.8 776.9,760.1 772.7,750.1 766.9,759.1 
				756,759.5 762.8,768.3 			"/>
		</g>
	</g>
	<g>
		
			<image style="overflow:visible;opacity:0.72;" width="244" height="249" xlink:href="1F831AA2.png"  transform="matrix(0.24 0 0 0.24 745.26 658.36)">
		</image>
		<g>
			<polygon class="st6" points="769.3,673.5 769.1,683.9 760.5,689.3 769.7,693 772.4,703 778.7,695.2 788.8,695.5 783.4,687.1 
				787.2,677.8 777.2,680.2 			"/>
		</g>
	</g>
	<g>
		
			<image style="overflow:visible;opacity:0.72;" width="253" height="248" xlink:href="1F831AAC.png"  transform="matrix(0.24 0 0 0.24 668.22 744.04)">
		</image>
		<g>
			<polygon class="st6" points="708,759.2 698.5,764.6 689.1,759.8 690.8,770 683.3,777.8 693.6,779.3 698.8,788.5 703.4,779.2 
				713.8,777.5 706.2,769.8 			"/>
		</g>
	</g>
	<g>
		<path class="st2" d="M234.4,431.7c-13.3-8.1-26.6-16.3-40-24.4l-15.2,4.5l23.6,31.3C213.4,439.3,223.9,435.5,234.4,431.7z"/>
		<path class="st3" d="M186.2,409.8l23,31.1c-2.1,0.8-4.2,1.5-6.3,2.3l-23.6-31.3L186.2,409.8z"/>
		<path class="st2" d="M432.6,334l-159.8-19.6c0,0-42.7,8.3-17.5,21.7c25.2,13.5,89,43.8,89,43.8l90.8-41.3L432.6,334z"/>
		<path class="st2" d="M507.4,424.7"/>
		<path class="st3" d="M351.4,376.7l-103.2-51.6c-2,3.1-0.8,6.8,7.1,11c25.2,13.5,89,43.8,89,43.8L351.4,376.7z"/>
		<path class="st1" d="M473.6,316.6c-95,44.4-190,88.9-285,133.3c-1,2.5-3.3,8.8-0.3,13.3c0.9,1.3,2.5,2.8,5.4,3.7
			c12.7,4,81.5-3.3,81.5-3.3s20.9-2.5,76.3-23.5c25.5-12.4,51-24.7,76.5-37.1l124.4-56.5c0,0,26-31.5-30.7-38.5
			c-5.2-1-12.7-1.9-21.7-0.7C487.9,308.9,478.8,313.5,473.6,316.6z"/>
		<path class="st7" d="M521.7,308c-1-0.3-2-0.5-3.1-0.7c-2.4-0.4-4.7-0.6-6.6-0.6c2.3,5,6.3,11.7,13.4,17.4
			c5.3,4.2,12.6,12.1,19.8,8.1c5.1-2.8,9.1-5.3,12-7.3C554.1,317.7,544.7,310.8,521.7,308z"/>
		<path class="st3" d="M552.4,346.5c0.8-1.1,1.7-2.3,2.5-3.7c2.5-4.5,3.3-8.8,3.5-11.8c-107.2,45.3-214.5,90.6-321.7,136
			c19.7-1.3,38.5-3.3,38.5-3.3s20.9-2.5,76.3-23.5c25.5-12.4,51-24.7,76.5-37.1L552.4,346.5z"/>
		<path class="st2" d="M241.7,454.7c-7.3,13.8-14.6,27.6-21.9,41.4l-15.4,3.9l4.3-39C219.7,458.9,230.7,456.8,241.7,454.7z"/>
		<path class="st5" d="M522.2,321.3c1,0.9,2,1.9,3.1,2.8c1.2,1,2.5,2.1,3.9,3.3l5.8-16.9c-2.3-0.6-4.8-1.1-7.5-1.6L522.2,321.3z"/>
		<path class="st5" d="M536,332c0.8,0.4,1.7,0.7,2.5,0.9l6.2-19.2c-0.7-0.3-1.4-0.6-2.2-0.9L536,332z"/>
		<g>
			<path class="st2" d="M361.5,414c27.4-11.6,54.8-23.2,82.2-34.7c-24.7,37.4-49.4,74.7-74.2,112.1c0,0-27.8,28.9-33.9,10.9
				C344.3,472.8,352.9,443.4,361.5,414z"/>
			<path class="st3" d="M363.8,413c-0.7,0.4-1.4,0.8-2.1,1.2c-8.7,29.3-17.3,58.7-26,88c1.2,3.5,3.2,5.2,5.7,5.7
				C348.9,476.3,356.3,444.7,363.8,413z"/>
		</g>
		<path class="st3" d="M211.5,498.2l3.9-38.4c-2.2,0.4-4.4,0.8-6.6,1.3l-4.3,39L211.5,498.2z"/>
		<circle class="st3" cx="343" cy="395.6" r="8.5"/>
		<circle class="st3" cx="375.3" cy="382.7" r="8.5"/>
		<circle class="st3" cx="405.4" cy="370.6" r="8.5"/>
		<circle class="st3" cx="432.4" cy="359.8" r="8.5"/>
		<circle class="st3" cx="462.5" cy="347.8" r="8.5"/>
	</g>
	<g>
		
			<image style="overflow:visible;opacity:0.72;" width="784" height="713" xlink:href="1F831AAF.png"  transform="matrix(0.24 0 0 0.24 479.34 91.96)">
		</image>
		<g>
			<g>
				<path class="st2" d="M575.5,212.3c0,0-16.4,38.3,31.9,35.4c4.1-0.1-5.7-6.8-5.7-6.8s-16.1-7.2-4.6-25.1S575.5,212.3,575.5,212.3
					z"/>
				<path class="st8" d="M587.9,234.9c-1.1-1.1-2.2-2.3-2.7-3.8c-0.4-1.3-0.3-2.7-0.5-4.1c-0.5-3.4-3-6.1-4.1-9.4
					c-0.9-2.6-0.8-5.2,0.1-7.5c8.8-3.2,24.9-7.8,16.3,5.5c-11.5,18,4.6,25.1,4.6,25.1s9.3,6.3,6,6.8
					C600.3,244.8,593.5,240.4,587.9,234.9z"/>
				<path class="st4" d="M615.5,222l12.1-14.4c2.5-3,2.1-7.5-0.9-10l-4.9-4.1c-3-2.5-7.5-2.1-10,0.9l-12.1,14.4
					c-2.5,3-2.1,7.5,0.9,10l4.9,4.1C608.5,225.4,613,225,615.5,222z"/>
				<path class="st7" d="M494.5,107.5c0,0-1.4,93.6,104.9,113l24.8-29.5C624.2,191,593.2,99.8,494.5,107.5z"/>
				<circle class="st5" cx="558.3" cy="160.4" r="22.4"/>
				<path class="st4" d="M543.9,177.5c-0.1-0.1-0.3-0.3-0.4-0.4c-6.6-8.2-6.7-20.1,0.3-28.4c7.9-9.5,22.1-10.7,31.5-2.8
					c0.1,0.1,0.3,0.3,0.4,0.4c6.6,8.2,6.7,20.1-0.3,28.4C567.5,184.2,553.4,185.4,543.9,177.5z"/>
				<path class="st2" d="M494.5,107.5c19.4-1.5,36.1,0.8,50.5,5.4c-6.6,4.1-14.3,10-21.6,18.5c-7.9,9.1-12.8,18.3-16,26
					C494.1,131.3,494.5,107.5,494.5,107.5z"/>
				<circle class="st2" cx="557.7" cy="160.6" r="14.8"/>
				<path class="st7" d="M551.4,152.9c3.5-4.2,8.8-5.9,13.9-5.1c0.7,0.4,1.3,0.9,2,1.4c6.3,5.3,7.1,14.6,1.8,20.9
					c-3.5,4.2-8.8,5.9-13.9,5.1c-0.7-0.4-1.3-0.9-2-1.4C546.9,168.6,546.1,159.2,551.4,152.9z"/>
				<path class="st5" d="M568.3,150.2c1.9,1.9,3.2,4.3,3.8,6.8l-24.2,5.1c0.1-2.8,0.9-5.6,2.6-8.1L568.3,150.2z"/>
				<path class="st5" d="M572.5,160.6c0,1.4-0.2,2.8-0.6,4.2L550,170c-0.7-1.2-1.3-2.6-1.6-3.9L572.5,160.6z"/>
				<path class="st8" d="M624.2,191l-20.7,24.7c5.4-75.9-77.7-101.8-105.7-108.3C593.9,101.8,624.2,191,624.2,191z"/>
				<path class="st8" d="M535.3,119.8c-15-6.6-28.9-10.5-37.6-12.5c18-1,33.6,1.3,47.2,5.6C542,114.8,538.7,117.1,535.3,119.8z"/>
				<path class="st2" d="M612.1,168.8c0,0,34.9-22.8,40.4,25.2c0.6,4-7.7-4.5-7.7-4.5s-9.9-14.6-25.6-0.1
					C603.5,203.9,612.1,168.8,612.1,168.8z"/>
				
					<ellipse transform="matrix(0.643 -0.7659 0.7659 0.643 60.1267 544.4921)" class="st2" cx="614.1" cy="207.8" rx="5.6" ry="23.3"/>
				<path class="st8" d="M607.8,181c0-0.1-0.2-0.7-0.3-1.5c-0.1-1-0.1-1.8-0.1-2.4c1.1-1,3-2.8,4-5.7c0.3-0.9,0.5-1.8,0.6-2.5
					c0,0,1.9-1.3,4.9-2.5c1,1.3,2,2.9,2.9,3.7c2.2,1.9,4.4,3.8,7,4.8c1.7,0.6,3.4,0.9,5.1,1.3c4.4,1.2,8.3,4,11.4,7.4
					c3,3.3,5.3,7.2,7.3,11.2c-2.3-1.3-6-5.1-6-5.1c-0.5-0.8-4-5.6-10.4-6.4c-0.4-0.1-7.6-0.9-12.7,4.4c-2,2.1-2.9,4.3-3.4,5.7
					c-5.2,2.6-7.3,2.3-8.3,1.4C607.4,192.5,608.6,184.2,607.8,181z"/>
				<path class="st5" d="M604.9,201.4c-0.3-0.1-0.7,0-1,0.2c-0.4,0.3-0.5,0.9-0.3,1.3c0.2,0.5,0.5,0.8,0.9,1.2
					c2.3,2.3,4.6,4.7,7,6.9c1.1,1,2.2,2,3.5,2.7c0.4,0.2,0.8,0.4,1.2,0.2c0.5-0.3,0.4-1.1-0.1-1.4c-0.4-0.4-1-0.5-1.6-0.6
					c-2-0.5-3.7-1.9-4.9-3.5c-1-1.3-2-2.8-2.6-4.4C606.6,202.8,606.5,201.7,604.9,201.4z"/>
				<ellipse transform="matrix(0.643 -0.7659 0.7659 0.643 58.7008 549.4452)" class="st5" cx="618.7" cy="211.8" rx="0.9" ry="1"/>
				<path class="st5" d="M608,222.3c1.7,0.7,3.7,0.8,5.3-0.2c0.7-0.5,1.3-1.2,1.8-1.9c0.1-0.2,0.2-0.4,0.3-0.6
					c0-0.5-0.6-0.9-1.1-0.8c-2.1,0.3-3.4,2.4-5.8,1.6c-1.7-0.5-2.7-2.5-4.7-1.7C604.4,220.1,606.4,221.6,608,222.3z"/>
			</g>
		</g>
	</g>
	<g>
		<path class="st7" d="M673.9,686.6l-88.3-57.8c-7.1-4.7-9.2-14.4-4.5-21.5l40.8-62.3c4.7-7.1,14.4-9.2,21.5-4.5l88.3,57.8
			c7.1,4.7,9.2,14.4,4.5,21.5l-40.8,62.3C690.7,689.2,681.1,691.2,673.9,686.6z"/>
		<path class="st5" d="M673.9,686.6l-88.3-57.8c-7.1-4.7-9.2-14.4-4.5-21.5l40.8-62.3c4.7-7.1,14.4-9.2,21.5-4.5l88.3,57.8
			c7.1,4.7,9.2,14.4,4.5,21.5l-40.8,62.3C690.7,689.2,681.1,691.2,673.9,686.6z"/>
		<path class="st7" d="M639.8,538.7c-6.5-2.2-14,0.2-17.9,6.2l-40.8,62.3c-2.7,4.2-3.2,9.3-1.6,13.7l74-6.5L639.8,538.7z"/>
		<path class="st7" d="M683.7,689c4.6-0.4,9-2.8,11.7-7l40.8-62.3c3.8-5.7,3.2-13.1-0.9-18.2l-75,17.8L683.7,689z"/>
		<path class="st2" d="M650,628.6l88.5-19.8c-0.7-4.1-3-8-6.8-10.5l-88.3-57.8c-2.9-1.9-6.2-2.7-9.5-2.5L650,628.6z"/>
	</g>
	<g>
		<path class="st4" d="M384.2,718.9l-8.9-0.6l35.7-36.4l-12.4-6.1l-7.9-4.6l-7.8-9.2l-8.7-15.2l-2.1-10.6c0,0-1.5-4.5-0.2-6.7
			l-9.4,4.3l-11.7,1.2l-12.9-5.2l-12.7-6l-9.7-5.7l-6.5-4.7L286.4,655l-1.6-6.4l5.7-10.5l9.7-19.2l12-20.9l27.2,24.6l20.9,5.3
			c3,0.5,6.8,0.6,11-0.1c1-0.2,2-0.4,2.9-0.6c0.1,0.8,0.3,2,0.8,3.5c1.1,3.4,2.7,5.6,3.6,6.8c2.5,3.3,9.7,12.6,19.7,24.9l21,12.7
			l5.3,1.7L384.2,718.9z"/>
		<path class="st7" d="M291.9,674.1l-6.3-9.6l11-22.6l12.9-22.3l7.3-0.9l14.4,8.1l14.7,5.6l8.9,0.9l7-0.5l2.9-0.6
			c1.2-0.4,2.4-0.8,3.7-1.2c1-0.3,2-0.7,3-1c-0.8,0.9-2.1,2.1-3.8,3.3c-2.3,1.7-4.5,2.9-6.8,3.8c0,0-4.5,2-16.7,4.8l0,0l-10.1-1.1
			l-19.2-8l-6.4,14.7L291.9,674.1z"/>
		<path class="st5" d="M369.8,720.3l-20.3-14.6l-5.6-11.3l-2.1-8.1c-0.6-1.6-1.2-3.9-1.1-6.7c0-1,0.1-2,0.3-2.8
			c-0.9,0.6-2,1.3-3.1,1.9c-1.4,0.8-2.8,1.4-4,1.9c-2.6,1.1-5.2,2.2-7.7,3.3l-9.7-0.4l-10.7-1.2l-10.1-3.3l-3.6-3.5l5.6-12l6.6-11.6
			l5.8-13.2l4.2-4.7l18.4,5.5l13.2,2l10.6-2.3l4.1-1.7c2.1-1.6,3.8-2.5,5.1-3.1c1.1-0.5,2.5-1.1,4.2-2.4c0.7-0.5,1.2-1,1.5-1.3
			c0,0.6,0,1.4,0.2,2.4c0.3,1.5,1,2.4,1.1,2.6c0.8,1.2,1.7,5.5,2.7,16.8l15,20.5l13.5,6.2l-2.1,9.2
			C391.1,698.8,380.5,709.5,369.8,720.3z"/>
		<path class="st8" d="M287.7,668.6l-6.6-5.3l28.2-53.7c8.6,7.4,16.6,12.1,22.3,15c8.4,4.2,15,7.5,24.2,7.7c7,0.2,12.6-1.5,16.2-2.8
			c-5,2.2-13.8,5.5-25.2,5.1c-9.9-0.3-21.8-3.3-34.3-12.4L287.7,668.6z"/>
		<path class="st8" d="M285.1,651.6l-1.8-3.1l29.8-56.9c3.4,5.5,8.7,12.6,16.9,19.1c17.3,13.8,36.2,16,44.2,16.4
			c-5,1.4-11.2,2.5-18.2,2c-25.9-1.6-42-21.8-45.5-26.5L285.1,651.6z"/>
		<path class="st8" d="M386.3,719.9l-4.9-0.8l38-40.4c-5.6-1.6-13.1-4.5-20.5-10.1c-18.8-14.2-23.5-35.1-24.6-41.5
			c2.3,6,6.2,13.8,12.7,21.4c16,18.6,37,23.6,44.9,25L386.3,719.9z"/>
		<path class="st9" d="M368,708.9c-3.8,0.1-7.5-2.5-8.6-6.1"/>
		<path class="st9" d="M356.2,699.2c-4.6-3-8-7.8-9.3-13.1"/>
		<path class="st9" d="M371,706.1c-1.8-1-3.4-2.5-4.4-4.3"/>
		<path class="st9" d="M377,700.4c-1.3-0.6-2.5-1.5-3.6-2.4"/>
		<path class="st9" d="M365.8,698.5c-1.5-1.5-2.8-3.3-3.8-5.2"/>
		<path class="st9" d="M356.8,689.9c-1.8-1.6-3.1-3.9-3.6-6.3"/>
		<path class="st9" d="M372.1,695.5c-3.9-2.1-7.2-5.1-9.7-8.7"/>
		<path class="st9" d="M381.7,695.7c-3.4-1.4-6.4-3.9-8.2-7.1"/>
		<path class="st9" d="M385.6,690.8c-2.7,0.2-5.3-1.5-7-3.6c-1.7-2.2-2.6-4.8-3.5-7.4"/>
		<path class="st9" d="M370.2,687.5c-2.5-1.2-4.5-3.4-5.5-6"/>
		<path class="st9" d="M360.3,684.7c-1.9-1.8-3.6-3.8-5.1-5.9"/>
		<path class="st9" d="M348.8,683.6c-1.7-1.5-2.8-3.5-3.3-5.7"/>
		<path class="st9" d="M388.3,685.8c-3.5-0.3-6.8-2.4-8.6-5.4"/>
		<path class="st9" d="M371.3,680.7c-2.9-1.8-5.2-4.4-6.8-7.4"/>
		<path class="st9" d="M360.3,675.7c-3.3-1.5-5.9-4.3-7.2-7.6"/>
		<path class="st9" d="M379,674c-6.5-0.9-12.2-5.7-14.3-11.8"/>
		<path class="st9" d="M376.2,665.6c-2.2-3.3-4.3-6.7-6.3-10.2"/>
		<path class="st9" d="M390.8,680.6c-3.6-0.8-6.7-3.4-8.2-6.8"/>
		<path class="st9" d="M338.1,675.5c-0.9,1.1-2.5,1.4-3.8,0.9"/>
		<path class="st9" d="M331.8,677.6c-1.3,0.7-2.9,0.7-4.2,0"/>
		<path class="st9" d="M323.2,677.8c-1.7,0.8-3.7,0.8-5.6,0.4c-1.9-0.4-3.6-1.3-5.3-2.2"/>
		<path class="st9" d="M309,676.6c-2.3-0.3-4.6-1.3-6.4-2.8"/>
		<path class="st9" d="M337.1,672.1c-1.7,0.4-3.5,0.1-4.9-0.8"/>
		<path class="st9" d="M330.4,673.8c-1.3,1.1-3.4,1-4.6-0.2"/>
		<path class="st9" d="M322.5,674.2c-2.3,0.3-4.7-0.3-6.5-1.8"/>
		<path class="st9" d="M312.9,672.8c-1.8,0-3.7-0.7-5.1-1.9"/>
		<path class="st9" d="M338,667.1c-5.7,1.9-12,1.8-17.6-0.1"/>
		<path class="st9" d="M315.2,667.3c-2.4,0.1-4.8-0.5-6.9-1.6"/>
		<path class="st9" d="M338,664.2c-1.7,0.5-3.5,0.5-5.2,0.2c-1.7-0.3-3.4-0.9-5-1.5"/>
		<path class="st9" d="M323.4,663.5c-2.8,0-5.5-0.8-7.8-2.3"/>
		<path class="st9" d="M312.5,662.1c-1.5-0.1-3-0.9-4-2.1"/>
		<path class="st9" d="M343.6,657.2c-0.4,0.9-1.2,1.5-2.1,1.9c-0.9,0.3-1.9,0.4-2.8,0.4c-2.3-0.1-4.6-0.7-6.6-1.9"/>
		<path class="st9" d="M328.9,657c-1.2,0.7-2.6,1-4,0.7s-2.6-1.1-3.4-2.3"/>
		<path class="st9" d="M318.5,657c-2,0.6-4.3-0.5-5.2-2.4"/>
		<path class="st9" d="M348.6,651.8c-1.5,0.9-3.4,1.3-5.2,1.2c-1.8,0-3.6-0.4-5.3-0.7"/>
		<path class="st9" d="M349.5,645.9c-6.4,2.6-13.8,2.6-20.1-0.2"/>
		<path class="st9" d="M333.3,652.6c-2,0.7-4.4,0-5.7-1.7"/>
		<path class="st9" d="M324.1,652.1c-2.1,0.4-4.4-0.3-5.9-1.8"/>
		<path class="st9" d="M323.7,646.8c-1.9,0.5-4,0.2-5.8-0.8"/>
		<path class="st9" d="M317.1,652.5c-1.4-0.1-2.8-0.8-3.7-1.8"/>
		<path class="st9" d="M351.9,676.8c-1.5,0.1-3-0.8-3.6-2.1"/>
		<path class="st9" d="M360.7,665.7c-1.3-0.5-2.4-1.7-2.8-3.1"/>
		<path class="st9" d="M365.4,657c-1.2-0.5-2.2-1.6-2.5-2.8"/>
		<path class="st9" d="M369.8,650.5c-1.4-0.4-2.7-1.4-3.3-2.7"/>
		<path class="st9" d="M371.3,644.8c-1.1,0.1-2.2-0.5-2.7-1.4"/>
		<path class="st9" d="M339.3,669.2c1.3,0.2,2.7,0.1,4-0.4"/>
		<path class="st9" d="M340.9,664c1.2,0.5,2.5,0.5,3.7,0.2"/>
		<path class="st2" d="M340.9,676.8c-0.2,0.8-0.3,1.8-0.3,2.8c0,0.7,0,1.3,0.1,2l31.2-47.5c-0.1-0.6-0.1-1.2-0.1-1.8
			c0-1.1,0.1-2,0.2-2.8c-0.8,1.1-1.6,1.9-2.1,2.3c-0.4,0.3-0.8,0.6-1,0.7c-0.7,0.4-1.3,0.8-1.8,1.1l-28.7,44.8
			C339.3,677.8,340.2,677.3,340.9,676.8z"/>
		<path class="st8" d="M337.9,678.5c0,0-17.2,18.3-51.7,0l26.2-50.9c3.9,2.8,10.1,6.6,18.5,9.1c4.1,1.2,10,2.9,17.6,2.3
			c10.4-0.7,18.2-5.2,22.4-8.2c-3.3,3.2-8,7.1-14.5,9.9c-18.7,8.1-36.8,1.1-41.2-0.8L296.5,676C296.5,676,320.1,686.6,337.9,678.5z"
			/>
		<path class="st8" d="M340.7,679.8c0,0,4.9,28.4,27.5,35.2l29.7-32.6c-4.5-2.7-11.7-7.8-17.5-16.6c-10.1-15.4-9-31.3-8.4-36.4
			c0.7,5.6,2.4,12.9,6.4,20.6c10.7,20.6,30.2,28.6,36.4,30.9l-43.9,45.7C370.9,726.7,339.6,713.2,340.7,679.8z"/>
	</g>
	<g>
		<polygon class="st8" points="722.5,403.4 723.1,462 739.6,443.3 755,459.6 757.1,401.6 		"/>
		<polygon class="st8" points="790.5,364.3 841.6,393 817.3,398.5 824.2,419.8 772.3,393.7 		"/>
		<circle class="st2" cx="737.9" cy="355.1" r="55.4"/>
		<circle class="st4" cx="737.9" cy="355.1" r="40"/>
		<path class="st5" d="M724.2,333.3c-1.4,0.9-9.8,6.4-12,17.5c-2,10.2,2.8,17.9,3.8,19.5c0.4,0.9,0.4,1.9-0.2,2.4
			c-0.7,0.8-2.4,0.7-3.3-0.5c-1-1.5-7.4-11.4-4.2-24.2c3.1-12.5,13-18.2,14.7-19.1c1.5-0.5,2.9,0,3.4,0.8
			C726.9,330.8,726.2,332.7,724.2,333.3z"/>
	</g>
</g>
<g>
</g>
<g>
</g>
<g>
</g>
<g>
</g>
<g>
</g>
<g>
</g>
</svg>
