<?xml version="1.0" encoding="utf-8"?>
<!-- Generator: Adobe Illustrator 25.4.1, SVG Export Plug-In . SVG Version: 6.00 Build 0)  -->
<svg version="1.1" id="Слой_1" xmlns="http://www.w3.org/2000/svg" xmlns:xlink="http://www.w3.org/1999/xlink" x="0px" y="0px"
	 viewBox="0 0 1600 1600" style="enable-background:new 0 0 1600 1600;" xml:space="preserve">
<style type="text/css">
	.st0{fill:#CAD2EA;}
	.st1{fill:#272F64;}
	.st2{fill:#E2E8F3;}
	.st3{fill:#ACB9DD;}
	.st4{fill:#404B85;}
	.st5{opacity:0.3;}
	.st6{fill:#010202;}
	.st7{opacity:0.8;}
	.st8{fill:#343F70;}
	.st9{fill:#C2CBE9;}
	.st10{fill:#D8DFEF;}
	.st11{fill:#F4EB6A;}
	.st12{fill:#CFD7EA;}
</style>
<path class="st0" d="M1088.9,982.5c56.8-63.2,91.1-145.4,91.1-235.4c0-199.3-168.4-360.8-376.1-360.8S427.7,547.9,427.7,747.1
	c0,94.6,38,180.8,100.2,245.1c1.6,2.4,3.5,5.4,5.9,9.3c4.1,6.8,16,27.3,36.7,89.3c6.2,18.4,13.8,42.6,21.7,71.4c0.2,0,0.4,0,0.5,0
	c12,53.8,60.2,94.3,117.4,94.3h184.2c55.5,0,102.6-38.2,116.2-89.6c0.5,0,1,0,1.5,0C1020.3,1085.1,1065.5,1014.3,1088.9,982.5z"/>
<path class="st1" d="M922.8,1314.3H663.5c-10.6,0-19.2-8.6-19.2-19.2l0,0c0-10.6,8.6-19.2,19.2-19.2h259.3
	c10.6,0,19.2,8.6,19.2,19.2l0,0C942,1305.7,933.4,1314.3,922.8,1314.3z"/>
<path class="st1" d="M917.7,1379.1H670.4c-12.4,0-22.6-10.2-22.6-22.6l0,0c0-12.4,10.2-22.6,22.6-22.6h247.3
	c12.4,0,22.6,10.2,22.6,22.6l0,0C940.3,1369,930.1,1379.1,917.7,1379.1z"/>
<path class="st1" d="M899.8,1440.5H678c-11,0-20-9-20-20l0,0c0-11,9-20,20-20h221.8c11,0,20,9,20,20l0,0
	C919.8,1431.5,910.8,1440.5,899.8,1440.5z"/>
<path class="st1" d="M680.7,1467c-0.3,1.3-0.5,2.5-0.5,3.8c0,21.9,51,39.7,113.9,39.7s113.9-17.8,113.9-39.7c0-1.3-0.2-2.6-0.5-3.8
	H680.7z"/>
<path class="st2" d="M526.9,663.3c-22.6-33.3,15.8-99.8,49.5-136.5c72.3-78.9,169.7-71.4,186.5-67.1c4.4,1.1,15.1,3.9,20.5,13.1
	c3.9,6.6,3.8,14.5,2.5,19.2c-5.2,17.8-37.9,18.5-69.6,28c-15.5,4.7-72.8,24.1-102.3,69.4c-23.5,36-18.7,71.8-47.8,84.2
	c-8.9,3.8-17.4,3.8-22.7,3.4C538.2,674.4,531.7,670.3,526.9,663.3z"/>
<circle class="st2" cx="511.9" cy="732.3" r="38.4"/>
<path class="st3" d="M1175.7,724c0-17.1-1.2-33.9-3.5-50.3c-6.5-30-16.8-58.6-30.5-85.3c0.7,38.9-3.2,78-13.6,115.5
	c-6.9,24.8-16.5,48.7-27.2,72.1c-23.8,52.2-53,101.9-86.9,148.2c-15.9,21.7-32.9,42.7-46.3,66.1c-18.7,32.7-29.6,69.1-38.6,105.5
	c-4.2,17.1-8.1,34.5-16.7,49.9c-15.1,27.2-43.1,44.9-71.8,57.3c-61.1,26.5-127.9,33.4-195.1,34.6c5.6,3.6,11.5,6.7,17.7,9.4
	c8,1.6,16.2,2.5,24.6,2.5H879c57.7,0,106.5-39.4,120.7-92.4c0.5,0,1,0,1.5,0c8.7-84.5,55.6-157.6,79.9-190.3
	C1140.1,901.6,1175.7,816.8,1175.7,724z"/>
<path class="st4" d="M1180,747.1c0-53-11.9-103.4-33.4-148.8c0.2,3.2,0.3,6.4,0.4,9.6c1.3,40.2-2.2,80.8-12.9,119.7
	c-6.6,24-15.9,47.2-26.2,69.9c-22.9,50.6-51,98.8-83.7,143.7c-15.3,21-31.7,41.4-44.6,64.1c-18,31.7-28.5,66.9-37.2,102.3
	c-4.1,16.6-7.8,33.5-16.1,48.4c-14.6,26.3-41.5,43.5-69.1,55.6c-61.9,27-129.9,33.1-198,33.7c15.5,7.3,32.7,11.4,50.8,11.4h184.2
	c55.5,0,102.6-38.2,116.2-89.6c0.5,0,1,0,1.5,0c8.4-81.9,53.6-152.8,76.9-184.5C1145.7,919.3,1180,837.1,1180,747.1z"/>
<g class="st5">
	
		<image style="overflow:visible;opacity:0.72;" width="1626" height="2455" xlink:href="CC95BDE6.png"  transform="matrix(0.24 0 0 0.24 556.44 522.84)">
	</image>
	<g>
		<g>
			<path class="st6" d="M661.2,881.9c0,0-131.2-12.9-76.4,129.7c4.3,12.1,15-23.8,15-23.8s6.3-55.3,71.4-37.7
				S661.2,881.9,661.2,881.9z"/>
			<path class="st6" d="M604.9,940.8c2.2-4.4,4.7-8.8,8.8-11.7c3.5-2.5,7.9-3.5,11.7-5.4c9.7-4.8,15.6-14.9,24.3-21.3
				c7-5.1,15.1-7.4,22.7-6.8c18.1,23.5,47.3,67.6-1.1,54.5c-65.1-17.6-71.4,37.7-71.4,37.7s-10.1,34-14.6,24.6
				C586.9,987.6,593.6,963.1,604.9,940.8z"/>
			<path class="st6" d="M670.1,1011.7l54.7,22.6c11.4,4.7,24.6-0.8,29.3-12.2l7.7-18.5c4.7-11.4-0.8-24.6-12.2-29.3l-54.7-22.6
				c-11.4-4.7-24.6,0.8-29.3,12.2l-7.7,18.5C653.2,993.8,658.7,1007,670.1,1011.7z"/>
			<path class="st6" d="M899.7,537.9c0,0-283.3,85-240.4,423.8l112.6,46.6C771.8,1008.3,1017,827.9,899.7,537.9z"/>
			<circle class="st6" cx="801.4" cy="780.6" r="70.7"/>
			<path class="st6" d="M736,753.6c0.2-0.6,0.5-1.1,0.7-1.7c18.3-27.6,54.2-39.4,85.9-26.3c36.1,14.9,53.2,56.3,38.3,92.4
				c-0.2,0.6-0.5,1.1-0.7,1.7c-18.3,27.6-54.2,39.4-85.9,26.3C738.3,831,721.1,789.7,736,753.6z"/>
			<path class="st6" d="M899.7,537.9c23,56.9,32.1,109.5,31.8,157.4c-18.6-15.9-43.8-33.5-76.2-47.5c-34.8-15-67.3-21.2-93.5-23.5
				C827.7,559.5,899.7,537.9,899.7,537.9z"/>
			<circle class="st6" cx="800" cy="779" r="46.8"/>
			<path class="st6" d="M817.1,752.6c16,6.6,26.3,21,28.5,37c-0.6,2.5-1.3,4.9-2.3,7.3c-9.9,23.9-37.3,35.3-61.2,25.4
				c-16-6.6-26.3-21-28.5-37c0.6-2.5,1.3-4.9,2.3-7.3C765.8,754.1,793.2,742.7,817.1,752.6z"/>
			<path class="st6" d="M841.3,800.9c-4,7.6-9.9,13.7-16.8,17.9L786.1,751c8.5-2.5,17.8-2.6,26.8,0.2L841.3,800.9z"/>
			<path class="st6" d="M814.1,823.6c-4.2,1.3-8.6,2.1-13.1,2.2l-36.8-61.1c3-3.4,6.5-6.3,10.3-8.6L814.1,823.6z"/>
			<path class="st6" d="M771.8,1008.3l-94-38.9c234-56,232.7-330.9,225.7-421.7C1011.5,832,771.8,1008.3,771.8,1008.3z"/>
			<path class="st6" d="M901.6,672.8c5.7-51.4,4.1-97.1,1.9-125.1c20.2,53.1,28.2,102.5,28,147.6C922.9,688,913,680.4,901.6,672.8z"
				/>
			<path class="st6" d="M827.2,950.5c0,0,101.9,83.5-37.5,145.8c-11.6,5.5,6.2-27.4,6.2-27.4s34.6-43.6-23.9-77.1
				S827.2,950.5,827.2,950.5z"/>
			
				<ellipse transform="matrix(0.3822 -0.9241 0.9241 0.3822 -478.6159 1271.5498)" class="st6" cx="711.7" cy="993.7" rx="73.6" ry="17.7"/>
			<path class="st6" d="M786.3,949.5c0.4-0.2,2-1.2,4.4-2.3c2.8-1.3,5.3-2,7.2-2.5c4,2.5,11.4,6.4,21.1,6.6c3,0.1,5.8-0.3,8.1-0.7
				c0,0,5.6,4.6,12.4,12.4c-3,4.3-6.9,8.9-8.3,12.1c-3.6,8.3-7.2,16.7-7.7,25.7c-0.3,5.6,0.6,11.1,0.8,16.7
				c0.5,14.5-4.2,28.9-11.5,41.4c-7.1,12.2-16.6,22.9-26.8,32.8c1.8-8.1,9.7-22.8,9.7-22.8c1.8-2.4,13-17.3,9.4-37.5
				c-0.2-1.3-4.6-23.7-25.4-33.9c-8.2-4-15.9-4.7-20.5-4.7c-12.8-13-13.8-19.8-12.3-23.7C751.1,959.1,777.5,954.8,786.3,949.5z"/>
			<path class="st6" d="M722.1,960.1c-0.2-1-0.5-2.1-1.4-2.8c-1.2-0.9-3.1-0.6-4.3,0.3c-1.2,0.9-2,2.3-2.7,3.7
				c-4.9,9.2-9.6,18.4-14.2,27.8c-2.1,4.2-4.1,8.5-5,13.1c-0.2,1.3-0.3,2.8,0.7,3.7c1.3,1.2,3.6,0.1,4.3-1.5
				c0.7-1.6,0.4-3.5,0.3-5.3c-0.3-6.4,2.2-12.8,5.8-18.1c2.9-4.3,6.7-8.8,10.7-12C719.6,966.5,722.8,965,722.1,960.1z"/>
			
				<ellipse transform="matrix(0.3822 -0.9241 0.9241 0.3822 -499.6965 1275.3629)" class="st6" cx="704" cy="1011.4" rx="3" ry="2.8"/>
			<path class="st6" d="M662.1,989.2c-0.6,5.7,1,12.1,5.5,15.7c2.1,1.7,4.8,2.7,7.4,3.5c0.6,0.2,1.3,0.4,2,0.2
				c1.7-0.4,2.2-2.6,1.5-4.2c-2.9-6-10.4-8-10.5-16.1c0-5.6,4.8-10.5,0.8-15.9C665.1,976.4,662.7,983.8,662.1,989.2z"/>
		</g>
	</g>
</g>
<g class="st7">
	
		<image style="overflow:visible;opacity:0.72;" width="1626" height="2455" xlink:href="CC95BDEA.png"  transform="matrix(0.24 0 0 0.24 570.36 534.6)">
	</image>
	<g>
		<g>
			<path class="st4" d="M675.2,893.6c0,0-131.2-12.9-76.4,129.7c4.3,12.1,15-23.8,15-23.8s6.3-55.3,71.4-37.7
				S675.2,893.6,675.2,893.6z"/>
			<path class="st8" d="M618.8,952.5c2.2-4.4,4.7-8.8,8.8-11.7c3.5-2.5,7.9-3.5,11.7-5.4c9.7-4.8,15.6-14.9,24.3-21.3
				c7-5.1,15.1-7.4,22.7-6.8c18.1,23.5,47.3,67.6-1.1,54.5c-65.1-17.6-71.4,37.7-71.4,37.7s-10.1,34-14.6,24.6
				C600.8,999.3,607.6,974.8,618.8,952.5z"/>
			<path class="st3" d="M684,1023.4l54.7,22.6c11.4,4.7,24.6-0.8,29.3-12.2l7.7-18.5c4.7-11.4-0.8-24.6-12.2-29.3l-54.7-22.6
				c-11.4-4.7-24.6,0.8-29.3,12.2l-7.7,18.5C667.1,1005.5,672.6,1018.7,684,1023.4z"/>
			<path class="st9" d="M913.6,549.6c0,0-283.3,85-240.4,423.8l112.6,46.6C785.7,1020,1030.9,839.6,913.6,549.6z"/>
			<circle class="st10" cx="815.3" cy="792.3" r="70.7"/>
			<path class="st3" d="M749.9,765.3c0.2-0.6,0.5-1.1,0.7-1.7c18.3-27.6,54.2-39.4,85.9-26.3c36.1,14.9,53.2,56.3,38.3,92.4
				c-0.2,0.6-0.5,1.1-0.7,1.7c-18.3,27.6-54.2,39.4-85.9,26.3C752.2,842.7,735,801.4,749.9,765.3z"/>
			<path class="st4" d="M913.6,549.6c23,56.9,32.1,109.5,31.8,157.4c-18.6-15.9-43.8-33.5-76.2-47.5c-34.8-15-67.3-21.2-93.5-23.5
				C841.6,571.2,913.6,549.6,913.6,549.6z"/>
			<circle class="st4" cx="813.9" cy="790.7" r="46.8"/>
			<path class="st9" d="M831,764.3c16,6.6,26.3,21,28.5,37c-0.6,2.5-1.3,4.9-2.3,7.3c-9.9,23.9-37.3,35.3-61.2,25.4
				c-16-6.6-26.3-21-28.5-37c0.6-2.5,1.3-4.9,2.3-7.3C779.7,765.8,807.1,754.4,831,764.3z"/>
			<path class="st10" d="M855.2,812.6c-4,7.6-9.9,13.7-16.8,17.9L800,762.7c8.5-2.5,17.8-2.6,26.8,0.2L855.2,812.6z"/>
			<path class="st10" d="M828,835.3c-4.2,1.3-8.6,2.1-13.1,2.2l-36.8-61.1c3-3.4,6.5-6.3,10.3-8.6L828,835.3z"/>
			<path class="st8" d="M785.7,1020l-94-38.9c234-56,232.7-330.9,225.7-421.7C1025.4,843.7,785.7,1020,785.7,1020z"/>
			<path class="st8" d="M915.5,684.5c5.7-51.4,4.1-97.1,1.9-125.1c20.2,53.1,28.2,102.5,28,147.6
				C936.8,699.7,926.9,692.1,915.5,684.5z"/>
			<path class="st4" d="M841.1,962.2c0,0,101.9,83.5-37.5,145.8c-11.6,5.5,6.2-27.4,6.2-27.4s34.6-43.6-23.9-77.1
				C727.3,970,841.1,962.2,841.1,962.2z"/>
			
				<ellipse transform="matrix(0.3822 -0.9241 0.9241 0.3822 -480.8362 1291.6362)" class="st4" cx="725.6" cy="1005.4" rx="73.6" ry="17.7"/>
			<path class="st8" d="M800.2,961.2c0.4-0.2,2-1.2,4.4-2.3c2.8-1.3,5.3-2,7.2-2.5c4,2.5,11.4,6.4,21.1,6.6c3,0.1,5.8-0.3,8.1-0.7
				c0,0,5.6,4.6,12.4,12.4c-3,4.3-6.9,8.9-8.3,12.1c-3.6,8.3-7.2,16.7-7.7,25.7c-0.3,5.6,0.6,11.1,0.8,16.7
				c0.5,14.5-4.2,28.9-11.5,41.4c-7.1,12.2-16.6,22.9-26.8,32.8c1.8-8.1,9.7-22.8,9.7-22.8c1.8-2.4,13-17.3,9.4-37.5
				c-0.2-1.3-4.6-23.7-25.4-33.9c-8.2-4-15.9-4.7-20.5-4.7c-12.8-13-13.8-19.8-12.3-23.7C765,970.8,791.4,966.5,800.2,961.2z"/>
			<path class="st10" d="M736,971.8c-0.2-1-0.5-2.1-1.4-2.8c-1.2-0.9-3.1-0.6-4.3,0.3c-1.2,0.9-2,2.3-2.7,3.7
				c-4.9,9.2-9.6,18.4-14.2,27.8c-2.1,4.2-4.1,8.5-5,13.1c-0.2,1.3-0.3,2.8,0.7,3.7c1.3,1.2,3.6,0.1,4.3-1.5
				c0.7-1.6,0.4-3.5,0.3-5.3c-0.3-6.4,2.2-12.8,5.8-18.1c2.9-4.3,6.7-8.8,10.7-12C733.5,978.2,736.7,976.7,736,971.8z"/>
			
				<ellipse transform="matrix(0.3822 -0.9241 0.9241 0.3822 -501.9169 1295.4493)" class="st10" cx="717.9" cy="1023.1" rx="3" ry="2.8"/>
			<path class="st10" d="M676,1000.9c-0.6,5.7,1,12.1,5.5,15.7c2.1,1.7,4.8,2.7,7.4,3.5c0.6,0.2,1.3,0.4,2,0.2
				c1.7-0.4,2.2-2.6,1.5-4.2c-2.9-6-10.4-8-10.5-16.1c0-5.6,4.8-10.5,0.8-15.9C679.1,988.1,676.7,995.5,676,1000.9z"/>
		</g>
	</g>
</g>
<g>
	
		<image style="overflow:visible;opacity:0.72;" width="272" height="273" xlink:href="CC95BDED.png"  transform="matrix(0.24 0 0 0.24 1001.16 669.48)">
	</image>
	<g>
		<polygon class="st11" points="1032.1,719.9 1039,709.2 1051.3,709.2 1044.1,699.5 1047.8,687.4 1036.3,691.4 1026,684.6 
			1026.2,696.7 1016.3,704 1028.2,707.9 		"/>
	</g>
</g>
<g>
	
		<image style="overflow:visible;opacity:0.72;" width="265" height="268" xlink:href="CC95BDEE.png"  transform="matrix(0.24 0 0 0.24 1017 537)">
	</image>
	<g>
		<polygon class="st11" points="1032.2,559.7 1038.8,569.9 1033.9,580.7 1045.3,578.3 1054.4,586.3 1055.5,574.6 1065.5,568.4 
			1054.8,563.7 1052.4,552.2 1044.2,561 		"/>
	</g>
</g>
<g>
	
		<image style="overflow:visible;opacity:0.72;" width="315" height="318" xlink:href="CC95BDEC.png"  transform="matrix(0.24 0 0 0.24 998.76 600.6)">
	</image>
	<g>
		<polygon class="st11" points="1014,639.5 1029.2,646 1032,661.8 1042.9,650.4 1059.2,652.4 1051.5,638.5 1057.9,623.8 
			1042.4,626.8 1030.9,615.7 1028.5,631.9 		"/>
	</g>
</g>
<g>
	
		<image style="overflow:visible;opacity:0.72;" width="292" height="294" xlink:href="CC95BDEB.png"  transform="matrix(0.24 0 0 0.24 953.16 519.24)">
	</image>
	<g>
		<polygon class="st11" points="970.5,569.9 984.4,565.6 995.2,574.6 996,560.7 1008.1,552.7 995,547.8 990.9,534.4 982.2,545.2 
			968.2,544.3 975.8,556.5 		"/>
	</g>
</g>
<g>
	
		<image style="overflow:visible;opacity:0.72;" width="274" height="271" xlink:href="CC95BDE5.png"  transform="matrix(0.24 0 0 0.24 934.68 464.28)">
	</image>
	<g>
		<polygon class="st11" points="985.2,498.7 974.6,491.7 974.8,479.3 965,486.4 952.9,482.6 956.8,494.2 949.9,504.3 962,504.3 
			969.1,514.3 973.2,502.4 		"/>
	</g>
</g>
<g>
	
		<image style="overflow:visible;opacity:0.72;" width="318" height="313" xlink:href="CC95BDE7.png"  transform="matrix(0.24 0 0 0.24 866.52 455.64)">
	</image>
	<g>
		<polygon class="st11" points="905.2,515.7 911.8,500.6 927.7,498 916.4,487 918.6,470.7 904.6,478.2 890,471.6 892.8,487.2 
			881.5,498.6 897.7,501.1 		"/>
	</g>
</g>
<g>
	
		<image style="overflow:visible;opacity:0.72;" width="293" height="292" xlink:href="CC95BDE4.png"  transform="matrix(0.24 0 0 0.24 800.28 463.08)">
	</image>
	<g>
		<polygon class="st11" points="850.6,516.1 846.5,502.1 855.6,491.4 841.7,490.4 833.9,478.3 828.8,491.3 815.3,495.2 826,504 
			825,518.1 837.3,510.6 		"/>
	</g>
</g>
<path class="st12" d="M806.1,301.9h-4.5c-15.6,0-28.4-12.8-28.4-28.4V118c0-15.6,12.8-28.4,28.4-28.4h4.5
	c15.6,0,28.4,12.8,28.4,28.4v155.5C834.5,289.1,821.7,301.9,806.1,301.9z"/>
<path class="st12" d="M1128.2,436.2l-3.2-3.2c-11.1-11.1-11.1-29.1,0-40.2l110-110c11.1-11.1,29.1-11.1,40.2,0l3.2,3.2
	c11.1,11.1,11.1,29.1,0,40.2l-110,110C1157.4,447.2,1139.3,447.2,1128.2,436.2z"/>
<path class="st12" d="M482,438.7l3.2-3.2c11.1-11.1,11.1-29.1,0-40.2l-110-110c-11.1-11.1-29.1-11.1-40.2,0l-3.2,3.2
	c-11.1,11.1-11.1,29.1,0,40.2l110,110C452.8,449.8,470.9,449.8,482,438.7z"/>
<path class="st12" d="M128.3,781.4v-4.5c0-15.6,12.8-28.4,28.4-28.4h155.5c15.6,0,28.4,12.8,28.4,28.4v4.5
	c0,15.6-12.8,28.4-28.4,28.4H156.8C141.1,809.8,128.3,797,128.3,781.4z"/>
<path class="st12" d="M1259.3,778.8v-4.5c0-15.6,12.8-28.4,28.4-28.4h155.5c15.6,0,28.4,12.8,28.4,28.4v4.5
	c0,15.6-12.8,28.4-28.4,28.4h-155.5C1272.1,807.2,1259.3,794.5,1259.3,778.8z"/>
<path class="st12" d="M1127.6,1086.9l3.2-3.2c11.1-11.1,29.1-11.1,40.2,0l110,110c11.1,11.1,11.1,29.1,0,40.2l-3.2,3.2
	c-11.1,11.1-29.1,11.1-40.2,0l-110-110C1116.5,1116,1116.5,1097.9,1127.6,1086.9z"/>
<path class="st12" d="M477.5,1086.9l-3.2-3.2c-11.1-11.1-29.1-11.1-40.2,0l-110,110c-11.1,11.1-11.1,29.1,0,40.2l3.2,3.2
	c11.1,11.1,29.1,11.1,40.2,0l110-110C488.6,1116,488.6,1097.9,477.5,1086.9z"/>
<g>
</g>
<g>
</g>
<g>
</g>
<g>
</g>
<g>
</g>
<g>
</g>
</svg>
