<?xml version="1.0" encoding="utf-8"?>
<!-- Generator: Adobe Illustrator 25.4.1, SVG Export Plug-In . SVG Version: 6.00 Build 0)  -->
<svg version="1.1" id="Слой_1" xmlns="http://www.w3.org/2000/svg" xmlns:xlink="http://www.w3.org/1999/xlink" x="0px" y="0px"
	 viewBox="0 0 4171.8 1237.1" style="enable-background:new 0 0 4171.8 1237.1;" xml:space="preserve">
<style type="text/css">
	.st0{opacity:0.8;}
	.st1{fill:#404B85;}
	.st2{fill:#C2CBE9;}
	.st3{fill:#ACB9DD;}
	.st4{fill:none;stroke:#272F64;stroke-miterlimit:10;}
	.st5{fill:none;stroke:#5161AA;stroke-miterlimit:10;}
	.st6{fill:#D8DFEF;}
	.st7{fill:#343F70;}
	.st8{fill:none;stroke:#404B85;stroke-miterlimit:10;}
	.st9{fill:#8C95CA;}
	.st10{fill:#5161AA;}
	.st11{fill:#272F64;}
	.st12{fill:none;}
</style>
<g class="st0">
	
		<image style="overflow:visible;enable-background:new    ;" width="1950" height="783" xlink:href="9E6AC10D.png"  transform="matrix(0.2388 0 0 0.2388 2610.9553 997.44)">
	</image>
</g>
<g>
	<g>
		<g>
			<path class="st1" d="M471.8,318.5c9,16.3-0.9,36.2-0.8,54.8c0.1,33.4,34.7,58.7,68.1,59.4c33.4,0.7,64.3-16.9,91-37
				s51.4-43.5,81.7-57.5c14.8-6.8,31.3-11.4,47.3-8.5c16,2.8,31.3,14.3,34.7,30.2c4,18.7-8.4,36.7-12.2,55.5
				c-5.9,29.6,9.8,58.6,22.4,86c31,67.6,45.2,142.8,41,217.1c-0.5,9.4-0.7,20.5,6.8,26.2c11,8.5,26-2.3,36-12
				c54.5-53,126.1-91.7,202.1-93.9S1244.9,676,1278,744.5c18,37.4,18.2,89.2-15.5,113.4c-27.9,20-68,12.5-96.7-6.3
				c-6.1-4-12.4-8.7-19.7-8.9c-11.3-0.3-19.7,9.8-26.3,18.9c-13.9,19.2-27.8,38.3-41.7,57.4c-22.5,31-46.4,63.2-80.8,80.1
				c-22.2,10.9-47.1,14.5-71,20.6c-37.3,9.5-72.8,25.1-109.3,37.3c-111.6,37.3-233.9,41.9-348,13.1c-38-9.6-76.2-23.5-105-50
				c-20.9-19.3-35.7-44.2-48.7-69.4c-40.3-77.8-67-170.4-36-252.3c13.5-35.5,36.9-66.4,51.9-101.3c13.3-30.8,19.8-64.1,26.1-97.1
				c9.1-47.1,11.2-105.2,30.1-149.3C398.2,324.8,449.2,278,471.8,318.5z"/>
			<path class="st2" d="M122.2,1019.6c-14.8,0.5-33.3-1.1-38.8-14.9c-7-17.3,13.3-32.1,28.8-42.6c13.3-9,25.6-20.9,30.6-36.2
				s0.7-34.4-13-42.9c-16.7-10.3-38.8-1.6-57.9-6.6c-20.3-5.2-33.7-25.6-37-46.3c-3.3-20.7,1.7-41.7,7.1-61.8
				c11.2-41.4,26.1-84.5,59.2-111.6s89.8-29.6,114.2,5.5c3.4-8.9,16.2-10.8,24.4-6s13,13.7,17.3,22.2c-1.3-11.5-2.6-22.9-3.9-34.4
				c11.3-7.6,27.5-3.8,37.8,5.2c10.3,9,16.1,21.9,21.6,34.4c45-0.2,89.9,6.8,132.7,20.6c15.1,4.9,30.4,10.9,42,21.8
				s18.9,27.7,14.5,43c-4.4,15.3-23,26.2-37.2,19.1c-7.2-3.5-11.9-10.5-17.4-16.3c-17.6-18.9-45.4-27.5-70.6-22
				c-25.2,5.5-46.8,25.1-54.8,49.6c-15.1,46.3,17.2,94.3,52.5,127.8c97.4,92.3,233.7,142.1,367.7,134.3
				c102.1-5.9,207-48.5,264.3-133.2c19.8-29.2,33.3-62.4,55-90.1c43-55.1,117.9-83.2,186.5-70.1c9.3,1.8,18.7,4.3,26.2,10
				c25.9,19.1,15,64.5-13.1,80.3s-63.4,9.5-93.4-2.2c-6.8-2.7-13.7-5.6-21.1-5.7c-8.6-0.1-16.8,3.8-23.9,8.8
				c-41.2,28.4-50.6,83.9-72,129.1c-27.8,58.4-79.6,103.2-137.9,131.2s-123,40.4-187.4,46.2c-32.5,2.9-66,4.1-97.1-6
				c-9-2.9-18.3-6.8-27.6-5.1c-8.2,1.6-14.9,7.3-21.2,12.7c-20.9,18.1-49.2,36.9-74,24.6c-17.5-8.8-27.3-31.4-46.6-34.4
				c-20.4-3.2-36.7,17.2-56.7,21.9c-31.8,7.5-57.9-24.7-72.9-53.7c-12.8,26.9-31.7,53.1-59.6,63.7c-27.9,10.6-65.3-0.9-74.2-29.3
				c-2.1-6.6-2.6-13.6-5.8-19.7c-4.7-9-14.4-14.1-23.2-19.2c-22.6-13-44.7-30.9-51.7-56.1s8.4-57.3,34.4-59"/>
			<path class="st3" d="M546.1,391c8.3-7.6,25.7-17.8,36.7-11c2.8,1.7,5.6,4.1,8.8,3.6c6.9-1,6.1-11.5,5.9-18.8
				c-0.6-21.9,27.3-37.7,44.3-25c-0.8-29.1,31.4-53.2,57.2-42.9c10.4,4.2,19.8,12.8,30.9,11.9c6.8-0.5,12.8-4.7,19-7.4
				c10.4-4.5,22.7-5.1,32.6,0.6s16.4,18.2,13.5,29.7c-0.8,3.2-2.2,6.6-0.8,9.5c0.9,2,2.9,3.1,4.7,4.3c9.8,6.2,18,16,20.3,27.9
				c2.2,11.8-2.6,25.4-12.8,30.9s-24.8,0.3-28.2-11.2c-2.5-8.6,1.3-17.9-0.3-26.8c-2.8-16-20.8-23.3-36.3-23.9
				c-6.9-0.3-14.2,0.4-19.8,4.5c-5.6,4.2-8.6,12.9-4.8,18.9c4.4,6.9,11.8,5.4,21.5,12.9c9.6,7.5,15.4,20.9,15.3,33.1
				c-0.1,12.5-6.5,20.9-18.2,36.2c-8.3,10.9-12.4,16.3-19,17.9c-12.6,3-27.5-7.1-34.6-18.9c-7.1-11.6-3.8-19.9-10-23.4
				c-8.8-4.8-23.5,6.6-29.7,12.6c-7.4,7.1-7.1,11-21.7,28.8c-4.3,5.2-4.6,5.4-5.3,7.1c-5.2,12.4,11.1,24.5,10.1,38
				c-0.8,10.6-12.8,17.2-22.6,15s-17.5-10.5-23.1-19.3c-3.9-6-5.8-11-6.7-13.2c-11.3-28-35.5-30.2-42.2-52.3
				C525.8,423.3,533.5,402.5,546.1,391z"/>
			<path class="st2" d="M674.7,450.9c9.6-5.9,27.8-14.6,52.7-15.7c13.6-0.6,47.7-2.2,71.2,22.9c18.9,20.2,20,46,19.9,54.5
				c15.2-7.1,35.5,7,34.1,23.7c-0.9,11.6-8.7,26.8,1.5,32.5c5.8,3.2,14.1-0.1,19.2,4.2c6.7,5.7,1.1,18.6,7.8,24.3
				c2.6,2.3,6.3,2.5,9.7,3.3c16.8,3.9,27.1,21.5,29.2,38.6c3,23.9-7.4,49.5-27.3,63c-19.9,13.6-48.7,13.4-67.4-1.8
				c-2.5-2-5-4.5-5.7-7.7c-2.2-10.2,12.5-14.1,20.4-20.8c11.1-9.4,8.2-28.7-2.9-38.1c-11-9.4-27-10.5-41.3-8
				c-9.5,1.7-19.2,5.1-25.9,12.2c-12.9,13.6-10.4,35.9-2.5,53s20,32.3,24.8,50.4c4.8,18.2-1.4,41.6-19.3,47.1
				c-6.5,2-13.4,1.3-20.1,0.3c-22.4-3.3-46.2-11.8-57.7-31.3c3.7-9.1,16.2-10.5,23.4-17.2c11.5-10.7,5.6-30.6-5.2-42
				c-17.8-18.8-44.7-25.9-70.5-28.3c-4.8-0.5-9.8-0.9-13.7-3.7c-6.9-5-7.1-15.5-4-23.4c3.2-7.9,8.8-14.7,11.9-22.6
				c14.3-37.3-28.7-63.3-28.3-98.2C609.1,491.3,651.7,465.1,674.7,450.9z"/>
			<path class="st2" d="M109.7,582.6c-3.2-14.8,1-26.7,7.9-42.7c15.1-35,35.3-74.4,72.6-82.1c4.2-0.9,8.7-1.4,12.1-4
				c8.1-6.5,3.8-19.5,6.3-29.6c3.6-15,22.2-22.4,26.6-37.2c1.5-5.2,1.2-10.9,3.5-15.8c8.3-17.8,40.3-9.3,50.5-26.1
				c3.8-6.3,3.1-14.1,3.5-21.4c1-22.1,15.1-45.4,37-48.8c19.3-3,40,9.7,57.7,1.4c4.7-2.2,8.8-5.8,13.7-7.7
				c19.1-7.2,37.9,14.9,58.4,13.9c4.9-0.2,9.6-1.8,14.4-1.8c11.9,0,22,9.1,28.5,19.1c7.8,11.9,12.4,27.3,6.8,40.4
				s-24.4,20.2-34.8,10.5c-9.6-8.9-8.6-27.2-20.7-32.3c0.8,1.7,5.1,10.8,1.2,20.8c-2,4.9-5.1,8-7,9.6c-0.6,0.5-8.1,7-18,4.5
				c-9.1-2.3-12.7-10.3-13.1-11.2c4.4,11.8,9.1,28.6,10.5,49c1.6,23.4-1.7,42.8-5,55.9c16.5-27.1,54-39,83.1-26.4
				c7.5,3.3,15.4,11.1,11.8,18.5c16.5-10.2,38.4-13.3,55.5-4.1c17.1,9.2,26.5,32.4,17.3,49.5c-2.1,3.9-5.1,7.6-5.3,12
				c-0.4,7.9,7.7,13.2,14.4,17.5c25.4,16.6,42,45.9,43.3,76.2c0.7,15.7-2.9,32.2-13.4,43.8s-28.9,16.8-42.6,9
				c17.1-11.6,18.8-37.9,8-55.6c-13.2-21.7-35.2-30.7-49.8-34.9c-8.5-2.4-24.1-6.8-43.1-2.1c-26.3,6.6-52.6,29-54.8,53.9
				c-1.4,15.3,7.4,19.6,3.9,36.5c-0.6,2.9-5,22.5-21.2,31.7c-17.6,10.1-38.6,1.9-40.4,7.7c-1.4,4.4,10,9.5,8.7,13.5
				c-2.2,6.7-38.6,0.1-38.6,0.1c-43.7-7.9-76.5-13.9-103.3-20.8c-16.6-4.3-29.6-8.3-42.4-13.8c-7.9-3.4-8.7-4.3-25.1-12.6
				c-41.3-21-45.5-20.2-56.1-29.9C125.3,610.7,113.4,599.8,109.7,582.6z"/>
			<path class="st4" d="M442.3,370.5c1.8,14.5,8.3,28.3,18.3,38.9"/>
			<path class="st4" d="M547.3,559.7c-24.9-7.9-51.8,4-72.7,19.6c-11.6,8.7-23.3,21.2-21.3,35.6"/>
			<path class="st4" d="M496.9,597.2c12.7-22.6,40.3-35.8,65.9-31.5C530,559.2,510,566.5,496.9,597.2z"/>
			<path class="st4" d="M576.2,591.3c-34.2-4.8-70.3,16.4-82.6,48.6"/>
			<path class="st4" d="M574.5,606.2c-28-1.9-56.6,8.8-76.5,28.6c-19.9,19.8-30.6,48.4-28.8,76.4"/>
			<path class="st4" d="M580,625.3c-18.7-6.5-29.1,8.4-40.6,21.9"/>
			<path class="st4" d="M511.2,686.2c-7.9,9.6-14.1,20.5-18.4,32.2"/>
			<path class="st4" d="M572,636.8c-35.9,26.6-61.4,67.8-66.4,112.2s11.5,91.4,45.2,120.9"/>
			<path class="st4" d="M609.5,646.9c-16,4-32.4,8.1-46.1,17.3s-24.3,24.8-23,41.3"/>
			<path class="st4" d="M622.7,654.1c-21.3,5.2-39,20.8-50.4,39.5c-11.4,18.7-17.3,40.2-21.2,61.8c-3.1,16.9-5.1,34.4-1.2,51.1
				s14.6,32.7,30.6,38.8"/>
			<path class="st4" d="M620.6,676.4c-17,4.6-31.5,17.7-37.9,34.1c-6.4,16.4-4.4,35.8,5,50.7"/>
			<path class="st4" d="M651.3,684.1c-15.4,15.5-29.5,32.9-37.3,53.3s-8.6,44.3,1.7,63.5c6.5,12.1,16.7,21.7,24.9,32.6"/>
			<path class="st4" d="M680.8,692.6c-18.6,12-39.2,27.3-40.3,49.5"/>
			<path class="st4" d="M699.8,723.1c-10.2,2.8-20.8,6-28.7,13.1c-7.8,7.1-12.1,19.3-7.1,28.7"/>
			<path class="st4" d="M811.3,628.8c-16.9,10.1-28.8,28.1-31.7,47.5"/>
			<path class="st4" d="M821,644.2c-17,9.9-28.9,28.1-31.2,47.6"/>
			<path class="st4" d="M407.6,759.3c-8.1,24-11.1,49.7-8.7,74.9"/>
			<path class="st4" d="M386.9,739.3c-29,68.5-9.7,152.4,40.4,207.3s127.1,81.6,201.4,78.4"/>
			<path class="st4" d="M359.4,766.9c-9.5,20.2-18.4,41.1-20.3,63.3s4.2,46.1,20.8,61"/>
			<path class="st4" d="M449.5,765c-15.2,26.6-10.3,63.1,11.3,84.8"/>
			<path class="st4" d="M473.4,784c6.2,37,30.8,70.3,64.3,87.1"/>
			<path class="st4" d="M679.5,855.3c55.7,13.6,115.2,1.3,167.1-23c51.9-24.3,97.6-59.9,142.7-95.2"/>
			<path class="st4" d="M840,653.5c-29.9,12.3-51.5,42.7-53.2,75c-0.5,10,0.8,20.4,5.9,29c8.3,14,25,20.8,41,23.3
				c27,4.2,55.3-1.3,78.8-15.3c19.4-11.6,34.9-28.4,52.8-42.2c38.6-29.8,87.5-44.8,136.2-46c48.7-1.2,97.2,10.8,141.7,30.6
				c-16.3-34.5-57.7-39.4-95.6-43.2c-43-4.3-87.3-7.8-128.9,4c-48.2,13.6-88.5,46.3-126.7,78.8c-14.7,12.5-34,25.8-51.6,18
				c-9.4-4.2-15.7-14.4-15.2-24.7s7.8-19.8,17.5-23.1"/>
			<path class="st4" d="M1278,746.3c-20.4-16.6-50-13.2-75.7-7.7c-44.3,9.4-88.6,22.9-125.6,49c-23.6,16.6-43.4,37.9-63.1,59
				c-20,21.5-40,42.9-59.9,64.3c-25.3,27.2-51.2,54.8-83.4,73.2c-23.8,13.6-50.3,21.7-77,28c-85.1,19.9-177.9,20.6-256.7-17.3"/>
			<path class="st4" d="M734.2,996.3c-40.5,8.5-83.8,3.5-121.3-14"/>
			<path class="st4" d="M535.4,882.5c26.4,35.5,70.7,51.9,112.4,66.5"/>
			<path class="st4" d="M1170.5,710.9c-42.3-11.4-87.7,2.7-125.8,24.5c-38,21.8-71.2,51.2-108.6,74
				c-109.6,66.9-250.2,72.6-371.5,30.5"/>
			<path class="st4" d="M1202.1,720.9c-43.3-1-86.3,12.6-123.2,35.2c-36.9,22.6-68,54-93.4,89.1"/>
			<path class="st4" d="M955.4,861.1c-12.7,18-26.5,35.7-44.5,48.5c-14.1,10-30.2,16.7-46.2,23.3c-25.6,10.6-51.3,21.1-76.9,31.7"/>
			<path class="st4" d="M926.1,858.7c-52.8,38.8-115.5,63.8-180.4,71.9"/>
			<path class="st4" d="M488.1,924.4c9.8,11.6,23.4,20,38.2,23.6"/>
			<path class="st4" d="M439.9,891.8c7.9,12.4,16.8,24,26.7,34.8"/>
			<path class="st4" d="M447.6,853.3c8.4,15.8,20.2,29.7,34.4,40.6"/>
			<path class="st4" d="M972.7,928.4c-27.6,33.1-61.9,60.7-100.1,80.6"/>
			<path class="st4" d="M580.2,1148c-16.3-1.6-32.7-3.1-49-4.7c-27.1-2.6-57.3-6.8-74.3-28.1"/>
			<path class="st5" d="M534.2,1180.2c-16-7.3-30.6-17.5-43-30"/>
			<path class="st4" d="M564.9,1147.6c-21.2-7.8-40.8-19.6-57.5-34.7"/>
			<path class="st4" d="M1276,810.1c-18.7-35.3-67.6-45.7-104.9-31.3c-37.2,14.4-64.1,47.3-84.5,81.6
				c-20.4,34.3-36.1,71.6-60.5,103.2c-34,44.2-83.2,75-135.3,94.9c-52.2,19.8-107.6,29.4-162.8,37.4c-40.2,5.8-81.2,10.9-121.4,5.1
				c-40.2-5.7-80.3-23.4-105-55.7"/>
			<path class="st4" d="M1251.4,828.4c-3.9-15.6-18.2-27.2-33.8-31s-32.2-0.9-47.2,4.7c-52.4,19.7-87.1,69.2-113.5,118.5
				c-26.4,49.3-49,102.5-89.8,140.7c-35.9,33.6-83.2,52.6-131.1,63.4s-97.2,14-145.9,20"/>
			<path class="st4" d="M1234.2,847.2c-19.6,5.5-38.9-10.1-59.2-10.9c-13.5-0.5-27.1,6-35.1,16.9"/>
			<path class="st4" d="M1071.5,838.6c-31.7,31.5-41.3,80.5-74,110.9"/>
			<path class="st4" d="M573,1050.9c30.5,21,68.7,30.5,105.5,26.3"/>
			<path class="st4" d="M340.7,1105.7c-58.2-3.8-112.2-44.8-131.7-99.7"/>
			<path class="st4" d="M401.4,1115.7c-36.5-8.4-66.4-40.5-72.3-77.6"/>
			<path class="st4" d="M219.5,1124.7c-12.6-17.3-25.1-34.6-37.6-51.8"/>
			<path class="st4" d="M167.9,1023.5c-8.8-17.8-13-37.8-12-57.6"/>
			<path class="st4" d="M193.9,991.8c-5.9-21.5-7.1-44.3-3.5-66.3"/>
			<path class="st4" d="M260.5,1005.8c-18.8-16.3-29.9-40.9-29.8-65.8"/>
			<path class="st4" d="M67,841.8c-7.7-34.2,2.3-71.9,26-97.6"/>
			<path class="st4" d="M101.7,844.7c-8.6-34.6,0.2-73.1,23-100.6"/>
			<path class="st4" d="M153.8,859.9c-14.9-4.5-27.4-16.4-32.5-31.1c-5.1-14.7-2.8-31.8,6.1-44.5"/>
			<path class="st4" d="M173.8,885c-9-25.8-13.2-53.3-12.1-80.7"/>
			<path class="st4" d="M240.2,905c-19.8-25.9-33-56.9-38-89.1"/>
			<path class="st4" d="M322,987.6c-21.7-25.8-43.9-52.4-54.2-84.4c-13.6-42.3-4.9-88.6,9.8-130.5"/>
			<path class="st4" d="M220.6,796.2c-17.8-70.5-8.4-147.5,25.7-211.6s92.9-114.8,161.3-139.4"/>
			<path class="st4" d="M262.5,752.6c-10.6-32.8-8.9-69.4,4.8-101.1c13.7-31.7,39.2-58,70.3-72.8"/>
			<path class="st4" d="M364.6,528.3c11.1-14,22.7-28.4,38.8-36.2c16.1-7.7,38-6.5,48.9,7.6"/>
			<path class="st4" d="M313.2,735.9c6.2-13.6,12.9-27.7,24.6-36.9s30.2-11.7,41-1.4"/>
			<path class="st4" d="M117,704.3c4.6-11.2,9.4-22.8,18.1-31.2s22.4-13,33.2-7.6"/>
			<path class="st4" d="M194.3,482.3c7.1-9.3,14.6-18.9,25.3-23.8c10.6-4.9,25.3-3.1,31.2,7"/>
			<path class="st4" d="M259,418.4c-0.6-17,6.8-34.9,21.4-43.6s36.3-5.2,44.9,9.4"/>
			<path class="st4" d="M353.8,334.2c1.3-13.1,9.7-25.2,21.5-31.1c11.8-5.8,26.5-5.1,37.7,1.8"/>
			<path class="st4" d="M165.2,614c9.4-45.8,39.4-87.1,80.1-110"/>
			<path class="st4" d="M304.2,453c7.6-13.2,15.5-26.6,26.8-36.8c11.3-10.2,26.9-16.9,41.9-13.8"/>
			<path class="st4" d="M134.5,550.9c5-17.4,20.7-31.3,38.6-34.1"/>
			<path class="st4" d="M465.9,482.8c9.7-9.4,20.2-19.1,33.3-22s29.5,4.5,31.2,17.9"/>
			<path class="st4" d="M342.1,637.7c3.3-16.9,10.1-34.4,24.5-43.8c14.4-9.4,37.7-6,43.9,10.1"/>
			<path class="st4" d="M518,514.3c16.3-15.3,45.6-13.2,59.5,4.3"/>
			<path class="st4" d="M578,415.6c10.9-9.5,25.3-14.9,39.7-14.9"/>
			<path class="st4" d="M595,544.9c10.8-17,30.8-27.9,51-27.6c20.2,0.2,39.9,11.6,50.3,28.9"/>
			<path class="st4" d="M699.6,489c9.9-15.2,31-19.8,48.5-15.2c17.5,4.6,32.2,16.4,45.7,28.5"/>
			<path class="st4" d="M641.5,617.7c12.1-13.3,26.5-25.2,43.7-30.3c17.2-5.2,37.5-2.4,50.2,10.3"/>
			<path class="st4" d="M748,557c23.8-12.6,55.4-8.2,74.8,10.5"/>
			<path class="st4" d="M691.1,652.9c14.2-12.2,37.5-11.8,51.3,0.8"/>
			<path class="st4" d="M829.1,595.4c23.8-9.9,54.3,1.2,66.3,24"/>
			<path class="st4" d="M433.2,1025.9c-39.6-7.7-72.3-43.1-76.8-83.2"/>
			<path class="st4" d="M634.1,369.3c7-23.3,36.6-36.8,58.8-26.7"/>
			<path class="st4" d="M667.6,410.3c14.4-9.3,33.7-10.5,49.1-3"/>
			<path class="st4" d="M710.1,313.9c14.4,1,28.8,1.9,43.3,2.9"/>
			<path class="st4" d="M585.4,455.6c3.9-26.4,32.3-46.4,58.4-41.2"/>
			<path class="st6" d="M393.3,477.4c-8.2,4.4-16.6,9-22.5,16.2s-8.6,17.8-4.2,26c4.8,8.7,16.4,11.9,26,9.2
				c9.6-2.7,17.2-9.9,23.2-17.8c4.9-6.5,9.1-14.1,9.4-22.3s-4.3-17-12.2-19.3c-10.3-3-20.3,5.7-26,14.8"/>
			<path class="st6" d="M234.7,646.4c19.7-10.2,42-14.2,64.2-15.6c18.5-1.2,38-0.4,54.3,8.6c6.3,3.5,12.3,8.6,14.1,15.5
				c3.3,12.7-9.1,24.9-22,27.4s-26-1.3-39.1-2.9c-26.2-3.2-53.5,3.3-75.6,17.8C164.4,740.6,195.3,666.9,234.7,646.4z"/>
			<path class="st6" d="M370.9,411.7c6.8,1.8,13.8,4.6,18.2,10.2c4.4,5.6,5,14.6-0.4,19.2c-34.5-5.4-70.4-1.2-102.7,12.2
				c-5.1,2.1-10.4,4.5-15.9,4.2c-33.5-1.7,21-34.8,27.3-37.9C320,408.5,346.4,405.1,370.9,411.7z"/>
			<path class="st6" d="M246,538.6c18.5-3.5,37.5-1.7,56.2,0.4c9.7,1.1,22.5,6.1,20.6,15.7c-0.5,2.5-2,4.7-3.7,6.6
				c-14,15.9-37.7,18-58.9,18.9c-15.9,0.7-51.9,11-55.7-8.8C200.8,552.2,233.8,540.9,246,538.6z"/>
			<path class="st6" d="M649.5,377.3c13.1,1.2,26.2,2.5,39.3,3.7c1,3.2,2,6.5,3,9.7c-31.5,6.4-63.5,9.6-95.6,9.9
				c14.3-13.8,33.5-22.3,53.4-23.6"/>
			<path class="st6" d="M727.2,590.5c-11.3,7.1-22.6,14.2-33.9,21.3c5.3,7.6,15.2,12.1,24.1,9.6c8.9-2.4,15.4-12.4,12.8-21.3
				c-2.6-8.9-14.9-13.6-22.1-7.9"/>
			<path class="st6" d="M687.8,533.7c12.7-17.3,35.2-26.9,56.4-24c11,1.5,23.7,10.1,20.7,20.9c-1.6,5.7-7,9.3-12.4,11.7
				c-18.1,8.5-39.5,9.6-58.5,3.3c-4.7-1.6-9.6-3.9-11.9-8.3s-0.2-11.2,4.8-11.7"/>
			<path class="st6" d="M363.9,299.5c-11.2,7.8-21.5,17-30.6,27.2c7.5,8.9,20.9,10.9,32.2,7.8c11.3-3,20.9-10.2,30.2-17.1
				c-0.2-13.1-16.7-22.9-28.3-16.8"/>
			<path class="st6" d="M526.3,651.3c-9-2.2-17.9-4.4-26.9-6.6c-9.2,3.8-12,14.3-7.4,21.8c4.6,7.5,14.8,12,25.1,13.1
				c13.5,1.4,29.8-4.5,30.8-15.4c0.6-6.7-5.2-13.1-12.8-15.9s-16.6-2.3-24.4,0"/>
			<path class="st6" d="M259.8,863.7c-13.3,14.7-9.7,37.7-4.2,56.7c5.8,20.2,12.8,40,20.9,59.3c8.5,20.4,18.8,40.8,35.6,55.2
				c15.9,13.6,36.4,20.4,56.5,26.3c19.6,5.8,39.4,10.8,59.3,15.3c-4.1-18.9-18.5-33.9-34.3-45c-15.8-11.1-33.6-19.2-49.1-30.6
				c-22.1-16.2-36.5-38.8-51.3-61.5C279.3,918.1,275.4,880.4,259.8,863.7z"/>
			<path class="st6" d="M185.1,839c-2.1,12.7-2.1,25.8,0,38.5c10.9,5.5,24.8,5.5,34.9-1.3c10.1-6.8,15.1-21,10.2-32.1
				s-20.2-16.8-30.5-10.3"/>
		</g>
		<g>
			<path class="st1" d="M1112.5,423.2c0,0,58.7,137.2-114,126.7c-14.5-0.5,20.5-24.3,20.5-24.3s57.5-25.7,16.3-90
				S1112.5,423.2,1112.5,423.2z"/>
			<path class="st7" d="M1068.1,504.2c4-3.9,7.9-8.1,9.6-13.4c1.5-4.7,1.1-9.7,1.9-14.5c1.9-12.1,10.8-21.9,14.7-33.5
				c3.1-9.3,2.8-18.8-0.4-26.8c-31.5-11.5-89.1-28-58.5,19.9c41.2,64.3-16.3,90-16.3,90s-33.2,22.5-21.6,24.2
				C1023.7,539.5,1047.9,523.9,1068.1,504.2z"/>
			<path class="st3" d="M969.3,458l-43.1-51.4c-9-10.7-7.6-26.8,3.1-35.8l17.4-14.6c10.7-9,26.8-7.6,35.8,3.1l43.1,51.4
				c9,10.7,7.6,26.8-3.1,35.8l-17.4,14.6C994.4,470.1,978.3,468.7,969.3,458z"/>
			<path class="st2" d="M1402.4,48.5c0,0,4.9,334.9-375.5,404.2L938.3,347C938.3,347,1049.3,20.7,1402.4,48.5z"/>
			<circle class="st6" cx="1174" cy="237.4" r="80.1"/>
			<path class="st3" d="M1225.5,298.7c0.5-0.4,1-0.9,1.5-1.4c23.6-29.2,24.1-71.9-1-101.8c-28.4-33.9-78.9-38.3-112.8-9.8
				c-0.5,0.4-1,0.9-1.5,1.4c-23.6,29.2-24.1,71.9,1,101.8C1141.1,322.7,1191.6,327.1,1225.5,298.7z"/>
			<path class="st1" d="M1402.4,48.5c-69.2-5.4-129.2,2.7-180.8,19.4c23.5,14.6,51.2,35.8,77.3,66c28.1,32.4,45.9,65.4,57.2,92.9
				C1403.7,133.5,1402.4,48.5,1402.4,48.5z"/>
			<circle class="st1" cx="1176.2" cy="238.4" r="53"/>
			<path class="st2" d="M1198.8,210.9c-12.6-15-31.7-21.2-49.6-18.1c-2.4,1.4-4.8,3.1-7.1,5c-22.4,18.8-25.3,52.3-6.5,74.7
				c12.6,15,31.7,21.2,49.6,18.1c2.4-1.5,4.8-3.1,7.1-5C1214.7,266.8,1217.7,233.3,1198.8,210.9z"/>
			<path class="st6" d="M1138.4,201.2c-6.8,6.9-11.4,15.3-13.6,24.3l86.4,18.3c-0.2-10.1-3.3-20.1-9.3-28.9L1138.4,201.2z"/>
			<path class="st6" d="M1123.2,238.3c0,5,0.7,10,2.1,14.9l78.5,18.8c2.6-4.4,4.6-9.2,5.8-14L1123.2,238.3z"/>
			<path class="st7" d="M938.3,347l74.1,88.2C992.9,163.5,1290.2,71,1390.6,47.7C1046.8,28.1,938.3,347,938.3,347z"/>
			<path class="st7" d="M1256.1,92.4c53.5-23.7,103.4-37.5,134.4-44.8c-64.3-3.7-120.3,4.5-168.9,20.2
				C1232.4,74.6,1244.1,82.7,1256.1,92.4z"/>
			<path class="st1" d="M981.7,267.5c0,0-125-81.6-144.6,90.3c-2,14.4,27.5-16,27.5-16s35.3-52.2,91.4-0.5
				C1012.2,393,981.7,267.5,981.7,267.5z"/>
			
				<ellipse transform="matrix(0.7659 -0.643 0.643 0.7659 -33.4805 721.8756)" class="st1" cx="974.5" cy="406.9" rx="83.3" ry="20"/>
			<path class="st7" d="M996.8,311.3c0.1-0.5,0.7-2.6,1-5.5c0.4-3.5,0.4-6.5,0.3-8.7c-4.1-3.4-10.8-10.1-14.4-20.6
				c-1.1-3.3-1.7-6.3-2-9c0,0-6.9-4.5-17.6-9.1c-3.7,4.8-7.2,10.5-10.2,13.1c-7.7,6.7-15.6,13.5-25.2,17.1
				c-5.9,2.2-12.2,3.1-18.3,4.8c-15.8,4.4-29.8,14.4-40.8,26.6c-10.8,11.9-19,25.8-26.2,40.1c8.2-4.7,21.3-18.3,21.3-18.3
				c1.9-2.8,14.2-20,37.3-23c1.5-0.2,27.1-3.1,45.3,15.9c7.2,7.5,10.5,15.5,12,20.5c18.4,9.4,26.1,8.1,29.8,5.2
				C998.4,352.5,994.1,322.6,996.8,311.3z"/>
			<path class="st6" d="M1007.3,384.2c1.2-0.2,2.5-0.1,3.4,0.5c1.4,1,1.7,3.1,1.1,4.8s-1.8,3-3.1,4.2c-8.2,8.4-16.6,16.7-25.2,24.8
				c-3.8,3.7-7.8,7.3-12.5,9.8c-1.3,0.7-3,1.3-4.2,0.5c-1.7-1-1.3-3.9,0.2-5.2c1.5-1.3,3.6-1.6,5.6-2.1c7.1-1.8,13.1-6.7,17.6-12.4
				c3.6-4.6,7.2-10.2,9.3-15.7C1001.2,389.1,1001.7,385.2,1007.3,384.2z"/>
			
				<ellipse transform="matrix(0.7659 -0.643 0.643 0.7659 -46.5446 714.6521)" class="st6" cx="958.1" cy="421.2" rx="3.4" ry="3.2"/>
			<path class="st6" d="M996.3,458.9c-6,2.6-13.3,3-18.8-0.6c-2.6-1.7-4.6-4.2-6.3-6.8c-0.4-0.6-0.8-1.3-0.9-2.1
				c-0.2-1.9,2.1-3.3,4-3c7.5,1,12.2,8.5,20.9,5.8c6-1.9,9.7-8.8,16.9-6.2C1009.1,451.3,1001.9,456.4,996.3,458.9z"/>
		</g>
		<g>
			<path class="st3" d="M1172.6,533.9l26.3,1.8l-105.8,107.8l36.6,18.1l23.4,13.7l23.2,27.3l25.7,45l6.1,31.3c0,0,4.5,13.2,0.5,19.9
				l27.8-12.6l34.5-3.7l38.3,15.5l37.7,17.9l28.7,17l19.2,14l67.2-123.6l4.8,18.9l-16.9,31.2l-28.8,56.9l-35.5,61.8l-80.6-72.8
				l-61.9-15.7c-9-1.3-20.2-1.9-32.6,0.2c-3,0.5-5.8,1.1-8.5,1.8c-0.3-2.3-1-6-2.4-10.4c-3.2-10-8.1-16.7-10.7-20.3
				c-7.3-9.8-28.6-37.3-58.3-73.7l-62.3-37.6l-15.6-5L1172.6,533.9z"/>
			<path class="st2" d="M1445.8,666.5l18.7,28.5l-32.5,67l-38.2,65.9l-21.7,2.6l-42.7-23.9l-43.4-16.7l-26.4-2.8l-20.7,1.5l-8.5,1.9
				c-3.6,1.1-7.2,2.2-10.9,3.4c-3,1-6,2-8.9,2.9c2.5-2.6,6.2-6.2,11.1-9.9c6.8-5.1,13.3-8.5,20-11.4c0,0,13.4-5.8,49.4-14.2l0,0
				l30,3.4l56.8,23.7l19-43.4L1445.8,666.5z"/>
			<path class="st6" d="M1215.1,529.9l60,43.3l16.6,33.4l6.4,23.9c1.7,4.7,3.5,11.5,3.3,19.7c-0.1,3.1-0.4,5.9-0.9,8.4
				c2.8-1.8,5.9-3.7,9.2-5.6c4.2-2.3,8.2-4.1,11.9-5.7c7.6-3.3,15.3-6.6,22.9-9.8l28.7,1.2l31.6,3.5l29.9,9.6l10.5,10.4l-16.4,35.6
				l-19.5,34.2l-17.3,39.1l-12.3,14l-54.4-16.2l-39.2-5.8l-31.5,6.9l-12,5.1c-6.1,4.7-11.4,7.5-15.1,9.3c-3.2,1.5-7.5,3.3-12.5,7.2
				c-1.9,1.5-3.4,3-4.4,4c0.1-1.7,0.1-4.1-0.5-7c-1-4.3-2.9-7.2-3.3-7.8c-2.4-3.7-5.2-16.2-8.1-49.7l-44.4-60.7l-40.1-18.5l6.2-27.1
				C1151.9,593.4,1183.5,561.7,1215.1,529.9z"/>
			<path class="st7" d="M1458.1,682.8l19.6,15.6l-83.5,159.1c-25.4-21.9-49.1-35.8-66-44.3c-24.8-12.5-44.3-22.2-71.6-22.8
				c-20.7-0.5-37.4,4.3-47.9,8.3c14.7-6.6,40.9-16.3,74.4-15.2c29.2,1,64.5,9.9,101.4,36.7L1458.1,682.8z"/>
			<path class="st7" d="M1465.7,733.3l5.3,9.1l-88.3,168.4c-10-16.3-25.9-37.4-50-56.7c-51.3-41-107.2-47.4-130.8-48.7
				c14.8-4.2,33.1-7.3,53.9-6c76.6,4.7,124.5,64.7,134.8,78.3L1465.7,733.3z"/>
			<path class="st7" d="M1166.2,530.8l14.7,2.2l-112.5,119.7c16.6,4.7,38.7,13.3,60.8,29.9c55.7,42,69.4,103.8,72.9,122.7
				c-6.9-17.8-18.3-40.8-37.7-63.3c-47.4-55.1-109.6-69.8-132.9-74L1166.2,530.8z"/>
			<path class="st8" d="M1220.4,563.6c11.2-0.4,22.1,7.3,25.6,17.9"/>
			<path class="st8" d="M1255.2,592.2c13.6,8.9,23.6,23,27.6,38.8"/>
			<path class="st8" d="M1211.5,571.8c5.5,2.9,10.1,7.4,13.1,12.8"/>
			<path class="st8" d="M1193.6,588.8c3.8,1.9,7.4,4.4,10.6,7.2"/>
			<path class="st8" d="M1226.9,594.4c4.6,4.5,8.4,9.7,11.3,15.4"/>
			<path class="st8" d="M1253.6,619.7c5.4,4.9,9.1,11.5,10.7,18.6"/>
			<path class="st8" d="M1208.3,603.3c11.5,6.1,21.4,15.1,28.6,25.9"/>
			<path class="st8" d="M1179.8,602.6c10.2,4,18.9,11.6,24.3,21.1"/>
			<path class="st8" d="M1168.3,617c8.1-0.6,15.8,4.3,20.8,10.7c5,6.4,7.7,14.2,10.3,21.9"/>
			<path class="st8" d="M1213.9,627c7.4,3.5,13.4,10.1,16.2,17.8"/>
			<path class="st8" d="M1243.1,635c5.5,5.4,10.5,11.3,14.9,17.6"/>
			<path class="st8" d="M1277.2,638.3c4.9,4.5,8.4,10.5,9.9,16.9"/>
			<path class="st8" d="M1160.4,632c10.3,0.9,20,7,25.3,15.9"/>
			<path class="st8" d="M1210.7,647.1c8.5,5.4,15.5,13.1,20.1,22"/>
			<path class="st8" d="M1243.1,662c9.7,4.3,17.5,12.6,21.2,22.5"/>
			<path class="st8" d="M1188,666.7c19.1,2.7,36.2,16.8,42.4,35"/>
			<path class="st8" d="M1196.1,691.8c6.7,9.7,12.9,19.8,18.6,30.1"/>
			<path class="st8" d="M1153,647.3c10.7,2.4,20,10.1,24.3,20.2"/>
			<path class="st8" d="M1309,662.3c2.7-3.2,7.5-4.2,11.3-2.5"/>
			<path class="st8" d="M1327.6,656.2c3.8-2.1,8.7-2.1,12.5,0"/>
			<path class="st8" d="M1353.1,655.7c5.1-2.4,11.1-2.5,16.6-1.2s10.6,3.8,15.6,6.5"/>
			<path class="st8" d="M1394.9,659.3c6.9,1,13.6,3.8,19.1,8.2"/>
			<path class="st8" d="M1311.8,672.4c4.9-1.2,10.3-0.3,14.6,2.4"/>
			<path class="st8" d="M1331.6,667.5c3.9-3.2,10.1-2.9,13.7,0.5"/>
			<path class="st8" d="M1355.1,666.2c6.7-1,13.9,1,19.1,5.3"/>
			<path class="st8" d="M1383.6,670.4c5.5-0.1,10.9,2,15.1,5.6"/>
			<path class="st8" d="M1309.3,687.3c16.8-5.5,35.4-5.4,52.1,0.4"/>
			<path class="st8" d="M1376.7,686.6c7-0.2,14.1,1.4,20.3,4.7"/>
			<path class="st8" d="M1309.2,695.7c4.9-1.6,10.2-1.5,15.3-0.5c5.1,1,9.9,2.8,14.8,4.5"/>
			<path class="st8" d="M1352.3,697.9c8.2,0,16.3,2.4,23.1,6.8"/>
			<path class="st8" d="M1384.8,702.1c4.6,0.4,8.9,2.8,11.8,6.4"/>
			<path class="st8" d="M1292.5,716.7c1.1-2.6,3.5-4.5,6.2-5.5s5.5-1.3,8.4-1.2c6.8,0.2,13.6,2.1,19.5,5.6"/>
			<path class="st8" d="M1336,717.3c3.5-2.1,7.8-2.9,11.8-2s7.6,3.3,9.9,6.7"/>
			<path class="st8" d="M1367,717.2c5.9-1.7,12.8,1.4,15.4,7"/>
			<path class="st8" d="M1277.9,732.7c4.5-2.7,10-3.7,15.3-3.6s10.5,1.2,15.7,2.2"/>
			<path class="st8" d="M1275.1,750c18.8-7.8,40.8-7.6,59.5,0.6"/>
			<path class="st8" d="M1323.2,730.2c6-2,13.1,0.1,17,5"/>
			<path class="st8" d="M1350.3,731.6c6.2-1.3,13,0.8,17.4,5.3"/>
			<path class="st8" d="M1351.5,747.5c5.7-1.4,11.9-0.6,17.1,2.3"/>
			<path class="st8" d="M1371,730.5c4.2,0.2,8.3,2.2,11.1,5.4"/>
			<path class="st8" d="M1267.9,658.7c4.4-0.4,8.9,2.2,10.6,6.3"/>
			<path class="st8" d="M1241.9,691.5c4,1.6,7.1,5.1,8.3,9.2"/>
			<path class="st8" d="M1228.1,717.1c3.6,1.5,6.4,4.6,7.5,8.3"/>
			<path class="st8" d="M1215.2,736.5c4.2,1,7.9,4.1,9.8,8"/>
			<path class="st8" d="M1210.7,753.3c3.2-0.4,6.6,1.4,8.1,4.3"/>
			<path class="st8" d="M1305.2,680.9c-3.9-0.7-8.1-0.3-11.8,1.2"/>
			<path class="st8" d="M1300.7,696.4c-3.4-1.4-7.4-1.6-10.9-0.6"/>
			<path class="st1" d="M1300.5,658.6c0.5-2.5,0.8-5.3,0.9-8.4c0.1-2,0-4-0.2-5.8L1208.8,785c0.2,1.6,0.4,3.4,0.4,5.4
				c0.1,3.1-0.2,5.9-0.5,8.3c2.3-3.4,4.6-5.6,6.2-6.9c1.2-1,2.4-1.8,2.9-2.1c1.9-1.3,3.7-2.3,5.4-3.1L1308,654
				C1305.3,655.6,1302.8,657.1,1300.5,658.6z"/>
			<path class="st7" d="M1309.4,653.5c0,0,50.9-54.2,153.2,0L1385,804.2c-11.4-8.3-29.9-19.7-54.8-27c-12.1-3.5-29.6-8.5-52.1-6.9
				c-30.8,2.2-53.8,15.5-66.4,24.3c9.7-9.6,23.8-21,42.9-29.3c55.4-24.1,108.9-3.2,122,2.3l55.6-106.8
				C1432.1,660.9,1362.3,629.6,1309.4,653.5z"/>
			<path class="st7" d="M1301.3,649.6c0,0-14.5-84.1-81.3-104.3l-88,96.5c13.3,7.9,34.6,23,51.8,49.2
				c29.9,45.5,26.6,92.7,24.9,107.7c-2.1-16.6-7-38.3-18.8-61.1c-31.7-60.9-89.4-84.7-107.8-91.4l129.8-135.4
				C1211.9,510.8,1304.4,550.9,1301.3,649.6z"/>
		</g>
	</g>
	<g>
		<g>
			<path class="st1" d="M3700.1,318.5c-9,16.3,0.9,36.2,0.8,54.8c-0.1,33.4-34.7,58.7-68.1,59.4c-33.4,0.7-64.3-16.9-91-37
				s-51.4-43.5-81.6-57.5c-14.8-6.8-31.3-11.4-47.3-8.5s-31.3,14.3-34.7,30.2c-4,18.7,8.4,36.7,12.1,55.5c5.9,29.6-9.8,58.6-22.4,86
				c-31,67.6-45.2,142.8-41,217.1c0.5,9.4,0.6,20.5-6.8,26.2c-11,8.5-26.1-2.3-36-12c-54.5-53-126.1-91.7-202.1-93.9
				s-155.1,37.1-188.1,105.6c-18,37.4-18.2,89.2,15.5,113.4c27.9,20,68,12.5,96.7-6.3c6.1-4,12.4-8.7,19.7-8.9
				c11.3-0.3,19.7,9.8,26.3,18.9c13.9,19.2,27.8,38.3,41.7,57.4c22.5,31,46.4,63.2,80.8,80.1c22.2,10.9,47.1,14.5,71,20.6
				c37.3,9.5,72.8,25.1,109.3,37.3c111.6,37.3,233.9,41.9,348,13.1c38-9.6,76.2-23.5,105-50c20.9-19.3,35.7-44.2,48.7-69.4
				c40.3-77.8,67-170.4,36-252.3c-13.4-35.5-36.9-66.4-51.9-101.3c-13.3-30.8-19.8-64.1-26.1-97.1c-9.1-47.1-11.2-105.2-30.1-149.3
				C3773.6,324.8,3722.6,278,3700.1,318.5z"/>
			<path class="st2" d="M4049.6,1019.6c14.8,0.5,33.3-1.1,38.8-14.9c7-17.3-13.3-32.1-28.8-42.6c-13.3-9-25.6-20.9-30.6-36.2
				s-0.7-34.4,13-42.9c16.7-10.3,38.9-1.6,57.9-6.6c20.3-5.2,33.7-25.6,37-46.3c3.3-20.7-1.7-41.7-7.1-61.8
				c-11.2-41.4-26.1-84.5-59.2-111.6c-33.1-27.1-89.8-29.6-114.2,5.5c-3.4-8.9-16.2-10.8-24.4-6s-13,13.7-17.3,22.2
				c1.3-11.5,2.6-22.9,3.9-34.4c-11.3-7.6-27.5-3.8-37.8,5.2s-16.1,21.9-21.6,34.4c-44.9-0.2-89.9,6.8-132.7,20.6
				c-15.1,4.9-30.4,10.9-42,21.8s-18.9,27.7-14.5,43c4.4,15.3,22.9,26.2,37.2,19.1c7.2-3.5,11.9-10.5,17.4-16.3
				c17.6-18.9,45.4-27.5,70.6-22c25.2,5.5,46.8,25.1,54.8,49.6c15.1,46.3-17.2,94.3-52.5,127.8c-97.4,92.3-233.7,142.1-367.7,134.3
				c-102.1-5.9-207-48.5-264.3-133.2c-19.8-29.2-33.3-62.4-55-90.1c-43-55.1-117.9-83.2-186.5-70.1c-9.3,1.8-18.6,4.3-26.2,10
				c-25.9,19.1-15,64.5,13.1,80.3s63.4,9.5,93.4-2.2c6.8-2.7,13.7-5.6,21.1-5.7c8.6-0.1,16.8,3.8,23.9,8.8
				c41.2,28.4,50.6,83.9,72,129.1c27.8,58.4,79.6,103.2,137.9,131.2c58.3,28,123,40.4,187.4,46.2c32.5,2.9,66,4.1,97.1-6
				c9-2.9,18.3-6.8,27.6-5.1c8.2,1.6,14.9,7.3,21.1,12.7c20.9,18.1,49.2,36.9,73.9,24.6c17.5-8.8,27.3-31.4,46.6-34.4
				c20.4-3.2,36.7,17.2,56.7,21.9c31.8,7.5,57.9-24.7,72.9-53.7c12.8,26.9,31.7,53.1,59.6,63.7c27.9,10.6,65.3-0.9,74.2-29.3
				c2.1-6.6,2.6-13.6,5.8-19.7c4.7-9,14.4-14.1,23.2-19.2c22.6-13,44.7-30.9,51.7-56.1s-8.4-57.3-34.4-59"/>
			<path class="st3" d="M3625.8,391c-8.3-7.6-25.7-17.8-36.7-11c-2.8,1.7-5.6,4.1-8.8,3.6c-6.9-1-6.1-11.5-5.9-18.8
				c0.6-21.9-27.4-37.7-44.3-25c0.8-29.1-31.4-53.2-57.2-42.9c-10.4,4.2-19.9,12.8-30.9,11.9c-6.8-0.5-12.8-4.7-19.1-7.4
				c-10.4-4.5-22.7-5.1-32.6,0.6s-16.4,18.2-13.5,29.7c0.8,3.2,2.2,6.6,0.8,9.5c-0.9,2-2.9,3.1-4.7,4.3c-9.8,6.2-18.1,16-20.3,27.9
				c-2.2,11.8,2.6,25.4,12.8,30.9s24.9,0.3,28.2-11.2c2.5-8.6-1.3-17.9,0.3-26.8c2.8-16,20.8-23.3,36.3-23.9
				c6.9-0.3,14.1,0.4,19.8,4.5s8.6,12.9,4.8,18.9c-4.4,6.9-11.8,5.4-21.4,12.9c-9.6,7.5-15.4,20.9-15.3,33.1
				c0.1,12.5,6.5,20.9,18.1,36.2c8.3,10.9,12.4,16.3,19,17.9c12.6,3,27.5-7.1,34.6-18.9c7.1-11.6,3.8-19.9,10.1-23.4
				c8.8-4.8,23.5,6.6,29.7,12.6c7.4,7.1,7.1,11,21.7,28.8c4.3,5.2,4.6,5.4,5.3,7.1c5.2,12.4-11.1,24.5-10.1,38
				c0.8,10.6,12.8,17.2,22.6,15s17.5-10.5,23.1-19.3c3.9-6,5.8-11,6.7-13.2c11.3-28,35.6-30.2,42.1-52.3
				C3646,423.3,3638.3,402.5,3625.8,391z"/>
			<path class="st2" d="M3497.1,450.9c-9.6-5.9-27.8-14.6-52.7-15.7c-13.6-0.6-47.7-2.2-71.2,22.9c-18.9,20.2-20,46-19.9,54.5
				c-15.1-7.1-35.5,7-34.1,23.7c0.9,11.6,8.7,26.8-1.5,32.5c-5.8,3.2-14.1-0.1-19.2,4.2c-6.7,5.7-1.1,18.6-7.8,24.3
				c-2.6,2.3-6.3,2.5-9.7,3.3c-16.8,3.9-27.1,21.5-29.2,38.6c-3,23.9,7.4,49.5,27.3,63s48.7,13.4,67.4-1.8c2.5-2,5-4.5,5.7-7.7
				c2.2-10.2-12.5-14.1-20.4-20.8c-11.1-9.4-8.2-28.7,2.9-38.1c11.1-9.4,27-10.5,41.3-8c9.5,1.7,19.2,5.1,25.9,12.2
				c12.9,13.6,10.4,35.9,2.6,53c-7.8,17.1-20,32.3-24.8,50.4s1.4,41.6,19.4,47.1c6.4,2,13.4,1.3,20.1,0.3
				c22.4-3.3,46.2-11.8,57.7-31.3c-3.7-9.1-16.2-10.5-23.4-17.2c-11.6-10.7-5.6-30.6,5.2-42c17.8-18.8,44.7-25.9,70.5-28.3
				c4.8-0.5,9.8-0.9,13.7-3.7c6.9-5,7.1-15.5,4-23.4c-3.1-7.9-8.8-14.7-11.9-22.6c-14.4-37.3,28.7-63.3,28.4-98.2
				C3562.8,491.3,3520.2,465.1,3497.1,450.9z"/>
			<path class="st2" d="M4062.1,582.6c3.2-14.8-1-26.7-7.9-42.7c-15.1-35-35.3-74.4-72.6-82.1c-4.2-0.9-8.7-1.4-12.1-4
				c-8.1-6.5-3.8-19.5-6.3-29.6c-3.6-15-22.2-22.4-26.6-37.2c-1.5-5.2-1.2-10.9-3.5-15.8c-8.3-17.8-40.3-9.3-50.5-26.1
				c-3.8-6.3-3.1-14.1-3.4-21.4c-0.9-22.1-15.1-45.4-37-48.8c-19.3-3-40,9.7-57.7,1.4c-4.7-2.2-8.8-5.8-13.7-7.7
				c-19.1-7.2-37.9,14.9-58.4,13.9c-4.9-0.2-9.6-1.8-14.4-1.8c-11.9,0-21.9,9.1-28.5,19.1c-7.8,11.9-12.4,27.3-6.8,40.4
				c5.6,13.1,24.4,20.2,34.8,10.5c9.6-8.9,8.6-27.2,20.7-32.3c-0.8,1.7-5.1,10.8-1.2,20.8c1.9,4.9,5.1,8,7.1,9.6
				c0.6,0.5,8.1,7,17.9,4.5c9.1-2.3,12.7-10.3,13.1-11.2c-4.4,11.8-9.1,28.6-10.5,49c-1.6,23.4,1.7,42.8,5,55.9
				c-16.5-27.1-54-39-83.1-26.4c-7.5,3.3-15.4,11.1-11.8,18.5c-16.5-10.2-38.4-13.3-55.5-4.1c-17.1,9.2-26.6,32.4-17.4,49.5
				c2.1,3.9,5.1,7.6,5.3,12c0.4,7.9-7.7,13.2-14.4,17.5c-25.4,16.6-42,45.9-43.3,76.2c-0.7,15.7,2.9,32.2,13.4,43.8
				s28.9,16.8,42.6,9c-17.1-11.6-18.8-37.9-8.1-55.6c13.2-21.7,35.2-30.7,49.8-34.9c8.5-2.4,24.1-6.8,43.1-2.1
				c26.3,6.6,52.6,29,54.8,53.9c1.4,15.3-7.4,19.6-3.9,36.5c0.6,2.9,5,22.5,21.2,31.7c17.6,10.1,38.6,1.9,40.4,7.7
				c1.4,4.4-10,9.5-8.7,13.5c2.2,6.7,38.6,0.1,38.6,0.1c43.7-7.9,76.5-13.9,103.3-20.8c16.6-4.3,29.6-8.3,42.4-13.8
				c7.9-3.4,8.7-4.3,25-12.6c41.3-21,45.5-20.2,56.1-29.9C4046.5,610.7,4058.5,599.8,4062.1,582.6z"/>
			<path class="st4" d="M3729.6,370.5c-1.8,14.5-8.3,28.3-18.3,38.9"/>
			<path class="st4" d="M3624.5,559.7c24.9-7.9,51.8,4,72.7,19.6c11.6,8.7,23.3,21.2,21.3,35.6"/>
			<path class="st4" d="M3674.9,597.2c-12.7-22.6-40.3-35.8-65.9-31.5C3641.8,559.2,3661.8,566.5,3674.9,597.2z"/>
			<path class="st4" d="M3595.6,591.3c34.1-4.8,70.3,16.4,82.6,48.6"/>
			<path class="st4" d="M3597.3,606.2c28-1.9,56.6,8.8,76.5,28.6c19.9,19.8,30.6,48.4,28.8,76.4"/>
			<path class="st4" d="M3591.9,625.3c18.7-6.5,29.1,8.4,40.6,21.9"/>
			<path class="st4" d="M3660.6,686.2c7.9,9.6,14.1,20.5,18.4,32.2"/>
			<path class="st4" d="M3599.9,636.8c35.9,26.6,61.4,67.8,66.4,112.2c5,44.4-11.5,91.4-45.1,120.9"/>
			<path class="st4" d="M3562.3,646.9c16,4,32.4,8.1,46.1,17.3s24.3,24.8,23.1,41.3"/>
			<path class="st4" d="M3549.1,654.1c21.3,5.2,38.9,20.8,50.4,39.5c11.4,18.7,17.3,40.2,21.2,61.8c3.1,16.9,5.1,34.4,1.2,51.1
				s-14.6,32.7-30.6,38.8"/>
			<path class="st4" d="M3551.2,676.4c17,4.6,31.5,17.7,37.9,34.1c6.4,16.4,4.4,35.8-5,50.7"/>
			<path class="st4" d="M3520.5,684.1c15.4,15.5,29.5,32.9,37.3,53.3s8.6,44.3-1.7,63.5c-6.4,12.1-16.7,21.7-24.9,32.6"/>
			<path class="st4" d="M3491,692.6c18.6,12,39.2,27.3,40.3,49.5"/>
			<path class="st4" d="M3472,723.1c10.2,2.8,20.8,6,28.6,13.1c7.9,7.1,12.1,19.3,7.1,28.7"/>
			<path class="st4" d="M3360.5,628.8c16.9,10.1,28.8,28.1,31.6,47.5"/>
			<path class="st4" d="M3350.9,644.2c17,9.9,28.9,28.1,31.2,47.6"/>
			<path class="st4" d="M3764.2,759.3c8.1,24,11.1,49.7,8.7,74.9"/>
			<path class="st4" d="M3785,739.3c29,68.5,9.7,152.4-40.4,207.3s-127.1,81.6-201.4,78.4"/>
			<path class="st4" d="M3812.4,766.9c9.4,20.2,18.4,41.1,20.3,63.3s-4.2,46.1-20.8,61"/>
			<path class="st4" d="M3722.3,765c15.2,26.6,10.3,63.1-11.3,84.8"/>
			<path class="st4" d="M3698.4,784c-6.2,37-30.8,70.3-64.3,87.1"/>
			<path class="st4" d="M3492.3,855.3c-55.7,13.6-115.2,1.3-167.1-23c-51.9-24.3-97.6-59.9-142.7-95.2"/>
			<path class="st4" d="M3331.9,653.5c29.9,12.3,51.5,42.7,53.2,75c0.5,10-0.8,20.4-5.9,29c-8.3,14-25,20.8-41,23.3
				c-27,4.2-55.4-1.3-78.8-15.3c-19.4-11.6-34.9-28.4-52.8-42.2c-38.6-29.8-87.5-44.8-136.2-46c-48.7-1.2-97.2,10.8-141.7,30.6
				c16.3-34.5,57.6-39.4,95.6-43.2c43-4.3,87.3-7.8,128.9,4c48.2,13.6,88.4,46.3,126.7,78.8c14.7,12.5,34,25.8,51.6,18
				c9.4-4.2,15.7-14.4,15.2-24.7s-7.8-19.8-17.5-23.1"/>
			<path class="st4" d="M2893.9,746.3c20.4-16.6,50-13.2,75.7-7.7c44.3,9.4,88.6,22.9,125.6,49c23.6,16.6,43.4,37.9,63.1,59
				c20,21.5,39.9,42.9,59.9,64.3c25.3,27.2,51.2,54.8,83.4,73.2c23.8,13.6,50.4,21.7,77.1,28c85.1,19.9,177.9,20.6,256.7-17.3"/>
			<path class="st4" d="M3437.6,996.3c40.5,8.5,83.8,3.5,121.3-14"/>
			<path class="st4" d="M3636.4,882.5c-26.4,35.5-70.7,51.9-112.4,66.5"/>
			<path class="st4" d="M3001.3,710.9c42.3-11.4,87.7,2.7,125.8,24.5c38,21.8,71.2,51.2,108.6,74c109.6,66.9,250.2,72.6,371.5,30.5"
				/>
			<path class="st4" d="M2969.7,720.9c43.3-1,86.3,12.6,123.2,35.2s68,54,93.4,89.1"/>
			<path class="st4" d="M3216.5,861.1c12.7,18,26.5,35.7,44.4,48.5c14.1,10,30.2,16.7,46.2,23.3c25.6,10.6,51.3,21.1,76.9,31.7"/>
			<path class="st4" d="M3245.7,858.7c52.8,38.8,115.5,63.8,180.4,71.9"/>
			<path class="st4" d="M3683.7,924.4c-9.8,11.6-23.4,20-38.2,23.6"/>
			<path class="st4" d="M3731.9,891.8c-7.9,12.4-16.8,24-26.7,34.8"/>
			<path class="st4" d="M3724.2,853.3c-8.4,15.8-20.2,29.7-34.4,40.6"/>
			<path class="st4" d="M3199.2,928.4c27.6,33.1,61.9,60.7,100.1,80.6"/>
			<path class="st4" d="M3591.6,1148c16.3-1.6,32.7-3.1,49-4.7c27.1-2.6,57.3-6.8,74.3-28.1"/>
			<path class="st5" d="M3637.6,1180.2c16-7.3,30.6-17.5,43-30"/>
			<path class="st4" d="M3606.9,1147.6c21.2-7.8,40.8-19.6,57.5-34.7"/>
			<path class="st4" d="M2895.9,810.1c18.6-35.3,67.6-45.7,104.9-31.3c37.2,14.4,64.1,47.3,84.5,81.6
				c20.4,34.3,36.1,71.6,60.5,103.2c34,44.2,83.2,75,135.4,94.9c52.2,19.8,107.6,29.4,162.8,37.4c40.2,5.8,81.2,10.9,121.4,5.1
				c40.2-5.7,80.3-23.4,105-55.7"/>
			<path class="st4" d="M2920.5,828.4c3.9-15.6,18.2-27.2,33.8-31s32.2-0.9,47.2,4.7c52.4,19.7,87.1,69.2,113.5,118.5
				c26.4,49.3,49,102.5,89.8,140.7c35.9,33.6,83.2,52.6,131.1,63.4s97.2,14,145.9,20"/>
			<path class="st4" d="M2937.7,847.2c19.6,5.5,38.9-10.1,59.1-10.9c13.5-0.5,27.1,6,35.1,16.9"/>
			<path class="st4" d="M3100.3,838.6c31.7,31.5,41.3,80.5,74,110.9"/>
			<path class="st4" d="M3598.9,1050.9c-30.5,21-68.7,30.5-105.4,26.3"/>
			<path class="st4" d="M3831.2,1105.7c58.2-3.8,112.2-44.8,131.7-99.7"/>
			<path class="st4" d="M3770.4,1115.7c36.6-8.4,66.5-40.5,72.3-77.6"/>
			<path class="st4" d="M3952.3,1124.7c12.6-17.3,25.1-34.6,37.6-51.8"/>
			<path class="st4" d="M4003.9,1023.5c8.8-17.8,13-37.8,12-57.6"/>
			<path class="st4" d="M3977.9,991.8c5.9-21.5,7.1-44.3,3.5-66.3"/>
			<path class="st4" d="M3911.4,1005.8c18.8-16.3,29.9-40.9,29.8-65.8"/>
			<path class="st4" d="M4104.8,841.8c7.7-34.2-2.3-71.9-26-97.6"/>
			<path class="st4" d="M4070.1,844.7c8.6-34.6-0.2-73.1-23-100.6"/>
			<path class="st4" d="M4018,859.9c14.9-4.5,27.4-16.4,32.5-31.1s2.8-31.8-6.1-44.5"/>
			<path class="st4" d="M3998,885c9-25.8,13.2-53.3,12.1-80.7"/>
			<path class="st4" d="M3931.7,905c19.8-25.9,33-56.9,38-89.1"/>
			<path class="st4" d="M3849.8,987.6c21.7-25.8,43.9-52.4,54.2-84.4c13.6-42.3,4.9-88.6-9.8-130.5"/>
			<path class="st4" d="M3951.2,796.2c17.8-70.5,8.4-147.5-25.7-211.6s-92.9-114.8-161.3-139.4"/>
			<path class="st4" d="M3909.4,752.6c10.6-32.8,8.9-69.4-4.8-101.1c-13.7-31.7-39.2-58-70.3-72.8"/>
			<path class="st4" d="M3807.2,528.3c-11.1-14-22.7-28.4-38.8-36.2c-16.1-7.7-38-6.5-48.9,7.6"/>
			<path class="st4" d="M3858.6,735.9c-6.2-13.6-12.9-27.7-24.6-36.9c-11.7-9.2-30.2-11.7-41-1.4"/>
			<path class="st4" d="M4054.9,704.3c-4.6-11.2-9.4-22.8-18.1-31.2s-22.4-13-33.2-7.6"/>
			<path class="st4" d="M3977.6,482.3c-7.1-9.3-14.6-18.9-25.3-23.8c-10.6-4.9-25.3-3.1-31.2,7"/>
			<path class="st4" d="M3912.9,418.4c0.6-17-6.8-34.9-21.4-43.6c-14.6-8.7-36.3-5.2-44.9,9.4"/>
			<path class="st4" d="M3818,334.2c-1.3-13.1-9.7-25.2-21.5-31.1c-11.8-5.8-26.6-5.1-37.7,1.8"/>
			<path class="st4" d="M4006.6,614c-9.4-45.8-39.4-87.1-80.1-110"/>
			<path class="st4" d="M3867.7,453c-7.6-13.2-15.4-26.6-26.8-36.8s-26.9-16.9-41.9-13.8"/>
			<path class="st4" d="M4037.3,550.9c-5-17.4-20.7-31.3-38.6-34.1"/>
			<path class="st4" d="M3706,482.8c-9.7-9.4-20.2-19.1-33.3-22c-13.2-2.9-29.5,4.5-31.2,17.9"/>
			<path class="st4" d="M3829.7,637.7c-3.3-16.9-10.1-34.4-24.5-43.8c-14.4-9.4-37.7-6-43.9,10.1"/>
			<path class="st4" d="M3653.8,514.3c-16.3-15.3-45.6-13.2-59.5,4.3"/>
			<path class="st4" d="M3593.8,415.6c-10.9-9.5-25.3-14.9-39.7-14.9"/>
			<path class="st4" d="M3576.9,544.9c-10.8-17-30.8-27.9-50.9-27.6c-20.2,0.2-39.9,11.6-50.3,28.9"/>
			<path class="st4" d="M3472.2,489c-9.9-15.2-31-19.8-48.6-15.2c-17.5,4.6-32.2,16.4-45.6,28.5"/>
			<path class="st4" d="M3530.3,617.7c-12.1-13.3-26.5-25.2-43.7-30.3s-37.5-2.4-50.2,10.3"/>
			<path class="st4" d="M3423.8,557c-23.8-12.6-55.4-8.2-74.8,10.5"/>
			<path class="st4" d="M3480.7,652.9c-14.2-12.2-37.5-11.8-51.3,0.8"/>
			<path class="st4" d="M3342.8,595.4c-23.8-9.9-54.3,1.2-66.3,24"/>
			<path class="st4" d="M3738.6,1025.9c39.6-7.7,72.3-43.1,76.8-83.2"/>
			<path class="st4" d="M3537.8,369.3c-7-23.3-36.6-36.8-58.8-26.7"/>
			<path class="st4" d="M3504.2,410.3c-14.4-9.3-33.7-10.5-49.1-3"/>
			<path class="st4" d="M3461.8,313.9c-14.4,1-28.9,1.9-43.3,2.9"/>
			<path class="st4" d="M3586.5,455.6c-3.9-26.4-32.3-46.4-58.4-41.2"/>
			<path class="st6" d="M3778.5,477.4c8.2,4.4,16.6,9,22.5,16.2s8.6,17.8,4.2,26c-4.8,8.7-16.4,11.9-26,9.2
				c-9.6-2.7-17.2-9.9-23.2-17.8c-4.9-6.5-9.1-14.1-9.4-22.3s4.3-17,12.2-19.3c10.3-3,20.3,5.7,26.1,14.8"/>
			<path class="st6" d="M3937.1,646.4c-19.7-10.2-42.1-14.2-64.2-15.6c-18.5-1.2-38-0.4-54.3,8.6c-6.3,3.5-12.3,8.6-14.1,15.5
				c-3.3,12.7,9.1,24.9,22,27.4s26-1.3,39.1-2.9c26.2-3.2,53.5,3.3,75.6,17.8C4007.4,740.6,3976.6,666.9,3937.1,646.4z"/>
			<path class="st6" d="M3800.9,411.7c-6.8,1.8-13.8,4.6-18.2,10.2c-4.4,5.6-5,14.6,0.4,19.2c34.5-5.4,70.4-1.2,102.7,12.2
				c5.1,2.1,10.4,4.5,15.9,4.2c33.5-1.7-21-34.8-27.3-37.9C3851.9,408.5,3825.4,405.1,3800.9,411.7z"/>
			<path class="st6" d="M3925.9,538.6c-18.5-3.5-37.5-1.7-56.2,0.4c-9.7,1.1-22.4,6.1-20.6,15.7c0.5,2.5,2,4.7,3.7,6.6
				c14,15.9,37.7,18,58.9,18.9c15.9,0.7,51.9,11,55.7-8.8C3971.1,552.2,3938.1,540.9,3925.9,538.6z"/>
			<path class="st6" d="M3522.4,377.3c-13.1,1.2-26.2,2.5-39.3,3.7c-1,3.2-2,6.5-3,9.7c31.5,6.4,63.5,9.6,95.6,9.9
				c-14.3-13.8-33.6-22.3-53.4-23.6"/>
			<path class="st6" d="M3444.7,590.5c11.3,7.1,22.6,14.2,33.9,21.3c-5.3,7.6-15.2,12.1-24.1,9.6c-8.9-2.4-15.4-12.4-12.8-21.3
				c2.6-8.9,14.9-13.6,22.1-7.9"/>
			<path class="st6" d="M3484,533.7c-12.6-17.3-35.1-26.9-56.4-24c-11,1.5-23.7,10.1-20.7,20.9c1.6,5.7,7,9.3,12.4,11.7
				c18.1,8.5,39.5,9.6,58.5,3.3c4.7-1.6,9.6-3.9,11.9-8.3s0.1-11.2-4.8-11.7"/>
			<path class="st6" d="M3807.9,299.5c11.2,7.8,21.6,17,30.6,27.2c-7.5,8.9-20.9,10.9-32.2,7.8s-20.9-10.2-30.2-17.1
				c0.2-13.1,16.7-22.9,28.3-16.8"/>
			<path class="st6" d="M3645.6,651.3c9-2.2,17.9-4.4,26.9-6.6c9.2,3.8,12,14.3,7.4,21.8s-14.8,12-25.1,13.1
				c-13.4,1.4-29.8-4.5-30.8-15.4c-0.6-6.7,5.2-13.1,12.8-15.9s16.6-2.3,24.4,0"/>
			<path class="st6" d="M3912,863.7c13.3,14.7,9.7,37.7,4.2,56.7c-5.8,20.2-12.8,40-20.9,59.3c-8.5,20.4-18.8,40.8-35.6,55.2
				c-15.9,13.6-36.4,20.4-56.4,26.3c-19.6,5.8-39.4,10.8-59.3,15.3c4.1-18.9,18.4-33.9,34.3-45c15.8-11.1,33.6-19.2,49.1-30.6
				c22.1-16.2,36.6-38.8,51.3-61.5C3892.6,918.1,3896.5,880.4,3912,863.7z"/>
			<path class="st6" d="M3986.7,839c2.1,12.7,2.1,25.8,0,38.5c-10.9,5.5-24.8,5.5-34.9-1.3c-10.1-6.8-15.1-21-10.2-32.1
				s20.2-16.8,30.5-10.3"/>
		</g>
		<g>
			<path class="st9" d="M2425.1,171.5"/>
			<path class="st9" d="M2540.9,245.9c0,0-11-35.7,3.2-47c0,0-39.2-15.1-16.5-60c0,0-22.7,21.7,29.3,40.1c5.2,3.8,12.8,6.1,24.1,7.6
				c11.3,1.4,25.5-8,25.5-8s23.1-17.9,34.9-9.4s26,26,26,26c18.7,0.4,26.1,5.7,29.3,10.9c2.7,4.3,2.4,8.5,6.6,17.5
				c2.9,6.1,6.1,10.7,8.5,13.7c0,0,10.4,10.9,15.6,26.4c5.2,15.6,11.8,17.5,11.8,17.5s6.1,1.4,8,19.8c1.9,18.4,27.9,31.6,27.9,31.6
				s-24.6,5.7-34.5-12.8c0,0,0.5,29.8,41.1,25c0,0-17.9,16.5-30.2,14.6c0.7,2.8,2.1,6.4,4.9,9.8c9.1,10.8,24.7,8.9,26.3,8.7
				c-14.3,1.8-27.5,2-39.7,1.1C2634.3,371.3,2562.9,277.5,2540.9,245.9z"/>
			<path class="st2" d="M2550.1,199.9c-0.7,3-1.4,6-2.1,9c2.5-4,5.8-7.6,9.6-10.4c-1.1,3.1-2.1,6.2-3.2,9.3
				c3.3-3.9,6.5-7.8,9.8-11.7c-0.5,2.7-0.9,5.5-1.4,8.2c3-3.4,6.5-6.5,10.3-8.9c-1.2,2.9-2.4,5.9-3.6,8.9c3.6-3.5,7.2-7,10.8-10.5
				c-0.8,2-1.5,4-2.3,6c3.3-3.5,6.9-6.6,10.9-9.3c-1,2.1-1.9,4.3-2.9,6.4c2.9-3.1,6.3-5.7,10.1-7.7c-0.6,2.1-1.1,4.1-1.7,6.2
				c4.3-2.7,8.2-5.8,11.9-9.2c-0.9,2.5-1.8,5-2.7,7.5c3.1-2.6,6.2-5.1,9.3-7.7c-0.3,2.2-0.5,4.3-0.8,6.5c4.2-2.4,8.1-5.2,11.8-8.3
				c-0.5,2.3-1,4.6-1.5,7c3.3-1.7,6.5-3.4,9.8-5.1c0.2,2.1,0.1,4.2-0.3,6.2c2-0.7,4-1.6,5.7-2.8c-0.5,1.5-0.6,3.2-0.4,4.8
				c2.9-0.4,5.8-1.4,8.5-2.8c-0.2,1.5-0.1,3.1,0.4,4.6c1.8-0.7,3.4-1.7,4.8-3c0.3,2.2,0.6,4.5,0.9,6.7c1.1-1,2.3-1.9,3.5-2.9
				c-0.1,1.7-0.2,3.3-0.2,5c2-1.2,3.7-2.7,5.3-4.4c0.3,1,0.6,2,0.8,3c2.2-0.9,4.2-2.1,5.9-3.7c-0.7,2.2-1.4,4.3-2.1,6.5
				c2.1-1.9,4.2-3.8,6.2-5.6c-0.1,1.8-0.2,3.6-0.3,5.3c1.6-1.7,3.2-3.3,4.9-5c-0.2,1.2-0.4,2.4-0.7,3.6c1.7-1.3,3.4-2.6,5.1-4
				c0.6,1.8,0.7,3.7,0.5,5.6c1.7-0.4,3.2-1.2,4.5-2.3c0.2,1.3,0.5,2.5,0.7,3.8c2-1.1,4-2.2,6-3.3c0.4,0.9,0.7,1.8,1.1,2.8
				c1-0.5,2-1,3-1.6c-0.6,3.9-2.6,7.6-5.4,10.5c0.1-1.4,0.3-2.9,0.4-4.3c-3.2,2.6-6.3,5.2-9.5,7.8c-0.5-1.3-1.1-2.6-1.6-3.9
				c-2.9,1-5.6,2.5-7.9,4.4c0.4-1.5,0-3.2-0.9-4.4c-2.6,1.7-5.1,3.3-7.6,5c2-1.7-0.4-5.3-3-5.3s-4.7,2.1-6.5,4
				c-0.4-2.4-1.1-4.8-2.1-7c-2.6,1-5,2.5-7.1,4.3c-0.1-2.1-0.6-4.3-1.4-6.3c-2.8,1.4-5.4,3.2-7.7,5.2c1.1-2.5-1.6-5.2-4.4-5.3
				c-2.7,0-5.1,1.7-7.2,3.4c-0.6,0.5-1.4,1.1-2.2,0.8c-1.3-0.4-0.9-2.4-1.4-3.8c-1-2.8-5.2-1.7-7.4,0.2s-5.5,4.2-7.7,2.3
				c-1-0.9-1.3-2.4-2.3-3.3c-2.3-2.3-6-0.3-8.5,1.8s-6.1,4.2-8.5,2.1c-0.8-0.6-1.3-1.7-2.3-1.8c-0.9-0.1-1.6,0.5-2.3,1.1
				c-3.2,2.9-6.4,5.7-9.6,8.6c-0.6-1-1.1-2-1.7-3c-3.3-0.3-5.5,5.4-8.6,4.1c-0.9-0.4-1.5-1.3-2.4-1.6c-2.2-0.9-4.1,1.8-6.2,2.7
				c-3.3,1.4-7.6-0.8-9.9,2.4c-5-5.8-7.4-12.2-1.1-17.8c-0.1,1.6-0.3,3.4-0.5,5C2544,206.5,2546.7,202.9,2550.1,199.9z"/>
			<path class="st9" d="M2985.6,412.3c24.1-10.6,59.2-21.2,86.9-5.9c25.3,13.9,35.8,42,41.1,67.8c24.1,117.6,89.2,154.4,89.2,154.4
				s-103.4-26.9-126.1-85c0,0-0.8,21.1,8.7,33.7c-17.9-10.3-36.9-25.8-42.2-48.5c-3.9-16.5,0.5-32.9-1.9-33.4
				c-2.4-0.4-7.9,15.4-10.7,30.2c-2.5,13-2.7,24-2.5,31.5c-1.8-7.6-3.5-18.5-2.5-31.5c0.8-10.2,2.9-18.8,5-25.2
				c7.5-30.5,0.2-57.9-17.3-68.3c-3.7-2.2-9.7-4.7-18.6-4.7C2991.7,422.4,2988.7,417.4,2985.6,412.3z"/>
			<path class="st10" d="M2613.9,385.7l-25.5,35.3c0,0-10.9,14.6-17.9,21.3c-7.1,6.6-2.5,45.9-2.5,45.9c2.8-1.2,15.2,15.5,15.2,15.5
				s-33.1,27.9-40.6,36.8c-7.6,9-38.9,37.9-38.9,37.9s-0.6,27.1,5.4,25.8s24.6,42.2,23.6,58.5s14.8,16,14.8,16s13.2,4.1,16.1,15.1
				c2.8,11,14.5,2.8,14.5,2.8h25.8c0,0-12-34.6-21.4-27.1c-9.4,7.5-27.1-5-27.1-5s14.5-27.7,3.1-21.4s-23.3-27.7-23.3-27.7
				s-8.8-29.6,6.9-34.6s85.6-42.2,85.6-42.2s22.7,6.3,25.8,20.2s-12.9,81.8-20.8,86.6s-21.4,37.1-21.4,37.1s0,0,0.9,5.7
				s-5.5,14.6-5.5,14.6c5.2,7.1-50.5,76.5-50.5,76.5l-20.3,24.5c7.1,15.1,31.6,3.3,37.3-0.5c5.7-3.8,2.8-7.5,1.4-12.8
				c-1.4-5.2,9-11.8,9-11.8s15.1-2.4,15.1-5.2c1.4-28.8,20.3-66.1,23.6-70.3c34.9-35.9,39.7-68,39.7-68s27.7-51,51.9-60.1
				c24.2-9.1,77.4-0.3,77.4-0.3c-4.7,13.8,5.7,16,5.7,16s32.4,19.2,36.5,24.2c4.1,5,27.7,7.4,27.7,7.4c25.5,18.4,8.5,40.1,8.5,40.1
				c4.3,3.8-27.4,52.9-36.4,57.6c-9,4.7-45,55.9-46.9,59.7s2.8,5.2,2.8,5.2c33.7,5.3,39.8-17.6,39.8-17.6s-14.9-2.6-2.6-9.9
				c12.3-7.3,25.3-39.7,32.8-44.9c7.6-5.2,34.5-61.4,34.5-61.4l13.7-23.6c0,0-16.5-9.4-19.4-11.3c-16.1-3.8-25.5-49.1-17.9-56.2
				s11.3-17,13.7-22.7c2.4-5.7,16.5-3.3,16.1-1.4c0.9,12.3,23.6,38.7,23.6,38.7s20.8,22.7,36.8,27.4c16.1,4.7,51.9,68,51.9,68
				s4.7,81.2-5.7,106.7s-18.9,47.2-18.9,47.2c47.2,11.3,42.5-24.5,42.5-24.5s3.8-1.9-5.7-10.4c-9.4-8.5,14.2-29.3,14.2-29.3
				l2.8-85.9c0,0-5.7-17-1.9-41.5s-26.4-42.5-26.4-42.5s0,0-11.3-17.9s8.5-107.7,8.5-107.7s8.5-20.8-27.4-63.3
				c-35.9-42.5-102.3-33.7-140.7-19.8s-105.8-5.7-102-20.8s-8.5-34-8.5-34s-10.4-14.2-11.3-25.5c0.9-34.9-48.2-78.4-48.2-78.4
				c-64.2-61.4-112.4-3.8-124.7,7.6s-13.9,55.7-13.9,55.7l-1.6,18.9c0,0,6.9,6,7.2,7.5c6.9,9.1,5.7,17.3,5.7,17.3
				c5,2.2-0.3,47.9-0.6,61.4c-0.3,13.5,15.1,25.2,15.1,25.2c23.3,12.9,34.3-3.5,34.3-3.5c3.5-3.8-1.6-12-1.6-12s-1.6-9.1,0.9-11.3
				c2.6-1.4,7-4.2,10.4-9.1c7.6-11,1.8-20,9.4-32.6c4.2-7,7.5-6.8,10.1-13.7c2.6-6.9,1.8-13.5,0.6-18.3c-1.9-7-4.7-15.3-8.8-24.2
				c-4.4-9.4-9.2-17.1-13.5-23.3c8.8,12.3,13.7,23.5,16.4,31.2c4.6,13.1,9.5,26.9,3.3,38.6c-2.7,5.1-5,5-8,9.8
				C2607.4,357,2608,369.9,2613.9,385.7z"/>
			<path class="st11" d="M2570.6,254.9c0,0,0-18.2,10.4-25.7c10.4-7.6,11.8-22,11.8-22s2.6,31.9-13,47.7L2570.6,254.9L2570.6,254.9z
				"/>
			<path class="st11" d="M2545.1,250.4c0-0.9-11-4.4-21.6-38.3c0,0-1.1,36.8,17,48.6L2545.1,250.4z"/>
			<path class="st9" d="M2541.1,237.3c-2.9,0.1-6,0.6-9.2,1.5c-18.5,5.3-27.9,22.3-30.8,28.1c0,0,20.3-21.7,24.1-20.3
				c0,0-31.6,60.4-9.4,93.5c0,0-17-34.5,0.5-54.3s23.6-20.3,23.6-20.3s-3.3,33.5-12.3,53.8c0,0,23.6-19.8,28.3-49.6
				c0,0-15.1,61.9-23.6,87.8c6.1-14.4,15.8-38.2,23.9-62.6c1-3,3-10.6,6.9-25.8c4.3-16.7,5.4-22,3.1-28.3
				c-1.9-5.4-7.4-14.2-14.5-13.5C2545.1,227.9,2541.4,236.7,2541.1,237.3z"/>
			<path class="st11" d="M2575.9,397.2c4.4,1.8,7.8,6.4,7.4,10.7c-0.2,2.9-2.2,5.7-3.2,5.5c-0.8-0.2-0.5-2.2-1.6-5.1
				c-0.2-0.6-1.9-4.8-5.3-6.4c-3.4-1.6-7.9-0.3-11.6,2.8c0.1-0.7,0.9-4.7,4.6-7.1C2570.5,395.1,2575.1,396.9,2575.9,397.2z"/>
			<path class="st11" d="M2588.4,298.9c-1.9,1.8-4.1,3.7-6.4,5.6c-2.9,2.3-5.6,4.3-8.3,6c0.7,0.2,5,1.5,9.1-1
				C2586.4,307.3,2588.5,303.2,2588.4,298.9z"/>
			<g>
				<path class="st2" d="M2567.2,251.1c-2.2,3.5-4,7.1-5.5,10.8c0.6-4.8,1.2-9.6,1.8-14.4c-3.6,4.1-7.2,8.2-10.8,12.3
					c1.2-4.1,2.4-8.3,3.6-12.5c-3.3,3.1-6.3,6.5-8.8,10c1.1-4.3,2.2-8.6,3.3-12.9c-4.2,4.1-8,8.5-11.5,13c-0.1-4.4,0-8.7,0.1-13.1
					c-2.3,3.6-4.6,7.1-7,10.6c-0.4-3.1-0.3-6.2,0.3-9.3c-1.6,2.6-3.3,5.2-4.9,7.8c-0.9-2.6-0.9-5.4,0-7.9c-1.8,2.5-3.5,4.9-5.3,7.4
					c0.1-0.5,0.1-1,0.2-1.5c-1.5,3.2-3.5,7.9-5.6,13.5c1.1-1.4,2.1-2.7,3.2-4.1c-0.9,3.1-0.6,6.5,0.9,9.5c1.8-3.1,3.8-6.1,6.1-9
					c-1.1,2.3-1.6,4.7-1.4,7.1c3.4-2.5,6.7-5,10.1-7.6c0.3,2.3-0.1,4.7-0.9,6.9c0.2-0.1,0.3-0.2,0.5-0.3c0.8-1.3,1.6-2.6,2.4-3.9
					c-0.4,1-0.6,2-0.9,3c1.7-0.9,2.5-1,2.5-1s-0.1,1.4-0.4,3.8c1.2-1.9,2.5-3.7,3.7-5.6c-0.7,3.7-1,7.5-0.9,11.2c2-3.6,4-7.2,6-10.8
					c-1.4,3.1-1.5,6.6-0.3,9.7c2-2.7,3.9-5.4,5.9-8.1c-1.6,2.8-1.6,6,0,8.8c1.8-2.4,3.6-4.8,5.4-7.3c0.3,2.8,0.5,5.6,0.8,8.4
					c0.7-0.6,1.4-1.3,2-2c0.4-1.4,0.8-2.9,1.2-4.5C2565.3,260.8,2566.7,255.3,2567.2,251.1z"/>
				<path class="st2" d="M2509.6,258.3c3-2.9,6.3-6,9.1-8.2c0.4-1.5,0.8-3,1.1-4.4c-3.5,2.4-7.1,5.3-8.8,8.7
					C2510.4,255.6,2510,257,2509.6,258.3z"/>
				<path class="st2" d="M2523.9,246.7c0.2-0.8,0.5-1.6,0.7-2.4c-0.8,1.1-1.6,2.2-2.5,3.3C2522.8,247.2,2523.4,246.9,2523.9,246.7z"
					/>
			</g>
			<g>
				<path class="st2" d="M3097.2,438.4c2.9,2.4,5.6,4.8,8.1,7.4c-4.2-10.3-9.9-19.9-17.6-27.8c-0.2,2-0.4,4.1-0.6,6.1
					c-2.1-3.9-4.1-7.9-5.8-11.9c-1.4-1.1-3-2.2-4.6-3.3c-0.9,6.1-1.2,12.2-1,18.3c-3.8-7.1-6.4-14.6-7.7-22.2
					c-0.4,8.4-0.8,16.8-1.2,25.3c-6.1-6.5-10.5-14-12.7-21.7c1.2,8,2.4,15.9,3.6,23.9c-5.1-7.5-10.3-15-15.4-22.6
					c0,8,0.6,16,1.8,23.9c-4.8-6.1-9-12.3-12.7-18.8c0.2,7.6,0,15.3-0.4,22.9c-3.5-6-6.1-12.2-7.7-18.6c-1.6,7.1-1.8,14.3-0.5,21.4
					c3.9,5,6.7,11.1,8.5,18.2c0.8-3.4,1.5-6.8,2.3-10.2c3.4,4.1,5.9,8.6,7.3,13.2c1.3-6.2,1.7-12.6,1.1-18.8
					c4.2,4.6,8.3,9.3,12.5,13.9c-0.1-4.9-0.2-9.8-0.3-14.8c3.9,6.5,8.3,12.9,13.3,19c0.7-7,1.3-13.9,2-20.9c4.4,4.7,9.1,9.3,14,13.7
					c0.9-3.9,1.8-7.8,2.6-11.7c4.5,4,9.1,8,13.6,12C3098.9,449.1,3098.1,443.7,3097.2,438.4z"/>
				<path class="st2" d="M3014.9,433.2c2.7,1.8,5.2,4.1,7.3,6.7c-2.3-5-4.5-9.9-6.8-14.8C3015.3,427.8,3015.1,430.5,3014.9,433.2z"
					/>
			</g>
			<g>
				<path class="st3" d="M3108,520.9c2.9,3.4,5.8,6.9,8.7,10.3c2.2-4.6,4.4-9.3,6.5-13.9c1.3,1.8,2.6,3.6,3.9,5.4
					c-2-5.5-3.9-11.3-5.8-17.4c-0.3,0.9-0.6,1.9-1,2.8c-1.7-5.5-3.5-11.1-5.2-16.7c-2.6,5.7-5.3,11.5-7.9,17.2
					c-1.2-5.5-2.4-11.1-3.6-16.6c-3.2,5.4-5.6,11-7.1,16.7c-1.4-4.1-2.8-8.2-4.3-12.3c-1.9,6.7-3.8,13.4-5.7,20.1
					c-0.8-5.6-1.7-11.2-2.5-16.8c-2.8,5.1-4.6,10.6-5.3,16.1c-1.8-4.8-3.6-9.5-5.4-14.3c-1.9,5.3-3.7,10.6-5.6,15.8
					c-1.5-4.9-3-9.9-4.5-14.8c-1.9,5.9-4.7,11.6-8.3,17.1c-0.8-4.9-1.6-9.9-2.4-14.8c-2.1,4.9-4.1,9.8-6.2,14.6
					c-2.4-3.7-4.1-7.6-4.8-11.6c-0.2,6-0.2,13.4,1.6,20.9c0.8,3.6,2,7,3.5,10.2c2.3,1.7,4.5,3.6,6.4,5.5c1.4-5.4,4.2-10.5,8.1-15.2
					c3.8,2.6,7,5.7,9.4,9.1c0.8-3.7,2.5-7.3,5-10.5c2.9,4.2,5.8,8.3,8.8,12.5c1-5.5,2.8-11,5.4-16.2c4.9,3.8,9.5,7.8,13.7,12.1
					C3105.1,531.1,3106.6,526,3108,520.9z"/>
				<path class="st3" d="M3034.3,510.7c-1.1-2.2-2.2-4.4-3.3-6.6c-0.6,5.9-0.8,11.8-0.6,17.7c-1.1-2.3-2.3-4.6-3.4-6.9
					c-0.6,3.4-1.1,7-1.4,10.9c-0.1,1.8-0.2,3.6-0.3,5.3c1,1.8,2.1,3.6,3.6,5.2c0,0,0.1,0.1,0.1,0.1c0.4-3.4,0.9-6.9,1.6-10.6
					C3031.6,520.5,3032.9,515.3,3034.3,510.7z"/>
			</g>
			<path class="st11" d="M2988.4,826.9c47.2,11.3,42.5-24.5,42.5-24.5s2.7-1.3-2.1-6.8c-10.4,0.9-20.8,3.5-30.8,7
				C2992.4,816.9,2988.4,826.9,2988.4,826.9z"/>
			<path class="st11" d="M2829.8,770.2c0,0-7.5-1.3-7.4-4.7c-6.1-0.8-12.6-0.2-18.7,0.8c-1.6,0.2-3.6,0.5-5.9,0.8
				c-5.7,8-10,14.3-10.6,15.5c-1.9,3.8,2.8,5.2,2.8,5.2C2823.7,793.2,2829.8,770.2,2829.8,770.2z"/>
			<path class="st11" d="M2573.9,806.1c5.1-3.4,3.3-6.8,1.9-11.3c-6.1-3.9-13.9-5.4-21.3-5.8c-1.1-0.1-2.1-0.1-3.2-0.2l-14.7,17.8
				C2543.7,821.7,2568.2,809.9,2573.9,806.1z"/>
			<path class="st11" d="M2583,672.3c-1.9,1.5-4,2.2-6.3,2.4c-0.3,5.4,1,11.5,1.8,15.4c0.6,3.2,1.3,6.4,2.5,9.3h23.4
				C2604.4,699.4,2592.4,664.8,2583,672.3z"/>
			<path class="st12" d="M2552.7,796.3c-0.7,2.8-1.4,5.5-2.1,8.3c2.5,1.1,5.8,0.5,7.3-1.8c1.5-2.2,0.5-5.9-2.1-6.7
				c-0.8-0.2-2,0.1-1.9,1"/>
			<path class="st3" d="M2550.3,378.4c-1.9,5.7-2.8,11.8-2.7,17.8c0,0.7,0.1,1.5,0.5,2.1c0.8,1.1,2.6,1,3.8,0.3
				c3.3-1.8,4.4-6.1,3.6-9.8s-3.1-6.7-5.4-9.7"/>
			<path class="st3" d="M2552.2,334.3c-0.4,12.6-0.3,25.2,0.4,37.8c3.4-5.2,4.9-13.1,5.1-20.9c0.2-7.8-0.8-15.4-1.7-23
				c-0.6-4.5-0.6-14.4-3.4-15.4C2552.4,319.8,2552.5,327.1,2552.2,334.3z"/>
			<g>
				<path class="st2" d="M2725.7,259.2C2725.7,259.2,2725.7,259.2,2725.7,259.2c-1.1,1.8-2.1,3.7-2.8,5.7c0.6,1.3,1.3,2.5,2,3.8
					C2725.8,265.6,2726.1,262.4,2725.7,259.2z"/>
				<path class="st2" d="M2722.9,264.9c0,0-0.1-0.1-0.1-0.1c-0.1,0.1-0.1,0.2-0.2,0.2c0,0.3,0,0.6-0.1,0.9
					C2722.6,265.5,2722.7,265.2,2722.9,264.9z"/>
				<path class="st2" d="M2709.4,264.2c1,1.6,1.6,3.6,1.7,5.5c1.8-2.2,3.6-4.4,5.4-6.6c0.4,2.5,0.7,4.9,1.1,7.4
					c1.7-1.9,3.3-3.7,5-5.5c0.3-3.7,0.5-7.4,0.6-11.1c-0.2-0.3-0.3-0.7-0.5-1c-1.4,1.6-2.5,3.5-3.1,5.5c0.5-2.9,0.6-5.8,0.4-8.7
					c-2.6,2.8-4.8,6-6.6,9.4c0-2.9,0.2-5.7,0.5-8.5c-2.3,2.8-4.6,5.6-6.9,8.5c0.2-1.9,0.3-3.7,0.5-5.5c-0.2,2.2-3.7,3.9-3.8,6.2
					c-0.1,2.1,2.3,5.3,3.6,6.9C2708,265.8,2708.7,265,2709.4,264.2z"/>
			</g>
			<path class="st11" d="M2621.2,308.4c3.5,10.4,6.8,22.4,0.9,31.7c-2.7,4.2-6.9,7.2-9.9,11.1c-3.9,5-5.6,11.7-4.6,18
				c0.4,2.5,1.4,5.2,3.8,6c3.9,1.4,7.2-3.7,6.9-7.8s-2.4-8.1-1.9-12.2c0.7-6.1,6.8-9.9,9.9-15.2c4.3-7.2,2.7-16.4,1-24.6
				c-1.8-8.6-3.7-17.3-7.4-25.2c-3.1-6.8-8.3-14.9-15.2-18.2C2612.5,282.9,2616.9,295.6,2621.2,308.4z"/>
			<path class="st11" d="M2589.3,433.1c-4.1,7.7-6.4,16.7-4.4,25.2c2.8-1.1,4.3-4.2,5.4-7c2.8-6.7,15.4-27.5,10.2-33.1
				C2595.9,422.3,2592.2,427.8,2589.3,433.1z"/>
			<path class="st11" d="M2717.7,551.3c5.3-7.6,12.7-13.4,18.3-20.7c8.6-11.1,12.9-25.1,14.3-39.1c1.5-14,0.3-28.1-0.8-42.1
				c6,15.3,5.5,32.3,4.9,48.8c-0.2,5.5-0.4,11.1-2.2,16.2c-1.5,4.4-4.1,8.4-6.7,12.3c-10.5,15.9-21,31.8-31.5,47.7
				c-1.2,1.8-2.1,3.2-4.2,3.7C2707.9,569.5,2712.7,558.5,2717.7,551.3z"/>
			<path class="st11" d="M2626.6,495.3c-0.2-44.6,21-86.1,41.7-125.6c-15.5,10-19.2,30.4-25.7,47.6c-7.7,20.4-21,39.2-23.3,60.9
				c-1.5,14.5,2.2,28.9,7.9,42c3,7,12.2,31.8,21.2,30.4c15.9-2.6-5.9-16.6-9-19.6C2629.4,521.4,2626.6,508.8,2626.6,495.3z"/>
			<path class="st11" d="M2464.3,519"/>
			<path class="st11" d="M2562.9,645.5c-0.6-0.7-1.8-0.7-3.8,0.4c-11.3,6.3-23.3-27.7-23.3-27.7s-8.8-29.6,6.9-34.6
				c13.5-4.3,66.8-32.2,81.7-40.1c-12-12.5-27.6-26.6-44.3-34c-8.8,7.5-30.9,26.6-36.9,33.7c-7.6,9-38.9,37.9-38.9,37.9
				s-0.6,27.1,5.4,25.8s24.6,42.2,23.6,58.5c-0.4,6.7,2,10.6,5,12.9c2.6-1,5.1-2.5,7.3-4.2C2554.8,666.9,2559.6,656.7,2562.9,645.5z
				"/>
			<path class="st11" d="M2548.1,681.5c0,0,6.8,2.1,11.7,7.3c1.2-7.1-3.2-15.1-9.3-19.7c-4.9-3.7-11-5.9-17.1-5.7c0,0.7,0,1.3,0,1.9
				C2532.3,681.8,2548.1,681.5,2548.1,681.5z"/>
			<path class="st11" d="M2908.2,630.5c0,0-16.5-9.4-19.4-11.3c-13.4-3.2-22.2-35.3-20.3-49.9c0.2-0.8,0.5-1.9,1-3.1
				c1.1-2.8,2-3.8,1.7-4.1c-0.6-0.7-7.3,4.7-12.3,8c-8.9,5.9-17,8.2-23,9.9c-18.2,5.2-35.8,2-44.6-0.1c-1.3,6,0,8.7,1.2,10.3
				c2,2.8,5.1,3.5,5.1,3.5s32.4,19.2,36.5,24.2s27.7,7.4,27.7,7.4c25.5,18.4,8.5,40.1,8.5,40.1c1.2,1.1-0.6,6-4,12.6
				c4.6,2.3,9.6,3.6,14.4,3.5c7.4-14.2,13.7-27.4,13.7-27.4L2908.2,630.5z"/>
			<path class="st11" d="M2973.5,393.7c-37.2-30.7-95.4-22.3-130.4-9.7c-20.6,7.4-49.6,5.3-71.5-0.7c5.8,5.6,23.3,8.8,28,9.1
				c8.3,0.5,16.5,1.1,24.8,0.7c21.3-1,41.7-8,62.6-11.8c20.9-3.8,43.9-4,61.8,7.5c4.3,2.8,8.4,6.2,13.4,7.5
				C2966.1,397.3,2970.8,396.5,2973.5,393.7z"/>
			<path class="st11" d="M2989.5,627.8c-11.4-14-22.9-28.2-37-39.4c-12.7-10-28.1-18.5-34.4-33.4c-8.9-21.1,4.3-46.6-4-68
				c-2.7-7-7.7-13.8-6.5-21.1c2.2-13.8,23.2-17.4,26.6-30.9c1.9-7.7-3.1-15.8-9.9-20c-6.8-4.2-14.9-5.3-22.8-6.3
				c-11.4-1.5-22.8-3-34.2-4.5c-5.9-0.8-12-1.5-17.6,0.5c-5.6,2-10.3,7.7-9.1,13.5c9,5.4,20.3,3.4,30.7,2.6
				c10.4-0.8,22.8,0.6,28.2,9.6c4,6.7,2.6,15.2,1.1,22.9c-4.4,22.3-8.9,44.6-13.3,66.8c-1.2,6.3-2.5,12.7-1.9,19
				c3.8-4,15.7-1.9,15.2-0.2c0.9,12.3,23.6,38.7,23.6,38.7s20.8,22.7,36.8,27.4c11,3.3,31.5,34.2,43.1,53.2
				C3005.2,648,2994.5,633.9,2989.5,627.8z"/>
			<path class="st11" d="M3040.4,635.2c3.8-24.5-26.4-42.5-26.4-42.5s0,0-5.3-8.4c-2.3,17.4,15.7,52.8,20,62.3c4.5,10,9,20,13.4,30
				c0.1,0.2,0.1,0.3,0.2,0.5l0-0.2C3042.3,676.8,3036.6,659.8,3040.4,635.2z"/>
			<path class="st3" d="M2979.1,511.2c0,0.2,0.9,5.6,4.8,7.2c2.6,1.1,6.3,0.5,8.1-3.2c1.6-3.3,0.9-7.8-1.4-10.1
				c-3.1-3.2-7.3-0.6-7.6-0.4C2980.1,506.7,2979.3,510.5,2979.1,511.2z"/>
			<path class="st3" d="M2664.4,457.5c-4.1,8.2-5.7,17.4-6.7,26.5c-1.3,10.8-1.2,23.4,7,30.4c1.3,1.1,2.9,2,4.5,1.6
				c1.1-0.3,1.9-1,2.6-1.9c3.2-3.7,4.7-8.9,3.9-13.7c-0.9-5.9-4.9-11-5.3-16.9c-0.8-10.1,8.3-18.1,17.2-23c4.1-2.3,8.4-4.4,11.7-7.6
				c9.3-9.2,3.1-21.1-8.9-19.5C2680.7,434.5,2668.4,449.4,2664.4,457.5z"/>
			<path class="st3" d="M2672,266.5c6.9,9.3,11.6,20,16.2,30.6c2.2,5.1,4.5,10.6,3.6,16.1s-6.8,10.5-12,8.4c-4.5-1.8-6-7.5-5.4-12.3
				s2.5-9.4,2.5-14.2c-0.1-10.7-9.9-18.6-19.1-24c-9.2-5.5-19.7-11.2-23-21.4c-0.5-1.4-0.8-3-0.2-4.4
				C2639.3,234.4,2668.8,262.2,2672,266.5z"/>
			<circle class="st3" cx="2698.1" cy="501.1" r="7.6"/>
			<path class="st3" d="M2953,426.4c-1.3-5.1,0.4-9.9,3.5-11.6s7.1-0.6,10.7,1.9c3.6,2.5,6.9,6.2,10,10c2.6,3.2,5.1,6.5,7.2,10.3
				c2.8,5.2,4.7,11,6.3,16.8c2.1,8,3.5,16,4.2,23.9c0.5,5.5,0.5,11.4-2.1,14.5c-1.8,2.2-4.6,2.7-7.4,2.3c-2-0.3-4.3-1.1-5.8-3.4
				c-1.5-2.3-1.6-5.4-1.1-7.8c0.5-2.4,1.5-4.3,2.2-6.5c2-7-0.2-16.7-4.5-24.2c-3.3-5.7-7.7-10.2-12.3-13.4
				C2959.5,436.2,2954.9,433.7,2953,426.4z"/>
		</g>
		<g>
			<path class="st1" d="M3593.2,346.3c33.1-20.2,66.3-40.5,99.4-60.7l37.8,11.3l-58.8,77.8C3645.5,365.2,3619.3,355.8,3593.2,346.3z
				"/>
			<path class="st11" d="M3713.1,291.7l-57.1,77.3c5.2,1.9,10.5,3.8,15.7,5.7l58.8-77.8L3713.1,291.7z"/>
			<path class="st1" d="M3100.3,103.2l397.5-48.7c0,0,106.3,20.6,43.5,54.1S3320,217.6,3320,217.6l-225.9-102.6L3100.3,103.2z"/>
			<path class="st1" d="M2914.2,328.9"/>
			<path class="st11" d="M3302.3,209.5l256.6-128.3c5,7.7,1.9,16.9-17.7,27.4c-62.8,33.5-221.3,108.9-221.3,108.9L3302.3,209.5z"/>
			<path class="st10" d="M2998.2,60.1c236.3,110.5,472.5,221,708.8,331.5c2.6,6.2,8.3,22,0.8,33c-2.3,3.4-6.2,6.9-13.5,9.2
				c-31.6,10-202.6-8.2-202.6-8.2s-52.1-6.2-189.8-58.5c-63.4-30.7-126.8-61.4-190.3-92.2l-309.4-140.5c0,0-64.7-78.3,76.4-95.8
				c12.9-2.5,31.7-4.7,53.9-1.8C2962.8,40.8,2985.4,52.2,2998.2,60.1z"/>
			<path class="st2" d="M2878.6,38.6c2.4-0.6,5-1.2,7.7-1.7c6-1.1,11.6-1.5,16.5-1.6c-5.7,12.4-15.7,29.2-33.3,43.3
				c-13.1,10.5-31.4,30.1-49.3,20.3c-12.8-7.1-22.6-13.3-29.9-18.2C2798,62.7,2821.3,45.6,2878.6,38.6z"/>
			<path class="st11" d="M2802.2,134.3c-2.1-2.6-4.2-5.7-6.1-9.2c-6.2-11.2-8.1-21.9-8.8-29.4c266.7,112.7,533.4,225.4,800.2,338.2
				c-49.1-3.3-95.8-8.3-95.8-8.3s-52.1-6.2-189.8-58.5c-63.4-30.7-126.8-61.4-190.3-92.2L2802.2,134.3z"/>
			<path class="st1" d="M3575.1,403.3c18.1,34.3,36.3,68.7,54.4,103l38.3,9.6l-10.8-96.9C3629.8,413.8,3602.4,408.6,3575.1,403.3z"
				/>
			<path class="st6" d="M2877.3,71.6c-2.4,2.3-5,4.7-7.8,6.9c-3,2.4-6.3,5.3-9.7,8.2l-14.5-42c5.7-1.5,11.9-2.8,18.7-3.9
				L2877.3,71.6z"/>
			<path class="st6" d="M2843,98.3c-2.1,1-4.1,1.8-6.3,2.3l-15.4-47.8c1.7-0.8,3.6-1.5,5.4-2.3L2843,98.3z"/>
			<g>
				<path class="st1" d="M3277.1,302.1c-68.2-28.8-136.4-57.6-204.5-86.4c61.5,92.9,123,185.9,184.4,278.8c0,0,69.2,71.9,84.3,27.2
					C3319.9,448.5,3298.5,375.3,3277.1,302.1z"/>
				<path class="st11" d="M3271.4,299.7c1.7,1,3.4,2,5.2,3c21.6,73,43.1,146,64.7,218.9c-3,8.8-8,13-14.2,14.3
					C3308.5,457.2,3289.9,378.5,3271.4,299.7z"/>
			</g>
			<path class="st11" d="M3650.3,511.5l-9.6-95.6c5.5,1,10.9,2.1,16.4,3.1l10.8,96.9L3650.3,511.5z"/>
			<circle class="st11" cx="3323.1" cy="256.5" r="21.1"/>
			<circle class="st11" cx="3242.7" cy="224.3" r="21.1"/>
			<circle class="st11" cx="3168" cy="194.4" r="21.1"/>
			<circle class="st11" cx="3100.7" cy="167.4" r="21.1"/>
			<circle class="st11" cx="3025.9" cy="137.4" r="21.1"/>
		</g>
		<g>
			<path class="st10" d="M2982.3,1022l-296.2,86.5c-10.4,3.1-21.5-3-24.6-13.4L2608.1,912c-3.1-10.5,3-21.5,13.4-24.5l296.2-86.5
				c10.4-3,21.5,3,24.6,13.4l53.5,183.1C2998.8,1008,2992.8,1019,2982.3,1022z"/>
			<path class="st11" d="M2931.4,838.2l-8.2-8.8c-36.7,42.8-73.4,85.6-110.1,128.4c-59.4-15.5-118.7-31.1-178-46.6l-5.2,15.2
				l115.5,28.7l-62,124.2l11.6,3.8l63.5-124.8l60,14.9l29.6-35.3l116.4,68.5l7.7-9.5l-115.6-69.1L2931.4,838.2z"/>
		</g>
	</g>
</g>
</svg>
