<?xml version="1.0" encoding="utf-8"?>
<!-- Generator: Adobe Illustrator 25.4.1, SVG Export Plug-In . SVG Version: 6.00 Build 0)  -->
<svg version="1.1" id="Слой_1" xmlns="http://www.w3.org/2000/svg" xmlns:xlink="http://www.w3.org/1999/xlink" x="0px" y="0px"
	 viewBox="0 0 3408.6 1600" style="enable-background:new 0 0 3408.6 1600;" xml:space="preserve">
<style type="text/css">
	.st0{fill:#404B85;}
	.st1{fill:#C2CBE9;}
	.st2{fill:#ACB9DD;}
	.st3{fill:none;stroke:#272F64;stroke-miterlimit:10;}
	.st4{fill:none;stroke:#5161AA;stroke-miterlimit:10;}
	.st5{fill:#D8DFEF;}
	.st6{opacity:0.8;}
	.st7{fill:#8C95CA;}
	.st8{fill:#5161AA;}
	.st9{fill:#272F64;}
	.st10{fill:none;}
	.st11{fill:#343F70;}
	.st12{fill:none;stroke:#404B85;stroke-miterlimit:10;}
</style>
<g>
	<g>
		<path class="st0" d="M2901.7,512c-8.9,16,0.8,35.7,0.8,54.1c-0.1,32.9-34.3,58-67.2,58.7c-32.9,0.7-63.5-16.7-89.8-36.5
			c-26.3-19.8-50.7-42.9-80.6-56.7c-14.6-6.8-30.9-11.2-46.7-8.4c-15.8,2.8-30.9,14.1-34.2,29.9c-4,18.5,8.3,36.2,12,54.8
			c5.8,29.2-9.7,57.8-22.1,84.9c-30.6,66.7-44.7,141-40.5,214.3c0.5,9.3,0.6,20.2-6.7,25.9c-10.9,8.3-25.7-2.3-35.5-11.9
			c-53.8-52.4-124.5-90.5-199.5-92.7c-75-2.2-153.1,36.6-185.7,104.2c-17.8,36.9-18,88.1,15.3,112c27.6,19.8,67.2,12.4,95.5-6.3
			c6-4,12.3-8.6,19.5-8.8c11.1-0.3,19.5,9.6,26,18.6c13.7,18.9,27.5,37.8,41.2,56.7c22.2,30.6,45.8,62.4,79.8,79
			c21.9,10.7,46.5,14.3,70.1,20.3c36.9,9.4,71.9,24.8,107.9,36.8c110.2,36.8,230.9,41.4,343.6,12.9c37.5-9.5,75.2-23.2,103.6-49.4
			c20.6-19,35.2-43.6,48.1-68.5c39.7-76.8,66.2-168.2,35.5-249.1c-13.3-35-36.4-65.5-51.3-100c-13.1-30.5-19.5-63.3-25.8-95.9
			c-9-46.5-11.1-103.8-29.7-147.4C2974.3,518.1,2924,471.9,2901.7,512z"/>
		<path class="st1" d="M3246.8,1204.1c14.6,0.5,32.8-1.1,38.3-14.7c6.9-17.1-13.1-31.7-28.4-42c-13.2-8.9-25.3-20.7-30.2-35.8
			c-4.9-15.1-0.7-34,12.8-42.3c16.5-10.2,38.4-1.6,57.1-6.5c20-5.2,33.3-25.3,36.6-45.7c3.2-20.4-1.6-41.1-7-61.1
			c-11-40.8-25.8-83.4-58.5-110.2c-32.7-26.8-88.6-29.2-112.8,5.5c-3.3-8.8-15.9-10.6-24.1-5.9s-12.8,13.5-17.1,21.9
			c1.3-11.3,2.6-22.6,3.9-33.9c-11.2-7.5-27.1-3.7-37.3,5.2s-15.9,21.6-21.4,34c-44.4-0.2-88.8,6.7-131,20.4
			c-14.9,4.8-30,10.7-41.5,21.5s-18.6,27.3-14.3,42.4c4.3,15.1,22.7,25.8,36.7,18.9c7.1-3.5,11.8-10.4,17.2-16.1
			c17.3-18.6,44.8-27.2,69.6-21.7c24.9,5.5,46.2,24.8,54.1,49c14.9,45.7-17,93.1-51.9,126.2c-96.2,91.1-230.8,140.3-363,132.6
			c-100.8-5.8-204.3-47.9-260.9-131.5c-19.5-28.8-32.9-61.6-54.3-89c-42.4-54.4-116.4-82.2-184.1-69.2c-9.1,1.8-18.4,4.3-25.9,9.8
			c-25.6,18.9-14.8,63.7,12.9,79.3c27.7,15.6,62.6,9.4,92.2-2.1c6.7-2.6,13.6-5.5,20.8-5.6c8.5-0.1,16.6,3.8,23.6,8.6
			c40.7,28.1,49.9,82.9,71.1,127.5c27.4,57.7,78.6,101.9,136.2,129.6c57.6,27.7,121.4,39.9,185,45.6c32.1,2.9,65.2,4,95.8-5.9
			c8.9-2.9,18.1-6.7,27.2-5c8.1,1.5,14.7,7.2,20.9,12.6c20.6,17.9,48.6,36.4,73,24.2c17.3-8.6,26.9-31,46-34
			c20.1-3.2,36.2,17,56,21.7c31.4,7.4,57.2-24.4,71.9-53.1c12.6,26.6,31.3,52.4,58.8,62.9c27.5,10.5,64.5-0.8,73.3-28.9
			c2-6.5,2.5-13.5,5.7-19.5c4.7-8.9,14.2-13.9,22.9-19c22.3-12.8,44.1-30.5,51-55.4c6.9-24.8-8.3-56.6-34-58.3"/>
		<path class="st2" d="M2828.4,583.5c-8.2-7.5-25.4-17.6-36.3-10.8c-2.7,1.7-5.5,4-8.7,3.6c-6.8-1-6-11.3-5.8-18.6
			c0.6-21.6-27-37.2-43.7-24.7c0.8-28.7-31-52.5-56.5-42.3c-10.2,4.1-19.6,12.6-30.5,11.7c-6.7-0.5-12.6-4.6-18.8-7.3
			c-10.3-4.4-22.4-5-32.2,0.6c-9.7,5.6-16.1,18-13.3,29.3c0.8,3.1,2.2,6.5,0.8,9.4c-0.9,2-2.9,3.1-4.7,4.2
			c-9.7,6.1-17.8,15.8-20,27.5c-2.2,11.7,2.5,25.1,12.6,30.5c10.1,5.4,24.5,0.3,27.8-11.1c2.4-8.5-1.2-17.7,0.3-26.4
			c2.7-15.8,20.6-23,35.8-23.6c6.8-0.3,14,0.3,19.5,4.5c5.5,4.1,8.5,12.8,4.7,18.7c-4.3,6.8-11.6,5.3-21.2,12.8
			c-9.5,7.4-15.2,20.7-15.1,32.7c0.1,12.4,6.4,20.7,17.9,35.7c8.2,10.7,12.3,16.1,18.8,17.7c12.5,3,27.1-7.1,34.2-18.7
			c7-11.5,3.7-19.7,9.9-23.1c8.6-4.7,23.2,6.5,29.3,12.4c7.3,7,7,10.8,21.5,28.4c4.2,5.1,4.6,5.3,5.3,7c5.1,12.3-11,24.2-10,37.5
			c0.8,10.5,12.6,16.9,22.3,14.8c9.7-2.2,17.2-10.3,22.8-19c3.8-5.9,5.8-10.9,6.6-13c11.1-27.7,35.1-29.8,41.6-51.6
			C2848.4,615.4,2840.7,594.8,2828.4,583.5z"/>
		<path class="st1" d="M2701.4,642.7c-9.5-5.9-27.5-14.4-52-15.5c-13.4-0.6-47.1-2.1-70.3,22.6c-18.7,20-19.7,45.4-19.7,53.8
			c-15-7-35,6.9-33.7,23.4c0.9,11.5,8.5,26.5-1.5,32.1c-5.7,3.2-13.9-0.1-18.9,4.1c-6.6,5.6-1.1,18.4-7.7,24
			c-2.6,2.2-6.3,2.5-9.6,3.3c-16.5,3.8-26.7,21.3-28.8,38.1c-2.9,23.6,7.3,48.8,26.9,62.2c19.6,13.4,48.1,13.3,66.5-1.7
			c2.5-2,4.9-4.5,5.6-7.6c2.2-10-12.3-13.9-20.1-20.5c-10.9-9.2-8.1-28.3,2.8-37.6s26.7-10.4,40.8-7.8c9.4,1.7,19,5.1,25.5,12
			c12.8,13.5,10.2,35.4,2.5,52.3c-7.7,16.9-19.8,31.9-24.5,49.8c-4.7,17.9,1.4,41.1,19.1,46.5c6.4,1.9,13.2,1.3,19.8,0.3
			c22.1-3.3,45.6-11.6,57-30.9c-3.7-9-16-10.3-23.1-16.9c-11.4-10.6-5.5-30.2,5.2-41.5c17.6-18.5,44.2-25.5,69.6-27.9
			c4.7-0.4,9.7-0.9,13.5-3.6c6.8-4.9,7-15.3,3.9-23.1c-3.1-7.8-8.7-14.5-11.7-22.3c-14.2-36.8,28.4-62.5,28-96.9
			C2766.2,682.5,2724.1,656.7,2701.4,642.7z"/>
		<path class="st1" d="M3259.2,772.6c3.1-14.6-1-26.3-7.8-42.2c-14.9-34.5-34.9-73.4-71.7-81c-4.1-0.9-8.6-1.4-11.9-4
			c-8-6.4-3.8-19.2-6.2-29.2c-3.6-14.8-21.9-22.1-26.2-36.7c-1.5-5.1-1.2-10.8-3.4-15.6c-8.2-17.6-39.8-9.2-49.9-25.8
			c-3.7-6.2-3.1-13.9-3.4-21.1c-0.9-21.8-14.9-44.8-36.5-48.1c-19-2.9-39.5,9.6-56.9,1.4c-4.7-2.2-8.7-5.8-13.5-7.6
			c-18.9-7.1-37.4,14.7-57.6,13.8c-4.8-0.2-9.5-1.8-14.2-1.8c-11.8,0-21.7,9-28.1,18.9c-7.7,11.8-12.2,26.9-6.7,39.8
			c5.5,12.9,24.1,19.9,34.4,10.4c9.4-8.8,8.5-26.9,20.4-31.9c-0.8,1.7-5.1,10.7-1.1,20.5c1.9,4.8,5,7.9,7,9.5
			c0.6,0.5,8,6.9,17.7,4.4c8.9-2.3,12.5-10.1,12.9-11.1c-4.3,11.7-9,28.2-10.4,48.4c-1.6,23.1,1.6,42.2,4.9,55.2
			c-16.3-26.8-53.3-38.5-82-26.1c-7.4,3.2-15.2,11-11.6,18.2c-16.3-10.1-37.9-13.1-54.7-4.1c-16.9,9.1-26.2,32-17.1,48.8
			c2.1,3.8,5,7.5,5.2,11.8c0.4,7.8-7.6,13-14.2,17.3c-25,16.4-41.4,45.3-42.8,75.2c-0.7,15.5,2.8,31.8,13.2,43.3
			c10.4,11.5,28.6,16.6,42,8.9c-16.9-11.4-18.5-37.4-7.9-54.9c13-21.5,34.8-30.3,49.1-34.4c8.4-2.4,23.8-6.7,42.5-2
			c26,6.5,51.9,28.7,54.1,53.2c1.4,15.1-7.3,19.4-3.8,36.1c0.6,2.9,4.9,22.2,20.9,31.3c17.4,9.9,38.1,1.8,39.9,7.6
			c1.3,4.3-9.8,9.4-8.5,13.3c2.2,6.6,38.1,0.1,38.1,0.1c43.1-7.8,75.5-13.7,102-20.5c16.4-4.2,29.3-8.2,41.9-13.6
			c7.8-3.4,8.6-4.2,24.7-12.4c40.7-20.7,44.9-19.9,55.4-29.5C3243.8,800.4,3255.5,789.7,3259.2,772.6z"/>
		<path class="st3" d="M2930.8,563.3c-1.8,14.3-8.2,27.9-18.1,38.4"/>
		<path class="st3" d="M2827.1,750.1c24.5-7.8,51.1,3.9,71.7,19.3c11.5,8.6,23,20.9,21,35.2"/>
		<path class="st3" d="M2876.9,787.1c-12.6-22.3-39.8-35.3-65-31.1C2844.2,749.5,2864,756.8,2876.9,787.1z"/>
		<path class="st3" d="M2798.6,781.2c33.7-4.8,69.4,16.2,81.6,48"/>
		<path class="st3" d="M2800.3,795.9c27.6-1.9,55.9,8.7,75.5,28.2s30.3,47.8,28.5,75.4"/>
		<path class="st3" d="M2794.9,814.8c18.5-6.4,28.7,8.3,40.1,21.6"/>
		<path class="st3" d="M2862.8,875c7.7,9.5,13.9,20.3,18.2,31.8"/>
		<path class="st3" d="M2802.8,826.2c35.5,26.3,60.6,66.9,65.6,110.8c4.9,43.9-11.4,90.2-44.6,119.3"/>
		<path class="st3" d="M2765.7,836.1c15.8,3.9,32,8,45.5,17.1c13.5,9.1,24,24.5,22.8,40.7"/>
		<path class="st3" d="M2752.7,843.3c21,5.1,38.5,20.5,49.7,39c11.3,18.4,17.1,39.7,21,61c3.1,16.7,5,33.9,1.2,50.4
			c-3.8,16.5-14.4,32.2-30.2,38.3"/>
		<path class="st3" d="M2754.8,865.2c16.8,4.6,31.1,17.5,37.4,33.7c6.3,16.2,4.4,35.4-5,50.1"/>
		<path class="st3" d="M2724.4,872.9c15.2,15.3,29.1,32.5,36.8,52.7s8.4,43.7-1.7,62.7c-6.4,11.9-16.5,21.4-24.6,32.2"/>
		<path class="st3" d="M2695.3,881.2c18.4,11.9,38.7,27,39.8,48.8"/>
		<path class="st3" d="M2676.6,911.4c10.1,2.7,20.5,5.9,28.3,13c7.7,7,12,19.1,7,28.3"/>
		<path class="st3" d="M2566.5,818.3c16.6,10,28.4,27.7,31.2,46.9"/>
		<path class="st3" d="M2557,833.5c16.8,9.8,28.5,27.7,30.8,47"/>
		<path class="st3" d="M2965.1,947.1c8,23.7,11,49.1,8.6,73.9"/>
		<path class="st3" d="M2985.6,927.3c28.6,67.6,9.6,150.4-39.9,204.6c-49.5,54.2-125.4,80.5-198.8,77.4"/>
		<path class="st3" d="M3012.7,954.6c9.3,19.9,18.1,40.6,20,62.5c1.9,21.9-4.2,45.5-20.5,60.2"/>
		<path class="st3" d="M2923.7,952.7c15,26.3,10.2,62.3-11.1,83.7"/>
		<path class="st3" d="M2900.1,971.5c-6.1,36.5-30.4,69.4-63.5,86"/>
		<path class="st3" d="M2696.6,1041.9c-55,13.4-113.7,1.3-165-22.7c-51.3-24-96.3-59.1-140.9-94"/>
		<path class="st3" d="M2538.2,842.6c29.5,12.1,50.8,42.2,52.5,74c0.5,9.9-0.8,20.1-5.8,28.6c-8.2,13.8-24.7,20.6-40.5,23
			c-26.6,4.2-54.6-1.2-77.8-15.1c-19.1-11.4-34.5-28-52.1-41.7c-38.1-29.4-86.4-44.2-134.5-45.5c-48.1-1.2-96,10.6-139.9,30.2
			c16.1-34,56.9-38.9,94.4-42.6c42.5-4.3,86.2-7.7,127.2,4c47.6,13.5,87.3,45.8,125.1,77.8c14.5,12.3,33.5,25.5,50.9,17.8
			c9.3-4.1,15.5-14.2,15-24.3s-7.7-19.6-17.3-22.8"/>
		<path class="st3" d="M2105.8,934.3c20.1-16.4,49.4-13,74.8-7.6c43.7,9.3,87.5,22.6,124,48.3c23.3,16.4,42.9,37.4,62.3,58.3
			c19.7,21.2,39.4,42.3,59.2,63.5c25,26.8,50.5,54.1,82.4,72.3c23.5,13.4,49.7,21.4,76.1,27.6c84.1,19.6,175.6,20.4,253.4-17.1"/>
		<path class="st3" d="M2642.6,1181.1c40,8.4,82.7,3.5,119.7-13.8"/>
		<path class="st3" d="M2838.9,1068.8c-26,35.1-69.8,51.3-111,65.7"/>
		<path class="st3" d="M2211.9,899.3c41.8-11.3,86.6,2.6,124.1,24.2c37.5,21.6,70.3,50.5,107.3,73.1c108.2,66.1,247,71.6,366.7,30.1
			"/>
		<path class="st3" d="M2180.7,909.2c42.7-1,85.2,12.4,121.6,34.7c36.5,22.3,67.1,53.3,92.2,88"/>
		<path class="st3" d="M2424.3,1047.6c12.5,17.8,26.2,35.2,43.9,47.8c13.9,9.9,29.9,16.5,45.6,23c25.3,10.4,50.6,20.8,75.9,31.3"/>
		<path class="st3" d="M2453.2,1045.2c52.1,38.3,114,63,178.1,71"/>
		<path class="st3" d="M2885.6,1110.1c-9.7,11.4-23.1,19.7-37.7,23.3"/>
		<path class="st3" d="M2933.2,1078c-7.8,12.2-16.6,23.7-26.3,34.4"/>
		<path class="st3" d="M2925.5,1039.9c-8.3,15.6-20,29.3-33.9,40.1"/>
		<path class="st3" d="M2407.3,1114.1c27.3,32.7,61.1,59.9,98.9,79.5"/>
		<path class="st3" d="M2794.7,1330.9c16.1-1.5,32.3-3.1,48.4-4.6c26.8-2.6,56.6-6.7,73.3-27.8"/>
		<path class="st4" d="M2840.1,1362.6c15.8-7.2,30.2-17.3,42.4-29.6"/>
		<path class="st3" d="M2809.8,1330.4c20.9-7.6,40.3-19.4,56.8-34.3"/>
		<path class="st3" d="M2107.8,997.3c18.4-34.8,66.8-45.1,103.5-30.9c36.8,14.2,63.3,46.7,83.4,80.6c20.1,33.9,35.7,70.7,59.7,101.9
			c33.6,43.7,82.1,74.1,133.6,93.6c51.5,19.6,106.2,29,160.7,36.9c39.7,5.7,80.1,10.7,119.9,5.1c39.7-5.6,79.3-23.1,103.7-55"/>
		<path class="st3" d="M2132.1,1015.3c3.8-15.4,17.9-26.8,33.3-30.6c15.4-3.8,31.8-0.9,46.6,4.7c51.7,19.4,86,68.3,112.1,116.9
			c26.1,48.7,48.3,101.2,88.7,138.9c35.4,33.1,82.1,52,129.4,62.6c47.3,10.7,95.9,13.8,144,19.8"/>
		<path class="st3" d="M2149.1,1033.9c19.3,5.4,38.4-10,58.4-10.8c13.3-0.5,26.8,5.9,34.6,16.7"/>
		<path class="st3" d="M2309.7,1025.4c31.3,31.1,40.8,79.5,73.1,109.5"/>
		<path class="st3" d="M2801.8,1235c-30.1,20.7-67.8,30.2-104.1,26"/>
		<path class="st3" d="M3031.2,1289.1c57.4-3.8,110.8-44.2,130-98.4"/>
		<path class="st3" d="M2971.2,1298.9c36.1-8.3,65.6-40,71.4-76.6"/>
		<path class="st3" d="M3150.8,1307.8c12.4-17.1,24.8-34.1,37.2-51.2"/>
		<path class="st3" d="M3201.7,1207.9c8.7-17.5,12.8-37.3,11.8-56.8"/>
		<path class="st3" d="M3176,1176.7c5.9-21.2,7.1-43.7,3.5-65.5"/>
		<path class="st3" d="M3110.3,1190.4c18.5-16.1,29.5-40.4,29.4-64.9"/>
		<path class="st3" d="M3301.3,1028.5c7.6-33.7-2.3-70.9-25.7-96.4"/>
		<path class="st3" d="M3267.1,1031.4c8.4-34.2-0.2-72.2-22.7-99.3"/>
		<path class="st3" d="M3215.6,1046.5c14.7-4.4,27-16.2,32.1-30.7c5.1-14.5,2.8-31.4-6-44"/>
		<path class="st3" d="M3195.9,1071.2c8.9-25.5,13-52.6,12-79.6"/>
		<path class="st3" d="M3130.4,1091c19.6-25.6,32.6-56.1,37.6-88"/>
		<path class="st3" d="M3049.6,1172.5c21.4-25.4,43.3-51.7,53.5-83.4c13.5-41.7,4.8-87.4-9.7-128.8"/>
		<path class="st3" d="M3149.7,983.5c17.6-69.6,8.3-145.6-25.4-208.9c-33.8-63.3-91.7-113.4-159.3-137.6"/>
		<path class="st3" d="M3108.4,940.4c10.5-32.4,8.8-68.6-4.7-99.8c-13.5-31.2-38.7-57.3-69.4-71.8"/>
		<path class="st3" d="M3007.5,719c-10.9-13.8-22.4-28.1-38.3-35.7s-37.5-6.4-48.3,7.5"/>
		<path class="st3" d="M3058.2,924c-6.1-13.4-12.7-27.3-24.3-36.4c-11.6-9.1-29.8-11.6-40.5-1.4"/>
		<path class="st3" d="M3252,892.8c-4.5-11.1-9.3-22.5-17.9-30.8c-8.6-8.3-22.1-12.8-32.8-7.5"/>
		<path class="st3" d="M3175.7,673.6c-7-9.2-14.5-18.7-25-23.5s-25-3-30.8,6.9"/>
		<path class="st3" d="M3111.8,610.5c0.6-16.8-6.7-34.5-21.2-43.1s-35.8-5.2-44.3,9.3"/>
		<path class="st3" d="M3018.2,527.4c-1.3-12.9-9.6-24.9-21.2-30.7c-11.6-5.8-26.2-5.1-37.2,1.8"/>
		<path class="st3" d="M3204.4,803.7c-9.2-45.3-38.9-86-79.1-108.6"/>
		<path class="st3" d="M3067.2,644.7c-7.5-13-15.3-26.3-26.4-36.3c-11.2-10.1-26.6-16.6-41.3-13.6"/>
		<path class="st3" d="M3234.7,741.3c-4.9-17.2-20.4-30.9-38.1-33.7"/>
		<path class="st3" d="M2907.6,674.1c-9.6-9.2-19.9-18.9-32.9-21.7c-13-2.8-29.1,4.5-30.8,17.7"/>
		<path class="st3" d="M3029.7,827.1c-3.3-16.7-10-34-24.2-43.2c-14.2-9.3-37.2-5.9-43.3,10"/>
		<path class="st3" d="M2856,705.2c-16.1-15.1-45-13-58.7,4.2"/>
		<path class="st3" d="M2796.8,607.8c-10.8-9.4-25-14.7-39.2-14.7"/>
		<path class="st3" d="M2780.1,735.4c-10.7-16.8-30.4-27.5-50.3-27.3c-19.9,0.2-39.4,11.4-49.6,28.5"/>
		<path class="st3" d="M2676.8,680.2c-9.7-15-30.6-19.6-47.9-15c-17.3,4.5-31.8,16.2-45.1,28.2"/>
		<path class="st3" d="M2734.1,807.3c-11.9-13.1-26.1-24.9-43.1-30s-37.1-2.4-49.6,10.1"/>
		<path class="st3" d="M2629,747.4c-23.4-12.5-54.7-8.1-73.8,10.4"/>
		<path class="st3" d="M2685.2,842.1c-14-12-37-11.7-50.6,0.8"/>
		<path class="st3" d="M2549,785.3c-23.5-9.7-53.6,1.1-65.4,23.7"/>
		<path class="st3" d="M2939.8,1210.3c39.1-7.6,71.3-42.5,75.8-82.1"/>
		<path class="st3" d="M2741.5,562c-6.9-23-36.1-36.3-58-26.4"/>
		<path class="st3" d="M2708.4,602.6c-14.2-9.2-33.3-10.4-48.5-3"/>
		<path class="st3" d="M2666.5,507.3c-14.2,0.9-28.5,1.9-42.7,2.8"/>
		<path class="st3" d="M2789.6,647.2c-3.8-26-31.9-45.8-57.7-40.7"/>
		<path class="st5" d="M2979.2,668.8c8.1,4.3,16.4,8.9,22.2,16s8.5,17.6,4.1,25.6c-4.7,8.6-16.2,11.7-25.7,9.1s-17-9.8-22.9-17.6
			c-4.9-6.5-9-13.9-9.3-22c-0.3-8.1,4.3-16.8,12-19c10.2-3,20.1,5.6,25.7,14.6"/>
		<path class="st5" d="M3135.7,835.7c-19.4-10.1-41.5-14-63.4-15.4c-18.3-1.2-37.5-0.4-53.6,8.4c-6.2,3.4-12.1,8.5-13.9,15.3
			c-3.3,12.5,9,24.5,21.7,27s25.7-1.3,38.6-2.9c25.9-3.1,52.8,3.2,74.6,17.5C3205.2,928.7,3174.7,855.9,3135.7,835.7z"/>
		<path class="st5" d="M3001.3,603.9c-6.7,1.8-13.6,4.5-18,10c-4.3,5.5-4.9,14.4,0.4,19c34.1-5.4,69.6-1.1,101.4,12
			c5.1,2.1,10.3,4.4,15.7,4.2c33.1-1.6-20.8-34.4-26.9-37.4C3051.6,600.8,3025.5,597.5,3001.3,603.9z"/>
		<path class="st5" d="M3124.6,729.2c-18.2-3.5-37-1.7-55.5,0.4c-9.6,1.1-22.2,6-20.3,15.4c0.5,2.5,2,4.6,3.7,6.5
			c13.9,15.7,37.2,17.7,58.1,18.7c15.7,0.7,51.2,10.8,55-8.7C3169.3,742.7,3136.7,731.5,3124.6,729.2z"/>
		<path class="st5" d="M2726.3,570c-12.9,1.2-25.8,2.4-38.7,3.7c-1,3.2-2,6.4-2.9,9.6c31.1,6.3,62.7,9.5,94.4,9.7
			c-14.1-13.6-33.1-22.1-52.7-23.3"/>
		<path class="st5" d="M2649.6,780.4c11.1,7,22.3,14,33.4,21c-5.2,7.5-15,11.9-23.8,9.5s-15.2-12.3-12.7-21s14.7-13.4,21.8-7.8"/>
		<path class="st5" d="M2688.4,724.4c-12.5-17.1-34.7-26.5-55.7-23.7c-10.9,1.5-23.4,10-20.5,20.6c1.6,5.6,7,9.1,12.2,11.6
			c17.9,8.3,39,9.5,57.7,3.2c4.6-1.6,9.5-3.9,11.7-8.2c2.2-4.4,0.1-11-4.7-11.6"/>
		<path class="st5" d="M3008.2,493.2c11.1,7.7,21.3,16.8,30.3,26.9c-7.4,8.8-20.7,10.7-31.8,7.7c-11.1-3-20.6-10-29.8-16.9
			c0.2-13,16.5-22.6,27.9-16.6"/>
		<path class="st5" d="M2847.9,840.5c8.8-2.2,17.7-4.4,26.5-6.5c9.1,3.8,11.8,14.2,7.3,21.5c-4.5,7.4-14.6,11.8-24.8,12.9
			c-13.3,1.4-29.5-4.5-30.4-15.2c-0.6-6.6,5.1-13,12.6-15.7s16.4-2.2,24.1,0"/>
		<path class="st5" d="M3111,1050.1c13.1,14.5,9.5,37.2,4.1,56c-5.7,19.9-12.6,39.5-20.6,58.6c-8.4,20.1-18.6,40.3-35.2,54.5
			c-15.7,13.4-35.9,20.2-55.7,26c-19.3,5.7-38.9,10.7-58.5,15.1c4-18.6,18.2-33.5,33.8-44.4c15.6-10.9,33.1-19,48.5-30.2
			c21.8-16,36.1-38.3,50.6-60.7C3091.8,1103.8,3095.6,1066.6,3111,1050.1z"/>
		<path class="st5" d="M3184.7,1025.8c2.1,12.6,2.1,25.5,0,38.1c-10.8,5.4-24.5,5.5-34.4-1.3c-10-6.8-14.9-20.7-10.1-31.7
			c4.8-11,20-16.6,30.2-10.2"/>
	</g>
	<g class="st6">
		
			<image style="overflow:visible;" width="1877" height="758" xlink:href="F76EC9DE.png"  transform="matrix(0.24 0 0 0.24 1831.6801 1144.3199)">
		</image>
	</g>
	<g>
		<path class="st7" d="M1751.8,427.7"/>
		<path class="st7" d="M1850.7,491.2c0,0-9.4-30.4,2.7-40.1c0,0-33.5-12.9-14.1-51.2c0,0-19.4,18.5,25,34.3
			c4.4,3.2,10.9,5.2,20.6,6.5c9.7,1.2,21.8-6.9,21.8-6.9s19.8-15.3,29.8-8.1c10.1,7.3,22.2,22.2,22.2,22.2c15.9,0.4,22.3,4.9,25,9.3
			c2.3,3.7,2,7.3,5.6,14.9c2.5,5.2,5.2,9.1,7.3,11.7c0,0,8.9,9.3,13.3,22.6c4.4,13.3,10.1,14.9,10.1,14.9s5.2,1.2,6.9,16.9
			c1.6,15.7,23.8,27,23.8,27s-21,4.8-29.4-10.9c0,0,0.4,25.4,35.1,21.4c0,0-15.3,14.1-25.8,12.5c0.6,2.4,1.8,5.5,4.2,8.3
			c7.7,9.2,21.1,7.6,22.4,7.4c-12.2,1.5-23.5,1.7-33.9,0.9C1930.4,598.3,1869.5,518.1,1850.7,491.2z"/>
		<path class="st1" d="M1858.6,451.9c-0.6,2.6-1.2,5.1-1.8,7.7c2.1-3.5,4.9-6.5,8.2-8.8c-0.9,2.6-1.8,5.3-2.7,7.9
			c2.8-3.3,5.6-6.7,8.4-10c-0.4,2.3-0.8,4.7-1.2,7c2.5-2.9,5.5-5.5,8.8-7.6c-1,2.5-2.1,5-3.1,7.6c3.1-3,6.1-6,9.2-9
			c-0.7,1.7-1.3,3.4-2,5.1c2.8-3,5.9-5.6,9.3-7.9c-0.8,1.8-1.7,3.7-2.5,5.5c2.5-2.6,5.4-4.8,8.6-6.6c-0.5,1.8-1,3.5-1.5,5.3
			c3.6-2.3,7-4.9,10.2-7.9c-0.8,2.1-1.5,4.3-2.3,6.4c2.6-2.2,5.3-4.4,7.9-6.5c-0.2,1.9-0.5,3.7-0.7,5.6c3.6-2,7-4.4,10.1-7.1
			c-0.4,2-0.9,4-1.3,5.9c2.8-1.4,5.6-2.9,8.3-4.3c0.1,1.8,0,3.6-0.3,5.3c1.7-0.6,3.4-1.4,4.9-2.4c-0.4,1.3-0.5,2.7-0.3,4.1
			c2.5-0.4,5-1.2,7.2-2.4c-0.2,1.3,0,2.7,0.4,3.9c1.5-0.6,2.9-1.4,4.1-2.5c0.2,1.9,0.5,3.8,0.7,5.7c1-0.8,2-1.6,3-2.5
			c-0.1,1.4-0.1,2.8-0.2,4.2c1.7-1,3.2-2.3,4.5-3.8c0.2,0.9,0.5,1.7,0.7,2.6c1.8-0.7,3.6-1.8,5-3.2c-0.6,1.9-1.2,3.7-1.8,5.6
			c1.8-1.6,3.6-3.2,5.3-4.8c-0.1,1.5-0.2,3-0.3,4.6c1.4-1.4,2.8-2.9,4.2-4.3c-0.2,1-0.4,2-0.6,3c1.5-1.1,2.9-2.3,4.4-3.4
			c0.5,1.5,0.6,3.2,0.5,4.7c1.4-0.3,2.8-1,3.9-1.9c0.2,1.1,0.4,2.2,0.6,3.2c1.7-0.9,3.4-1.9,5.1-2.8c0.3,0.8,0.6,1.6,0.9,2.3
			c0.9-0.4,1.7-0.9,2.6-1.3c-0.5,3.4-2.2,6.5-4.6,8.9c0.1-1.2,0.2-2.5,0.4-3.7c-2.7,2.2-5.4,4.5-8.1,6.7c-0.4-1.1-0.9-2.2-1.3-3.3
			c-2.4,0.9-4.7,2.1-6.8,3.8c0.3-1.3,0-2.7-0.7-3.8c-2.2,1.4-4.4,2.8-6.5,4.2c1.7-1.5-0.3-4.5-2.5-4.5c-2.2,0-4,1.8-5.6,3.4
			c-0.3-2.1-0.9-4.1-1.8-6c-2.2,0.9-4.3,2.1-6.1,3.7c-0.1-1.8-0.5-3.6-1.2-5.3c-2.4,1.2-4.6,2.7-6.6,4.5c0.9-2.1-1.4-4.5-3.7-4.5
			c-2.3,0-4.3,1.4-6.1,2.9c-0.5,0.4-1.2,0.9-1.8,0.7c-1.1-0.4-0.8-2.1-1.2-3.2c-0.8-2.4-4.4-1.4-6.4,0.2c-1.9,1.6-4.7,3.6-6.6,2
			c-0.9-0.7-1.1-2-2-2.9c-1.9-1.9-5.2-0.2-7.2,1.5s-5.2,3.6-7.2,1.8c-0.6-0.6-1.1-1.4-2-1.5c-0.7-0.1-1.4,0.4-1.9,0.9
			c-2.7,2.4-5.4,4.9-8.2,7.3c-0.5-0.8-1-1.7-1.5-2.5c-2.8-0.2-4.7,4.6-7.4,3.5c-0.8-0.3-1.3-1.1-2.1-1.4c-1.9-0.7-3.5,1.6-5.3,2.3
			c-2.8,1.2-6.5-0.7-8.5,2c-4.3-4.9-6.3-10.4-0.9-15.2c-0.1,1.4-0.3,2.9-0.4,4.3C1853.3,457.5,1855.7,454.5,1858.6,451.9z"/>
		<path class="st7" d="M2230.4,633.3c20.6-9,50.5-18.1,74.2-5.1c21.6,11.9,30.6,35.9,35.1,57.9c20.6,100.4,76.2,131.8,76.2,131.8
			s-88.3-23-107.7-72.6c0,0-0.7,18,7.4,28.8c-15.3-8.8-31.5-22-36-41.4c-3.3-14.1,0.5-28.1-1.6-28.5c-2-0.4-6.7,13.2-9.1,25.8
			c-2.1,11.1-2.3,20.5-2.2,26.9c-1.5-6.5-3-15.8-2.2-26.9c0.6-8.7,2.5-16,4.3-21.5c6.4-26,0.2-49.5-14.8-58.3c-3.1-1.9-8.3-4-15.9-4
			C2235.6,641.9,2233,637.6,2230.4,633.3z"/>
		<path class="st8" d="M1913,610.6l-21.8,30.1c0,0-9.3,12.5-15.3,18.1s-2.1,39.2-2.1,39.2c2.4-1,13,13.2,13,13.2
			s-28.2,23.8-34.7,31.4c-6.5,7.7-33.2,32.4-33.2,32.4s-0.5,23.1,4.6,22c5.1-1.1,21,36,20.2,50s12.6,13.7,12.6,13.7
			s11.3,3.5,13.7,12.9c2.4,9.4,12.4,2.4,12.4,2.4h22c0,0-10.2-29.6-18.3-23.1c-8.1,6.5-23.1-4.3-23.1-4.3s12.4-23.7,2.7-18.3
			c-9.7,5.4-19.9-23.7-19.9-23.7s-7.5-25.3,5.9-29.6c13.4-4.3,73.1-36,73.1-36s19.4,5.4,22,17.2c2.7,11.8-11,69.9-17.7,73.9
			c-6.7,4-18.3,31.7-18.3,31.7s0,0,0.8,4.8c0.8,4.8-4.7,12.5-4.7,12.5c4.4,6-43.1,65.3-43.1,65.3l-17.3,21c6,12.9,27,2.8,31.9-0.4
			c4.8-3.2,2.4-6.5,1.2-10.9c-1.2-4.4,7.7-10.1,7.7-10.1s12.9-2,12.9-4.4c1.2-24.6,17.3-56.4,20.2-60.1
			c29.8-30.6,33.9-58.1,33.9-58.1s23.7-43.5,44.4-51.3c20.7-7.8,66.1-0.3,66.1-0.3c-4,11.8,4.8,13.7,4.8,13.7s27.7,16.4,31.2,20.7
			s23.7,6.3,23.7,6.3c21.8,15.7,7.3,34.3,7.3,34.3c3.6,3.2-23.4,45.2-31,49.2c-7.7,4-38.4,47.7-40.1,50.9c-1.6,3.2,2.4,4.4,2.4,4.4
			c28.8,4.6,34-15.1,34-15.1s-12.7-2.2-2.2-8.5c10.5-6.2,21.6-33.9,28-38.3c6.5-4.4,29.4-52.4,29.4-52.4l11.7-20.2
			c0,0-14.1-8.1-16.5-9.7c-13.7-3.2-21.8-41.9-15.3-48s9.7-14.5,11.7-19.4c2-4.8,14.1-2.8,13.7-1.2c0.8,10.5,20.2,33.1,20.2,33.1
			s17.7,19.4,31.4,23.4c13.7,4,44.4,58.1,44.4,58.1s4,69.4-4.8,91.1c-8.9,21.8-16.1,40.3-16.1,40.3c40.3,9.7,36.3-21,36.3-21
			s3.2-1.6-4.8-8.9c-8.1-7.3,12.1-25,12.1-25l2.4-73.4c0,0-4.8-14.5-1.6-35.5c3.2-21-22.6-36.3-22.6-36.3s0,0-9.7-15.3
			c-9.7-15.3,7.3-91.9,7.3-91.9s7.3-17.7-23.4-54c-30.6-36.3-87.4-28.8-120.2-16.9c-32.8,11.8-90.3-4.8-87.1-17.7
			c3.2-12.9-7.3-29-7.3-29s-8.9-12.1-9.7-21.8c0.8-29.8-41.1-66.9-41.1-66.9c-54.8-52.4-96-3.2-106.4,6.5s-11.8,47.6-11.8,47.6
			l-1.3,16.1c0,0,5.9,5.1,6.2,6.5c5.9,7.8,4.8,14.8,4.8,14.8c4.3,1.9-0.3,40.9-0.5,52.4s12.9,21.5,12.9,21.5c19.9,11,29.3-3,29.3-3
			c3-3.2-1.3-10.2-1.3-10.2s-1.3-7.8,0.8-9.7c2.2-1.2,6-3.6,8.9-7.8c6.5-9.4,1.6-17,8.1-27.8c3.6-5.9,6.4-5.8,8.6-11.7
			c2.2-5.8,1.5-11.6,0.5-15.6c-1.6-6-4-13.1-7.5-20.7c-3.7-8-7.8-14.6-11.6-19.9c7.5,10.5,11.7,20.1,14,26.6c4,11.2,8.1,23,2.8,32.9
			c-2.3,4.3-4.3,4.2-6.9,8.3C1907.5,586,1908,597.1,1913,610.6z"/>
		<path class="st9" d="M1876,498.8c0,0,0-15.5,8.9-22c8.9-6.5,10.1-18.7,10.1-18.7s2.2,27.2-11.1,40.7H1876z"/>
		<path class="st9" d="M1854.2,495c0-0.8-9.4-3.8-18.4-32.7c0,0-0.9,31.4,14.5,41.5L1854.2,495z"/>
		<path class="st7" d="M1850.9,483.9c-2.5,0.1-5.1,0.5-7.9,1.3c-15.8,4.5-23.8,19-26.3,24c0,0,17.3-18.5,20.6-17.3
			c0,0-27,51.6-8.1,79.8c0,0-14.5-29.4,0.4-46.4c14.9-16.9,20.2-17.3,20.2-17.3s-2.8,28.6-10.5,46c0,0,20.2-16.9,24.2-42.3
			c0,0-12.9,52.8-20.2,75c5.2-12.3,13.5-32.6,20.4-53.5c0.9-2.6,2.5-9.1,5.9-22c3.7-14.2,4.6-18.8,2.7-24.2
			c-1.7-4.6-6.3-12.1-12.4-11.6C1854.2,475.8,1851.1,483.3,1850.9,483.9z"/>
		<path class="st9" d="M1880.6,620.4c3.8,1.5,6.7,5.5,6.4,9.2c-0.2,2.5-1.9,4.9-2.7,4.7c-0.7-0.1-0.4-1.9-1.4-4.3
			c-0.2-0.5-1.7-4.1-4.5-5.4c-2.9-1.3-6.7-0.2-9.9,2.4c0.1-0.6,0.7-4,3.9-6C1876,618.6,1879.9,620.1,1880.6,620.4z"/>
		<path class="st9" d="M1891.2,536.4c-1.7,1.6-3.5,3.2-5.5,4.8c-2.4,2-4.8,3.6-7.1,5.1c0.6,0.2,4.3,1.3,7.8-0.8
			C1889.5,543.6,1891.4,540.2,1891.2,536.4z"/>
		<g>
			<path class="st1" d="M1873.2,495.6c-1.9,3-3.4,6.1-4.7,9.2c0.5-4.1,1-8.2,1.5-12.3c-3.1,3.5-6.1,7-9.2,10.5
				c1-3.5,2.1-7.1,3.1-10.6c-2.8,2.7-5.3,5.5-7.5,8.6c1-3.7,1.9-7.4,2.9-11c-3.6,3.5-6.9,7.2-9.8,11.1c-0.1-3.7,0-7.5,0.1-11.2
				c-2,3-4,6.1-6,9.1c-0.3-2.6-0.2-5.3,0.2-7.9c-1.4,2.2-2.8,4.4-4.2,6.6c-0.7-2.2-0.7-4.6,0-6.8c-1.5,2.1-3,4.2-4.5,6.3
				c0-0.4,0.1-0.9,0.2-1.3c-1.3,2.7-3,6.7-4.8,11.5c0.9-1.2,1.8-2.3,2.7-3.5c-0.8,2.7-0.5,5.5,0.8,8.1c1.5-2.6,3.3-5.2,5.2-7.7
				c-1,1.9-1.4,4-1.2,6.1c2.9-2.2,5.7-4.3,8.6-6.5c0.2,2,0,4-0.8,5.9c0.1-0.1,0.3-0.2,0.4-0.3c0.7-1.1,1.4-2.2,2.1-3.4
				c-0.3,0.8-0.5,1.7-0.7,2.6c1.5-0.8,2.1-0.8,2.1-0.8s-0.1,1.2-0.4,3.3c1-1.6,2.1-3.2,3.1-4.8c-0.6,3.2-0.9,6.4-0.8,9.6
				c1.7-3.1,3.4-6.1,5.2-9.2c-1.2,2.7-1.3,5.6-0.3,8.3c1.7-2.3,3.4-4.6,5-6.9c-1.3,2.3-1.3,5.1,0,7.5c1.5-2.1,3.1-4.1,4.6-6.2
				c0.2,2.4,0.4,4.8,0.7,7.2c0.6-0.6,1.2-1.1,1.7-1.7c0.3-1.2,0.7-2.5,1-3.9C1871.5,503.9,1872.7,499.2,1873.2,495.6z"/>
			<path class="st1" d="M1824,501.8c2.5-2.5,5.4-5.1,7.8-7c0.4-1.3,0.7-2.5,0.9-3.8c-3,2-6.1,4.5-7.5,7.5
				C1824.7,499.5,1824.3,500.6,1824,501.8z"/>
			<path class="st1" d="M1836.2,491.9c0.2-0.7,0.4-1.4,0.6-2.1c-0.7,0.9-1.4,1.9-2.1,2.8C1835.2,492.3,1835.7,492,1836.2,491.9z"/>
		</g>
		<g>
			<path class="st1" d="M2325.7,655.5c2.5,2,4.8,4.1,6.9,6.3c-3.6-8.7-8.4-17-15-23.8c-0.2,1.7-0.4,3.5-0.5,5.2
				c-1.8-3.3-3.5-6.7-4.9-10.2c-1.2-1-2.5-1.9-3.9-2.8c-0.8,5.2-1,10.4-0.8,15.6c-3.2-6.1-5.4-12.5-6.6-19c-0.3,7.2-0.7,14.4-1,21.6
				c-5.3-5.6-9-11.9-10.8-18.5c1,6.8,2,13.6,3,20.4c-4.4-6.4-8.8-12.8-13.2-19.3c0,6.8,0.5,13.6,1.6,20.4
				c-4.1-5.2-7.7-10.5-10.8-16.1c0.2,6.5,0,13.1-0.4,19.6c-3-5.1-5.2-10.4-6.5-15.9c-1.4,6-1.5,12.2-0.4,18.3
				c3.3,4.2,5.7,9.5,7.3,15.5c0.6-2.9,1.3-5.8,1.9-8.7c2.9,3.5,5,7.3,6.2,11.3c1.1-5.3,1.4-10.7,1-16.1c3.5,4,7.1,7.9,10.6,11.9
				c-0.1-4.2-0.1-8.4-0.2-12.6c3.3,5.6,7.1,11,11.4,16.2c0.6-5.9,1.1-11.9,1.7-17.8c3.8,4,7.7,7.9,11.9,11.7c0.7-3.3,1.5-6.6,2.2-10
				c3.9,3.4,7.8,6.8,11.6,10.2C2327.2,664.7,2326.4,660.1,2325.7,655.5z"/>
			<path class="st1" d="M2255.4,651.1c2.3,1.6,4.4,3.5,6.2,5.8c-1.9-4.2-3.9-8.4-5.8-12.7C2255.8,646.5,2255.6,648.8,2255.4,651.1z"
				/>
		</g>
		<g>
			<path class="st2" d="M2334.9,726.1c2.5,2.9,5,5.9,7.4,8.8c1.9-4,3.7-7.9,5.6-11.9c1.1,1.5,2.2,3.1,3.4,4.6
				c-1.7-4.7-3.4-9.7-4.9-14.8c-0.3,0.8-0.5,1.6-0.8,2.4c-1.5-4.7-3-9.5-4.5-14.2c-2.2,4.9-4.5,9.8-6.7,14.7c-1-4.7-2-9.5-3-14.2
				c-2.7,4.6-4.7,9.4-6.1,14.2c-1.2-3.5-2.4-7-3.6-10.5c-1.6,5.7-3.2,11.4-4.9,17.2c-0.7-4.8-1.4-9.5-2.1-14.3
				c-2.4,4.4-3.9,9-4.5,13.7c-1.5-4.1-3.1-8.1-4.6-12.2c-1.6,4.5-3.2,9-4.8,13.5c-1.3-4.2-2.6-8.4-3.8-12.7c-1.7,5-4,9.9-7.1,14.6
				c-0.7-4.2-1.4-8.4-2.1-12.6c-1.8,4.2-3.5,8.3-5.3,12.5c-2.1-3.1-3.5-6.5-4.1-9.9c-0.2,5.1-0.2,11.5,1.3,17.9c0.7,3.1,1.7,6,3,8.7
				c2,1.5,3.8,3,5.5,4.7c1.2-4.6,3.6-9,6.9-13c3.3,2.2,6,4.9,8,7.7c0.6-3.2,2.1-6.2,4.3-9c2.5,3.6,5,7.1,7.5,10.7
				c0.8-4.7,2.4-9.4,4.6-13.9c4.2,3.3,8.1,6.7,11.7,10.3C2332.4,734.8,2333.7,730.4,2334.9,726.1z"/>
			<path class="st2" d="M2272,717.3c-0.9-1.9-1.9-3.8-2.8-5.7c-0.5,5-0.7,10.1-0.5,15.1c-1-2-1.9-3.9-2.9-5.9
				c-0.5,2.9-0.9,6-1.2,9.3c-0.1,1.5-0.2,3.1-0.2,4.5c0.8,1.5,1.8,3,3,4.4c0,0,0.1,0.1,0.1,0.1c0.3-2.9,0.8-5.9,1.4-9.1
				C2269.7,725.7,2270.8,721.2,2272,717.3z"/>
		</g>
		<path class="st9" d="M2232.9,987.3c40.3,9.7,36.3-21,36.3-21s2.3-1.1-1.8-5.8c-8.8,0.7-17.8,3-26.3,6
			C2236.2,978.8,2232.9,987.3,2232.9,987.3z"/>
		<path class="st9" d="M2097.4,938.9c0,0-6.4-1.1-6.4-4c-5.2-0.7-10.8-0.1-16,0.7c-1.3,0.2-3.1,0.4-5,0.7c-4.9,6.9-8.5,12.2-9,13.2
			c-1.6,3.2,2.4,4.4,2.4,4.4C2092.1,958.6,2097.4,938.9,2097.4,938.9z"/>
		<path class="st9" d="M1878.8,969.6c4.4-2.9,2.8-5.8,1.6-9.6c-5.2-3.3-11.9-4.6-18.2-5c-0.9-0.1-1.8-0.1-2.7-0.2L1847,970
			C1853,982.9,1874,972.8,1878.8,969.6z"/>
		<path class="st9" d="M1886.6,855.3c-1.6,1.3-3.4,1.9-5.4,2c-0.3,4.6,0.9,9.8,1.5,13.1c0.5,2.7,1.1,5.5,2.1,8h20
			C1904.9,878.5,1894.7,848.9,1886.6,855.3z"/>
		<path class="st10" d="M1860.7,961.2c-0.6,2.4-1.2,4.7-1.8,7.1c2.1,0.9,4.9,0.4,6.2-1.5c1.3-1.9,0.5-5.1-1.8-5.7
			c-0.7-0.2-1.7,0.1-1.6,0.8"/>
		<path class="st2" d="M1858.7,604.3c-1.6,4.9-2.4,10.1-2.3,15.2c0,0.6,0.1,1.3,0.4,1.8c0.7,1,2.2,0.8,3.2,0.2
			c2.8-1.5,3.7-5.3,3-8.4c-0.7-3.1-2.7-5.7-4.6-8.3"/>
		<path class="st2" d="M1860.3,566.6c-0.4,10.7-0.3,21.5,0.3,32.3c2.9-4.4,4.2-11.2,4.4-17.8c0.2-6.6-0.6-13.2-1.5-19.7
			c-0.5-3.8-0.5-12.3-2.9-13.2C1860.5,554.3,1860.6,560.5,1860.3,566.6z"/>
		<g>
			<path class="st1" d="M2008.5,502.5C2008.5,502.5,2008.5,502.5,2008.5,502.5c-1,1.5-1.8,3.2-2.4,4.9c0.6,1.1,1.1,2.1,1.7,3.2
				C2008.6,508,2008.8,505.2,2008.5,502.5z"/>
			<path class="st1" d="M2006.1,507.4c0,0,0-0.1-0.1-0.1c-0.1,0.1-0.1,0.1-0.2,0.2c0,0.3,0,0.5-0.1,0.8
				C2005.9,508,2006,507.7,2006.1,507.4z"/>
			<path class="st1" d="M1994.6,506.9c0.9,1.4,1.4,3,1.5,4.7c1.5-1.9,3.1-3.8,4.6-5.6c0.3,2.1,0.6,4.2,0.9,6.3
				c1.4-1.6,2.9-3.2,4.3-4.7c0.2-3.2,0.4-6.3,0.5-9.5c-0.1-0.3-0.3-0.6-0.4-0.9c-1.2,1.4-2.1,3-2.7,4.7c0.4-2.4,0.5-4.9,0.4-7.4
				c-2.2,2.4-4.1,5.1-5.7,8c0-2.4,0.2-4.9,0.5-7.3c-2,2.4-3.9,4.8-5.9,7.2c0.1-1.6,0.3-3.2,0.4-4.7c-0.2,1.9-3.2,3.3-3.2,5.3
				c0,1.8,2,4.6,3.1,5.9C1993.3,508.2,1994,507.5,1994.6,506.9z"/>
		</g>
		<path class="st9" d="M1919.2,544.5c3,8.9,5.8,19.2,0.8,27.1c-2.3,3.6-5.9,6.1-8.5,9.5c-3.3,4.3-4.8,10-4,15.4
			c0.3,2.1,1.2,4.4,3.2,5.1c3.3,1.2,6.1-3.2,5.9-6.7s-2.1-6.9-1.7-10.4c0.6-5.2,5.8-8.5,8.5-13c3.7-6.2,2.3-14,0.9-21
			c-1.5-7.3-3.2-14.7-6.3-21.6c-2.7-5.8-7.1-12.7-13-15.5C1911.8,522.8,1915.6,533.6,1919.2,544.5z"/>
		<path class="st9" d="M1892,651.1c-3.5,6.6-5.5,14.3-3.7,21.5c2.4-0.9,3.7-3.6,4.6-6c2.4-5.7,13.2-23.5,8.7-28.3
			C1897.7,641.8,1894.5,646.5,1892,651.1z"/>
		<path class="st9" d="M2001.6,752c4.5-6.5,10.8-11.5,15.7-17.7c7.4-9.5,11-21.4,12.2-33.4c1.2-11.9,0.3-24-0.7-36
			c5.1,13.1,4.7,27.6,4.2,41.7c-0.2,4.7-0.3,9.4-1.9,13.9c-1.3,3.8-3.5,7.1-5.7,10.5c-9,13.6-17.9,27.1-26.9,40.7
			c-1,1.6-1.8,2.7-3.6,3.2C1993.3,767.5,1997.4,758.1,2001.6,752z"/>
		<path class="st9" d="M1923.8,704.2c-0.2-38.1,17.9-73.6,35.6-107.3c-13.2,8.5-16.4,26-22,40.7c-6.6,17.4-18,33.4-19.9,52
			c-1.3,12.3,1.9,24.6,6.8,35.9c2.6,6,10.4,27.2,18.1,25.9c13.6-2.2-5-14.2-7.7-16.7C1926.2,726.5,1923.9,715.7,1923.8,704.2z"/>
		<path class="st9" d="M1785.3,724.4"/>
		<path class="st9" d="M1869.5,832.4c-0.5-0.6-1.5-0.6-3.3,0.4c-9.7,5.4-19.9-23.7-19.9-23.7s-7.5-25.3,5.9-29.6
			c11.5-3.7,57-27.5,69.8-34.2c-10.2-10.7-23.5-22.7-37.8-29.1c-7.5,6.4-26.4,22.7-31.5,28.8c-6.5,7.7-33.2,32.4-33.2,32.4
			s-0.5,23.1,4.6,22c5.1-1.1,21,36,20.2,50c-0.3,5.7,1.7,9,4.3,11c2.2-0.9,4.3-2.1,6.2-3.6C1862.5,850.7,1866.6,842,1869.5,832.4z"
			/>
		<path class="st9" d="M1856.8,863.1c0,0,5.8,1.8,10,6.3c1.1-6.1-2.7-12.9-8-16.8c-4.2-3.1-9.4-5-14.6-4.8c0,0.6,0,1.1,0,1.6
			C1843.4,863.4,1856.8,863.1,1856.8,863.1z"/>
		<path class="st9" d="M2164.3,819.6c0,0-14.1-8.1-16.5-9.7c-11.5-2.7-19-30.1-17.4-42.6c0.2-0.7,0.4-1.6,0.8-2.7
			c0.9-2.4,1.7-3.3,1.5-3.5c-0.5-0.6-6.2,4-10.5,6.9c-7.6,5.1-14.5,7-19.6,8.5c-15.6,4.4-30.5,1.7-38.1-0.1c-1.1,5.2,0,7.4,1,8.8
			c1.7,2.4,4.4,3,4.4,3s27.7,16.4,31.2,20.7c3.5,4.3,23.7,6.3,23.7,6.3c21.8,15.7,7.3,34.3,7.3,34.3c1.1,0.9-0.5,5.2-3.4,10.8
			c3.9,2,8.2,3.1,12.3,3c6.3-12.1,11.7-23.4,11.7-23.4L2164.3,819.6z"/>
		<path class="st9" d="M2220,617.4c-31.8-26.2-81.5-19-111.4-8.3c-17.6,6.4-42.4,4.5-61-0.6c5,4.7,19.9,7.5,23.9,7.8
			c7.1,0.5,14.1,0.9,21.2,0.6c18.1-0.8,35.6-6.8,53.5-10.1c17.9-3.2,37.5-3.4,52.8,6.4c3.7,2.4,7.2,5.3,11.4,6.4
			C2213.7,620.5,2217.8,619.8,2220,617.4z"/>
		<path class="st9" d="M2233.8,817.3c-9.7-12-19.5-24.1-31.6-33.6c-10.8-8.6-24-15.8-29.4-28.5c-7.6-18.1,3.6-39.8-3.4-58.1
			c-2.3-6-6.6-11.7-5.6-18.1c1.9-11.8,19.8-14.8,22.7-26.4c1.7-6.6-2.6-13.5-8.4-17.1c-5.8-3.6-12.7-4.5-19.5-5.4
			c-9.7-1.3-19.5-2.6-29.2-3.8c-5-0.7-10.3-1.3-15,0.4c-4.8,1.7-8.8,6.6-7.8,11.5c7.7,4.6,17.3,2.9,26.2,2.2
			c8.9-0.7,19.4,0.5,24,8.2c3.4,5.7,2.2,13,0.9,19.5c-3.8,19-7.6,38.1-11.4,57.1c-1.1,5.3-2.1,10.8-1.6,16.2
			c3.2-3.4,13.4-1.6,13-0.1c0.8,10.5,20.2,33.1,20.2,33.1s17.7,19.4,31.4,23.4c9.4,2.8,26.9,29.2,36.8,45.4
			C2247.1,834.5,2238,822.5,2233.8,817.3z"/>
		<path class="st9" d="M2277.2,823.6c3.2-21-22.6-36.3-22.6-36.3s0,0-4.5-7.2c-2,14.8,13.4,45.1,17.1,53.2c3.8,8.5,7.7,17,11.5,25.6
			c0.1,0.1,0.1,0.3,0.2,0.4l0-0.2C2278.8,859.1,2274,844.6,2277.2,823.6z"/>
		<path class="st2" d="M2224.9,717.7c0,0.2,0.8,4.8,4.1,6.2c2.2,0.9,5.4,0.5,6.9-2.7c1.3-2.8,0.7-6.6-1.2-8.7
			c-2.7-2.8-6.2-0.5-6.4-0.4C2225.7,713.9,2225,717.2,2224.9,717.7z"/>
		<path class="st2" d="M1956.1,671.8c-3.5,7-4.8,14.8-5.8,22.6c-1.1,9.2-1.1,19.9,6,25.9c1.1,0.9,2.4,1.7,3.8,1.4
			c0.9-0.2,1.6-0.9,2.2-1.6c2.7-3.2,4-7.6,3.4-11.7c-0.8-5-4.1-9.4-4.6-14.5c-0.7-8.6,7.1-15.4,14.7-19.7c3.5-1.9,7.1-3.7,10-6.5
			c8-7.8,2.7-18-7.6-16.6C1970,652.3,1959.6,665,1956.1,671.8z"/>
		<path class="st2" d="M1962.6,508.8c5.9,8,9.9,17.1,13.8,26.2c1.9,4.4,3.9,9.1,3,13.7c-0.8,4.7-5.8,8.9-10.2,7.2
			c-3.8-1.5-5.1-6.4-4.6-10.5c0.5-4.1,2.2-8,2.1-12.1c-0.1-9.2-8.5-15.9-16.3-20.5c-7.9-4.7-16.8-9.5-19.7-18.2
			c-0.4-1.2-0.7-2.6-0.1-3.8C1934.7,481.4,1959.9,505.1,1962.6,508.8z"/>
		<circle class="st2" cx="1984.9" cy="709.1" r="6.5"/>
		<path class="st2" d="M2202.6,645.3c-1.1-4.3,0.4-8.5,3-9.9c2.6-1.4,6.1-0.5,9.2,1.6c3.1,2.1,5.9,5.3,8.6,8.6
			c2.2,2.7,4.4,5.6,6.2,8.8c2.4,4.4,4,9.4,5.3,14.3c1.8,6.8,3,13.7,3.6,20.4c0.4,4.7,0.4,9.7-1.8,12.4c-1.5,1.9-3.9,2.3-6.3,2
			c-1.7-0.2-3.7-0.9-4.9-2.9c-1.3-2-1.4-4.6-1-6.7s1.3-3.7,1.9-5.6c1.7-6-0.2-14.3-3.9-20.6c-2.8-4.9-6.6-8.7-10.5-11.4
			C2208.1,653.7,2204.2,651.6,2202.6,645.3z"/>
	</g>
	<g>
		<path class="st0" d="M2509.4,449.8c24.3-14.8,48.6-29.7,72.9-44.5l27.7,8.3l-43.1,57C2547.8,463.6,2528.6,456.7,2509.4,449.8z"/>
		<path class="st9" d="M2597.3,409.7l-41.9,56.7c3.8,1.4,7.7,2.8,11.5,4.2l43.1-57L2597.3,409.7z"/>
		<path class="st0" d="M2147.9,271.5l291.5-35.7c0,0,77.9,15.1,31.9,39.6S2309,355.4,2309,355.4l-165.6-75.3L2147.9,271.5z"/>
		<path class="st0" d="M2011.5,437"/>
		<path class="st9" d="M2296.1,349.5l188.2-94.1c3.7,5.7,1.4,12.4-13,20.1c-46,24.5-162.2,79.9-162.2,79.9L2296.1,349.5z"/>
		<path class="st8" d="M2073.1,239.9c173.2,81,346.5,162.1,519.7,243.1c1.9,4.5,6.1,16.1,0.6,24.2c-1.7,2.5-4.5,5.1-9.9,6.8
			c-23.2,7.3-148.6-6-148.6-6s-38.2-4.5-139.2-42.9c-46.5-22.5-93-45.1-139.5-67.6l-226.9-103.1c0,0-47.4-57.5,56-70.2
			c9.5-1.9,23.2-3.4,39.6-1.3C2047.1,225.7,2063.7,234.1,2073.1,239.9z"/>
		<path class="st1" d="M1985.4,224.1c1.8-0.5,3.7-0.9,5.7-1.3c4.4-0.8,8.5-1.1,12.1-1.2c-4.2,9.1-11.5,21.4-24.4,31.7
			c-9.6,7.7-23,22.1-36.1,14.8c-9.4-5.2-16.6-9.7-21.9-13.4C1926.3,241.8,1943.4,229.3,1985.4,224.1z"/>
		<path class="st9" d="M1929.3,294.3c-1.5-1.9-3.1-4.2-4.5-6.8c-4.5-8.2-6-16.1-6.4-21.6c195.6,82.7,391.2,165.3,586.8,248
			c-36-2.4-70.2-6.1-70.2-6.1s-38.2-4.5-139.2-42.9c-46.5-22.5-93-45.1-139.5-67.6L1929.3,294.3z"/>
		<path class="st0" d="M2496.2,491.6c13.3,25.2,26.6,50.4,39.9,75.5l28.1,7.1l-7.9-71.1C2536.2,499.3,2516.2,495.5,2496.2,491.6z"/>
		<path class="st5" d="M1984.5,248.3c-1.8,1.7-3.7,3.4-5.7,5.1c-2.2,1.8-4.6,3.9-7.1,6l-10.6-30.8c4.2-1.1,8.7-2,13.7-2.9
			L1984.5,248.3z"/>
		<path class="st5" d="M1959.3,267.9c-1.5,0.7-3,1.3-4.6,1.7l-11.3-35c1.3-0.6,2.6-1.1,4-1.7L1959.3,267.9z"/>
		<g>
			<path class="st0" d="M2277.6,417.4c-50-21.1-100-42.2-150-63.4c45.1,68.1,90.2,136.3,135.3,204.4c0,0,50.7,52.7,61.8,19.9
				C2309,524.7,2293.3,471.1,2277.6,417.4z"/>
			<path class="st9" d="M2273.4,415.6c1.3,0.7,2.5,1.5,3.8,2.2c15.8,53.5,31.6,107,47.4,160.6c-2.2,6.4-5.9,9.6-10.4,10.5
				C2300.6,531.1,2287,473.4,2273.4,415.6z"/>
		</g>
		<path class="st9" d="M2551.3,571l-7-70.1c4,0.8,8,1.5,12,2.3l7.9,71.1L2551.3,571z"/>
		<circle class="st9" cx="2311.3" cy="383.9" r="15.5"/>
		<circle class="st9" cx="2252.4" cy="360.3" r="15.5"/>
		<circle class="st9" cx="2197.6" cy="338.4" r="15.5"/>
		<circle class="st9" cx="2148.2" cy="318.6" r="15.5"/>
		<circle class="st9" cx="2093.4" cy="296.6" r="15.5"/>
	</g>
	<g>
		<path class="st8" d="M2199.6,1170.5l-283.8,82.9c-10,2.9-20.6-2.9-23.5-12.9l-51.3-175.5c-2.9-10,2.9-20.6,12.9-23.5l283.8-82.9
			c10-2.9,20.6,2.9,23.5,12.9l51.3,175.5C2215.4,1157,2209.6,1167.6,2199.6,1170.5z"/>
		<path class="st9" d="M2150.8,994.4l-7.9-8.5c-35.2,41-70.3,82-105.5,123c-56.9-14.9-113.7-29.8-170.6-44.7l-5,14.5l110.7,27.5
			l-59.4,119l11.1,3.7l60.8-119.5l57.5,14.3l28.3-33.8l111.6,65.6l7.3-9.1L2079,1080L2150.8,994.4z"/>
	</g>
</g>
<g>
	<g>
		<path class="st0" d="M512.7,512c8.9,16-0.8,35.7-0.8,54.1c0.1,32.9,34.3,58,67.2,58.7c32.9,0.7,63.5-16.7,89.8-36.5
			c26.3-19.8,50.7-42.9,80.6-56.7c14.6-6.8,30.9-11.2,46.7-8.4c15.8,2.8,30.9,14.1,34.2,29.9c4,18.5-8.3,36.2-12,54.8
			c-5.8,29.2,9.7,57.8,22.1,84.9c30.6,66.7,44.7,141,40.5,214.3c-0.5,9.3-0.6,20.2,6.7,25.9c10.9,8.3,25.7-2.3,35.5-11.9
			c53.8-52.4,124.5-90.5,199.5-92.7c75-2.2,153.1,36.6,185.7,104.2c17.8,36.9,18,88.1-15.3,112c-27.6,19.8-67.2,12.4-95.5-6.3
			c-6-4-12.3-8.6-19.5-8.8c-11.1-0.3-19.5,9.6-26,18.6c-13.7,18.9-27.5,37.8-41.2,56.7c-22.2,30.6-45.8,62.4-79.8,79
			c-21.9,10.7-46.5,14.3-70.1,20.3c-36.9,9.4-71.9,24.8-107.9,36.8c-110.2,36.8-230.9,41.4-343.6,12.9
			c-37.5-9.5-75.2-23.2-103.6-49.4c-20.6-19-35.2-43.6-48.1-68.5c-39.7-76.8-66.2-168.2-35.5-249.1c13.3-35,36.4-65.5,51.3-100
			c13.1-30.5,19.5-63.3,25.8-95.9c9-46.5,11.1-103.8,29.7-147.4C440.1,518.1,490.4,471.9,512.7,512z"/>
		<path class="st1" d="M167.6,1204.1c-14.6,0.5-32.8-1.1-38.3-14.7c-6.9-17.1,13.1-31.7,28.4-42c13.2-8.9,25.3-20.7,30.2-35.8
			c4.9-15.1,0.7-34-12.8-42.3c-16.5-10.2-38.4-1.6-57.1-6.5c-20-5.2-33.3-25.3-36.6-45.7c-3.2-20.4,1.6-41.1,7-61.1
			c11-40.8,25.8-83.4,58.5-110.2s88.6-29.2,112.8,5.5c3.3-8.8,15.9-10.6,24.1-5.9s12.8,13.5,17.1,21.9c-1.3-11.3-2.6-22.6-3.9-33.9
			c11.2-7.5,27.1-3.7,37.3,5.2s15.9,21.6,21.4,34c44.4-0.2,88.8,6.7,131,20.4c14.9,4.8,30,10.7,41.5,21.5s18.6,27.3,14.3,42.4
			c-4.3,15.1-22.7,25.8-36.7,18.9c-7.1-3.5-11.8-10.4-17.2-16.1c-17.3-18.6-44.8-27.2-69.6-21.7c-24.9,5.5-46.2,24.8-54.1,49
			c-14.9,45.7,17,93.1,51.9,126.2c96.2,91.1,230.8,140.3,363,132.6c100.8-5.8,204.3-47.9,260.9-131.5c19.5-28.8,32.9-61.6,54.3-89
			c42.4-54.4,116.4-82.2,184.1-69.2c9.1,1.8,18.4,4.3,25.9,9.8c25.6,18.9,14.8,63.7-12.9,79.3s-62.6,9.4-92.2-2.1
			c-6.7-2.6-13.6-5.5-20.8-5.6c-8.5-0.1-16.6,3.8-23.6,8.6c-40.7,28.1-49.9,82.9-71.1,127.5c-27.4,57.7-78.6,101.9-136.2,129.6
			c-57.6,27.7-121.4,39.9-185,45.6c-32.1,2.9-65.2,4-95.8-5.9c-8.9-2.9-18.1-6.7-27.2-5c-8.1,1.5-14.7,7.2-20.9,12.6
			c-20.6,17.9-48.6,36.4-73,24.2c-17.3-8.6-26.9-31-46-34c-20.1-3.2-36.2,17-56,21.7c-31.4,7.4-57.2-24.4-71.9-53.1
			c-12.6,26.6-31.3,52.4-58.8,62.9c-27.5,10.5-64.5-0.8-73.3-28.9c-2-6.5-2.5-13.5-5.7-19.5c-4.7-8.9-14.2-13.9-22.9-19
			c-22.3-12.8-44.1-30.5-51-55.4c-6.9-24.8,8.3-56.6,34-58.3"/>
		<path class="st2" d="M586,583.5c8.2-7.5,25.4-17.6,36.3-10.8c2.7,1.7,5.5,4,8.7,3.6c6.8-1,6-11.3,5.8-18.6
			c-0.6-21.6,27-37.2,43.7-24.7c-0.8-28.7,31-52.5,56.5-42.3c10.2,4.1,19.6,12.6,30.5,11.7c6.7-0.5,12.6-4.6,18.8-7.3
			c10.3-4.4,22.4-5,32.2,0.6c9.7,5.6,16.1,18,13.3,29.3c-0.8,3.1-2.2,6.5-0.8,9.4c0.9,2,2.9,3.1,4.7,4.2c9.7,6.1,17.8,15.8,20,27.5
			c2.2,11.7-2.5,25.1-12.6,30.5c-10.1,5.4-24.5,0.3-27.8-11.1c-2.4-8.5,1.2-17.7-0.3-26.4c-2.7-15.8-20.6-23-35.8-23.6
			c-6.8-0.3-14,0.3-19.5,4.5c-5.5,4.1-8.5,12.8-4.7,18.7c4.3,6.8,11.6,5.3,21.2,12.8c9.5,7.4,15.2,20.7,15.1,32.7
			c-0.1,12.4-6.4,20.7-17.9,35.7c-8.2,10.7-12.3,16.1-18.8,17.7c-12.5,3-27.1-7.1-34.2-18.7c-7-11.5-3.7-19.7-9.9-23.1
			c-8.6-4.7-23.2,6.5-29.3,12.4c-7.3,7-7,10.8-21.5,28.4c-4.2,5.1-4.6,5.3-5.3,7c-5.1,12.3,11,24.2,10,37.5
			c-0.8,10.5-12.6,16.9-22.3,14.8c-9.7-2.2-17.2-10.3-22.8-19c-3.8-5.9-5.8-10.9-6.6-13c-11.1-27.7-35.1-29.8-41.6-51.6
			C566,615.4,573.7,594.8,586,583.5z"/>
		<path class="st1" d="M713,642.7c9.5-5.9,27.5-14.4,52-15.5c13.4-0.6,47.1-2.1,70.3,22.6c18.7,20,19.7,45.4,19.7,53.8
			c15-7,35,6.9,33.7,23.4c-0.9,11.5-8.5,26.5,1.5,32.1c5.7,3.2,13.9-0.1,18.9,4.1c6.6,5.6,1.1,18.4,7.7,24c2.6,2.2,6.3,2.5,9.6,3.3
			c16.5,3.8,26.7,21.3,28.8,38.1c2.9,23.6-7.3,48.8-26.9,62.2c-19.6,13.4-48.1,13.3-66.5-1.7c-2.5-2-4.9-4.5-5.6-7.6
			c-2.2-10,12.3-13.9,20.1-20.5c10.9-9.2,8.1-28.3-2.8-37.6c-10.9-9.2-26.7-10.4-40.8-7.8c-9.4,1.7-19,5.1-25.5,12
			c-12.8,13.5-10.2,35.4-2.5,52.3c7.7,16.9,19.8,31.9,24.5,49.8c4.7,17.9-1.4,41.1-19.1,46.5c-6.4,1.9-13.2,1.3-19.8,0.3
			c-22.1-3.3-45.6-11.6-57-30.9c3.7-9,16-10.3,23.1-16.9c11.4-10.6,5.5-30.2-5.2-41.5c-17.6-18.5-44.2-25.5-69.6-27.9
			c-4.7-0.4-9.7-0.9-13.5-3.6c-6.8-4.9-7-15.3-3.9-23.1c3.1-7.8,8.7-14.5,11.7-22.3c14.2-36.8-28.4-62.5-28-96.9
			C648.2,682.5,690.3,656.7,713,642.7z"/>
		<path class="st1" d="M155.2,772.6c-3.1-14.6,1-26.3,7.8-42.2c14.9-34.5,34.9-73.4,71.7-81c4.1-0.9,8.6-1.4,11.9-4
			c8-6.4,3.8-19.2,6.2-29.2c3.6-14.8,21.9-22.1,26.2-36.7c1.5-5.1,1.2-10.8,3.4-15.6c8.2-17.6,39.8-9.2,49.9-25.8
			c3.7-6.2,3.1-13.9,3.4-21.1c0.9-21.8,14.9-44.8,36.5-48.1c19-2.9,39.5,9.6,56.9,1.4c4.7-2.2,8.7-5.8,13.5-7.6
			c18.9-7.1,37.4,14.7,57.6,13.8c4.8-0.2,9.5-1.8,14.2-1.8c11.8,0,21.7,9,28.1,18.9c7.7,11.8,12.2,26.9,6.7,39.8
			c-5.5,12.9-24.1,19.9-34.4,10.4c-9.4-8.8-8.5-26.9-20.4-31.9c0.8,1.7,5.1,10.7,1.1,20.5c-1.9,4.8-5,7.9-7,9.5
			c-0.6,0.5-8,6.9-17.7,4.4c-8.9-2.3-12.5-10.1-12.9-11.1c4.3,11.7,9,28.2,10.4,48.4c1.6,23.1-1.6,42.2-4.9,55.2
			c16.3-26.8,53.3-38.5,82-26.1c7.4,3.2,15.2,11,11.6,18.2c16.3-10.1,37.9-13.1,54.7-4.1c16.9,9.1,26.2,32,17.1,48.8
			c-2.1,3.8-5,7.5-5.2,11.8c-0.4,7.8,7.6,13,14.2,17.3c25,16.4,41.4,45.3,42.8,75.2c0.7,15.5-2.8,31.8-13.2,43.3
			c-10.4,11.5-28.6,16.6-42,8.9c16.9-11.4,18.5-37.4,7.9-54.9c-13-21.5-34.8-30.3-49.1-34.4c-8.4-2.4-23.8-6.7-42.5-2
			c-26,6.5-51.9,28.7-54.1,53.2c-1.4,15.1,7.3,19.4,3.8,36.1c-0.6,2.9-4.9,22.2-20.9,31.3c-17.4,9.9-38.1,1.8-39.9,7.6
			c-1.3,4.3,9.8,9.4,8.5,13.3c-2.2,6.6-38.1,0.1-38.1,0.1c-43.1-7.8-75.5-13.7-102-20.5c-16.4-4.2-29.3-8.2-41.9-13.6
			c-7.8-3.4-8.6-4.2-24.7-12.4c-40.7-20.7-44.9-19.9-55.4-29.5C170.6,800.4,158.9,789.7,155.2,772.6z"/>
		<path class="st3" d="M483.6,563.3c1.8,14.3,8.2,27.9,18.1,38.4"/>
		<path class="st3" d="M587.3,750.1c-24.5-7.8-51.1,3.9-71.7,19.3c-11.5,8.6-23,20.9-21,35.2"/>
		<path class="st3" d="M537.5,787.1c12.6-22.3,39.8-35.3,65-31.1C570.2,749.5,550.4,756.8,537.5,787.1z"/>
		<path class="st3" d="M615.8,781.2c-33.7-4.8-69.4,16.2-81.6,48"/>
		<path class="st3" d="M614.1,795.9c-27.6-1.9-55.9,8.7-75.5,28.2c-19.6,19.6-30.3,47.8-28.5,75.4"/>
		<path class="st3" d="M619.5,814.8c-18.5-6.4-28.7,8.3-40.1,21.6"/>
		<path class="st3" d="M551.6,875c-7.7,9.5-13.9,20.3-18.2,31.8"/>
		<path class="st3" d="M611.6,826.2c-35.5,26.3-60.6,66.9-65.6,110.8c-4.9,43.9,11.4,90.2,44.6,119.3"/>
		<path class="st3" d="M648.7,836.1c-15.8,3.9-32,8-45.5,17.1s-24,24.5-22.8,40.7"/>
		<path class="st3" d="M661.7,843.3c-21,5.1-38.5,20.5-49.7,39c-11.3,18.4-17.1,39.7-21,61c-3.1,16.7-5,33.9-1.2,50.4
			c3.8,16.5,14.4,32.2,30.2,38.3"/>
		<path class="st3" d="M659.6,865.2c-16.8,4.6-31.1,17.5-37.4,33.7c-6.3,16.2-4.4,35.4,5,50.1"/>
		<path class="st3" d="M690,872.9c-15.2,15.3-29.1,32.5-36.8,52.7s-8.4,43.7,1.7,62.7c6.4,11.9,16.5,21.4,24.6,32.2"/>
		<path class="st3" d="M719.1,881.2c-18.4,11.9-38.7,27-39.8,48.8"/>
		<path class="st3" d="M737.8,911.4c-10.1,2.7-20.5,5.9-28.3,13s-12,19.1-7,28.3"/>
		<path class="st3" d="M847.9,818.3c-16.6,10-28.4,27.7-31.2,46.9"/>
		<path class="st3" d="M857.4,833.5c-16.8,9.8-28.5,27.7-30.8,47"/>
		<path class="st3" d="M449.3,947.1c-8,23.7-11,49.1-8.6,73.9"/>
		<path class="st3" d="M428.8,927.3c-28.6,67.6-9.6,150.4,39.9,204.6s125.4,80.5,198.8,77.4"/>
		<path class="st3" d="M401.7,954.6c-9.3,19.9-18.1,40.6-20,62.5c-1.9,21.9,4.2,45.5,20.5,60.2"/>
		<path class="st3" d="M490.7,952.7c-15,26.3-10.2,62.3,11.1,83.7"/>
		<path class="st3" d="M514.3,971.5c6.1,36.5,30.4,69.4,63.5,86"/>
		<path class="st3" d="M717.8,1041.9c55,13.4,113.7,1.3,165-22.7c51.3-24,96.3-59.1,140.9-94"/>
		<path class="st3" d="M876.2,842.6c-29.5,12.1-50.8,42.2-52.5,74c-0.5,9.9,0.8,20.1,5.8,28.6c8.2,13.8,24.7,20.6,40.5,23
			c26.6,4.2,54.6-1.2,77.8-15.1c19.1-11.4,34.5-28,52.1-41.7c38.1-29.4,86.4-44.2,134.5-45.5c48.1-1.2,96,10.6,139.9,30.2
			c-16.1-34-56.9-38.9-94.4-42.6c-42.5-4.3-86.2-7.7-127.2,4c-47.6,13.5-87.3,45.8-125.1,77.8c-14.5,12.3-33.5,25.5-50.9,17.8
			c-9.3-4.1-15.5-14.2-15-24.3c0.5-10.1,7.7-19.6,17.3-22.8"/>
		<path class="st3" d="M1308.6,934.3c-20.1-16.4-49.4-13-74.8-7.6c-43.7,9.3-87.5,22.6-124,48.3c-23.3,16.4-42.9,37.4-62.3,58.3
			c-19.7,21.2-39.4,42.3-59.2,63.5c-25,26.8-50.5,54.1-82.4,72.3c-23.5,13.4-49.7,21.4-76.1,27.6c-84.1,19.6-175.6,20.4-253.4-17.1"
			/>
		<path class="st3" d="M771.8,1181.1c-40,8.4-82.7,3.5-119.7-13.8"/>
		<path class="st3" d="M575.5,1068.8c26,35.1,69.8,51.3,111,65.7"/>
		<path class="st3" d="M1202.5,899.3c-41.8-11.3-86.6,2.6-124.1,24.2c-37.5,21.6-70.3,50.5-107.3,73.1
			c-108.2,66.1-247,71.6-366.7,30.1"/>
		<path class="st3" d="M1233.7,909.2c-42.7-1-85.2,12.4-121.6,34.7c-36.5,22.3-67.1,53.3-92.2,88"/>
		<path class="st3" d="M990.1,1047.6c-12.5,17.8-26.2,35.2-43.9,47.8c-13.9,9.9-29.9,16.5-45.6,23c-25.3,10.4-50.6,20.8-75.9,31.3"
			/>
		<path class="st3" d="M961.2,1045.2c-52.1,38.3-114,63-178.1,71"/>
		<path class="st3" d="M528.8,1110.1c9.7,11.4,23.1,19.7,37.7,23.3"/>
		<path class="st3" d="M481.2,1078c7.8,12.2,16.6,23.7,26.3,34.4"/>
		<path class="st3" d="M488.9,1039.9c8.3,15.6,20,29.3,33.9,40.1"/>
		<path class="st3" d="M1007.1,1114.1c-27.3,32.7-61.1,59.9-98.9,79.5"/>
		<path class="st3" d="M619.7,1330.9c-16.1-1.5-32.3-3.1-48.4-4.6c-26.8-2.6-56.6-6.7-73.3-27.8"/>
		<path class="st4" d="M574.3,1362.6c-15.8-7.2-30.2-17.3-42.4-29.6"/>
		<path class="st3" d="M604.6,1330.4c-20.9-7.6-40.3-19.4-56.8-34.3"/>
		<path class="st3" d="M1306.6,997.3c-18.4-34.8-66.8-45.1-103.5-30.9c-36.8,14.2-63.3,46.7-83.4,80.6
			c-20.1,33.9-35.7,70.7-59.7,101.9c-33.6,43.7-82.1,74.1-133.6,93.6s-106.2,29-160.7,36.9c-39.7,5.7-80.1,10.7-119.9,5.1
			c-39.7-5.6-79.3-23.1-103.7-55"/>
		<path class="st3" d="M1282.3,1015.3c-3.8-15.4-17.9-26.8-33.3-30.6c-15.4-3.8-31.8-0.9-46.6,4.7c-51.7,19.4-86,68.3-112.1,116.9
			c-26.1,48.7-48.3,101.2-88.7,138.9c-35.4,33.1-82.1,52-129.4,62.6c-47.3,10.7-95.9,13.8-144,19.8"/>
		<path class="st3" d="M1265.3,1033.9c-19.3,5.4-38.4-10-58.4-10.8c-13.3-0.5-26.8,5.9-34.6,16.7"/>
		<path class="st3" d="M1104.7,1025.4c-31.3,31.1-40.8,79.5-73.1,109.5"/>
		<path class="st3" d="M612.6,1235c30.1,20.7,67.8,30.2,104.1,26"/>
		<path class="st3" d="M383.2,1289.1c-57.4-3.8-110.8-44.2-130-98.4"/>
		<path class="st3" d="M443.2,1298.9c-36.1-8.3-65.6-40-71.4-76.6"/>
		<path class="st3" d="M263.6,1307.8c-12.4-17.1-24.8-34.1-37.2-51.2"/>
		<path class="st3" d="M212.7,1207.9c-8.7-17.5-12.8-37.3-11.8-56.8"/>
		<path class="st3" d="M238.4,1176.7c-5.9-21.2-7.1-43.7-3.5-65.5"/>
		<path class="st3" d="M304.1,1190.4c-18.5-16.1-29.5-40.4-29.4-64.9"/>
		<path class="st3" d="M113.1,1028.5c-7.6-33.7,2.3-70.9,25.7-96.4"/>
		<path class="st3" d="M147.3,1031.4c-8.4-34.2,0.2-72.2,22.7-99.3"/>
		<path class="st3" d="M198.8,1046.5c-14.7-4.4-27-16.2-32.1-30.7c-5.1-14.5-2.8-31.4,6-44"/>
		<path class="st3" d="M218.5,1071.2c-8.9-25.5-13-52.6-12-79.6"/>
		<path class="st3" d="M284,1091c-19.6-25.6-32.6-56.1-37.6-88"/>
		<path class="st3" d="M364.8,1172.5c-21.4-25.4-43.3-51.7-53.5-83.4c-13.5-41.7-4.8-87.4,9.7-128.8"/>
		<path class="st3" d="M264.7,983.5c-17.6-69.6-8.3-145.6,25.4-208.9S381.8,661.2,449.4,637"/>
		<path class="st3" d="M306,940.4c-10.5-32.4-8.8-68.6,4.7-99.8c13.5-31.2,38.7-57.3,69.4-71.8"/>
		<path class="st3" d="M406.9,719c10.9-13.8,22.4-28.1,38.3-35.7c15.9-7.6,37.5-6.4,48.3,7.5"/>
		<path class="st3" d="M356.2,924c6.1-13.4,12.7-27.3,24.3-36.4s29.8-11.6,40.5-1.4"/>
		<path class="st3" d="M162.4,892.8c4.5-11.1,9.3-22.5,17.9-30.8c8.6-8.3,22.1-12.8,32.8-7.5"/>
		<path class="st3" d="M238.7,673.6c7-9.2,14.5-18.7,25-23.5s25-3,30.8,6.9"/>
		<path class="st3" d="M302.6,610.5c-0.6-16.8,6.7-34.5,21.2-43.1s35.8-5.2,44.3,9.3"/>
		<path class="st3" d="M396.2,527.4c1.3-12.9,9.6-24.9,21.2-30.7s26.2-5.1,37.2,1.8"/>
		<path class="st3" d="M210,803.7c9.2-45.3,38.9-86,79.1-108.6"/>
		<path class="st3" d="M347.2,644.7c7.5-13,15.3-26.3,26.4-36.3c11.2-10.1,26.6-16.6,41.3-13.6"/>
		<path class="st3" d="M179.7,741.3c4.9-17.2,20.4-30.9,38.1-33.7"/>
		<path class="st3" d="M506.8,674.1c9.6-9.2,19.9-18.9,32.9-21.7s29.1,4.5,30.8,17.7"/>
		<path class="st3" d="M384.7,827.1c3.3-16.7,10-34,24.2-43.2c14.2-9.3,37.2-5.9,43.3,10"/>
		<path class="st3" d="M558.4,705.2c16.1-15.1,45-13,58.7,4.2"/>
		<path class="st3" d="M617.6,607.8c10.8-9.4,25-14.7,39.2-14.7"/>
		<path class="st3" d="M634.3,735.4c10.7-16.8,30.4-27.5,50.3-27.3c19.9,0.2,39.4,11.4,49.6,28.5"/>
		<path class="st3" d="M737.6,680.2c9.7-15,30.6-19.6,47.9-15c17.3,4.5,31.8,16.2,45.1,28.2"/>
		<path class="st3" d="M680.3,807.3c11.9-13.1,26.1-24.9,43.1-30c17-5.1,37.1-2.4,49.6,10.1"/>
		<path class="st3" d="M785.4,747.4c23.4-12.5,54.7-8.1,73.8,10.4"/>
		<path class="st3" d="M729.2,842.1c14-12,37-11.7,50.6,0.8"/>
		<path class="st3" d="M865.4,785.3c23.5-9.7,53.6,1.1,65.4,23.7"/>
		<path class="st3" d="M474.6,1210.3c-39.1-7.6-71.3-42.5-75.8-82.1"/>
		<path class="st3" d="M672.9,562c6.9-23,36.1-36.3,58-26.4"/>
		<path class="st3" d="M706,602.6c14.2-9.2,33.3-10.4,48.5-3"/>
		<path class="st3" d="M747.9,507.3c14.2,0.9,28.5,1.9,42.7,2.8"/>
		<path class="st3" d="M624.8,647.2c3.8-26,31.9-45.8,57.7-40.7"/>
		<path class="st5" d="M435.2,668.8c-8.1,4.3-16.4,8.9-22.2,16c-5.8,7.1-8.5,17.6-4.1,25.6c4.7,8.6,16.2,11.7,25.7,9.1
			s17-9.8,22.9-17.6c4.9-6.5,9-13.9,9.3-22c0.3-8.1-4.3-16.8-12-19c-10.2-3-20.1,5.6-25.7,14.6"/>
		<path class="st5" d="M278.7,835.7c19.4-10.1,41.5-14,63.4-15.4c18.3-1.2,37.5-0.4,53.6,8.4c6.2,3.4,12.1,8.5,13.9,15.3
			c3.3,12.5-9,24.5-21.7,27s-25.7-1.3-38.6-2.9c-25.9-3.1-52.8,3.2-74.6,17.5C209.2,928.7,239.7,855.9,278.7,835.7z"/>
		<path class="st5" d="M413.1,603.9c6.7,1.8,13.6,4.5,18,10c4.3,5.5,4.9,14.4-0.4,19c-34.1-5.4-69.6-1.1-101.4,12
			c-5.1,2.1-10.3,4.4-15.7,4.2c-33.1-1.6,20.8-34.4,26.9-37.4C362.8,600.8,388.9,597.5,413.1,603.9z"/>
		<path class="st5" d="M289.8,729.2c18.2-3.5,37-1.7,55.5,0.4c9.6,1.1,22.2,6,20.3,15.4c-0.5,2.5-2,4.6-3.7,6.5
			c-13.9,15.7-37.2,17.7-58.1,18.7c-15.7,0.7-51.2,10.8-55-8.7C245.1,742.7,277.7,731.5,289.8,729.2z"/>
		<path class="st5" d="M688.1,570c12.9,1.2,25.8,2.4,38.7,3.7c1,3.2,2,6.4,2.9,9.6c-31.1,6.3-62.7,9.5-94.4,9.7
			c14.1-13.6,33.1-22.1,52.7-23.3"/>
		<path class="st5" d="M764.8,780.4c-11.1,7-22.3,14-33.4,21c5.2,7.5,15,11.9,23.8,9.5c8.8-2.4,15.2-12.3,12.7-21
			s-14.7-13.4-21.8-7.8"/>
		<path class="st5" d="M726,724.4c12.5-17.1,34.7-26.5,55.7-23.7c10.9,1.5,23.4,10,20.5,20.6c-1.6,5.6-7,9.1-12.2,11.6
			c-17.9,8.3-39,9.5-57.7,3.2c-4.6-1.6-9.5-3.9-11.7-8.2s-0.1-11,4.7-11.6"/>
		<path class="st5" d="M406.2,493.2c-11.1,7.7-21.3,16.8-30.3,26.9c7.4,8.8,20.7,10.7,31.8,7.7c11.1-3,20.6-10,29.8-16.9
			c-0.2-13-16.5-22.6-27.9-16.6"/>
		<path class="st5" d="M566.5,840.5c-8.8-2.2-17.7-4.4-26.5-6.5c-9.1,3.8-11.8,14.2-7.3,21.5c4.5,7.4,14.6,11.8,24.8,12.9
			c13.3,1.4,29.5-4.5,30.4-15.2c0.6-6.6-5.1-13-12.6-15.7c-7.5-2.7-16.4-2.2-24.1,0"/>
		<path class="st5" d="M303.4,1050.1c-13.1,14.5-9.5,37.2-4.1,56c5.7,19.9,12.6,39.5,20.6,58.6c8.4,20.1,18.6,40.3,35.2,54.5
			c15.7,13.4,35.9,20.2,55.7,26c19.3,5.7,38.9,10.7,58.5,15.1c-4-18.6-18.2-33.5-33.8-44.4c-15.6-10.9-33.1-19-48.5-30.2
			c-21.8-16-36.1-38.3-50.6-60.7C322.6,1103.8,318.8,1066.6,303.4,1050.1z"/>
		<path class="st5" d="M229.7,1025.8c-2.1,12.6-2.1,25.5,0,38.1c10.8,5.4,24.5,5.5,34.4-1.3c10-6.8,14.9-20.7,10.1-31.7
			c-4.8-11-20-16.6-30.2-10.2"/>
	</g>
	<g>
		<path class="st0" d="M1145.2,593.3c0,0,57.9,135.4-112.5,125.1c-14.4-0.5,20.3-24,20.3-24s56.8-25.4,16.1-88.8
			C1028.4,542.2,1145.2,593.3,1145.2,593.3z"/>
		<path class="st11" d="M1101.4,673.2c3.9-3.8,7.8-8,9.5-13.3c1.5-4.6,1.1-9.6,1.8-14.3c1.9-11.9,10.7-21.6,14.5-33.1
			c3-9.2,2.8-18.5-0.4-26.5c-31.1-11.4-88-27.6-57.7,19.6c40.7,63.4-16.1,88.8-16.1,88.8s-32.8,22.3-21.3,23.9
			C1057.6,708.1,1081.4,692.7,1101.4,673.2z"/>
		<path class="st2" d="M1003.8,627.6l-42.6-50.7c-8.9-10.6-7.5-26.5,3.1-35.4l17.2-14.4c10.6-8.9,26.5-7.5,35.4,3.1l42.6,50.7
			c8.9,10.6,7.5,26.5-3.1,35.4l-17.2,14.4C1028.6,639.6,1012.7,638.2,1003.8,627.6z"/>
		<path class="st1" d="M1431.4,223.3c0,0,4.9,330.6-370.7,399L973.2,518C973.2,518,1082.8,195.9,1431.4,223.3z"/>
		<circle class="st5" cx="1205.9" cy="409.9" r="79"/>
		<path class="st2" d="M1256.7,470.4c0.5-0.4,1-0.9,1.5-1.3c23.3-28.8,23.7-71-1-100.4c-28.1-33.4-77.9-37.8-111.3-9.7
			c-0.5,0.4-1,0.9-1.5,1.3c-23.3,28.8-23.7,71,1,100.4C1173.5,494.1,1223.3,498.5,1256.7,470.4z"/>
		<path class="st0" d="M1431.4,223.3c-68.3-5.4-127.5,2.7-178.4,19.1c23.2,14.4,50.5,35.4,76.3,65.2c27.7,32,45.3,64.6,56.5,91.7
			C1432.7,307.3,1431.4,223.3,1431.4,223.3z"/>
		<circle class="st0" cx="1208.1" cy="410.8" r="52.3"/>
		<path class="st1" d="M1230.4,383.7c-12.4-14.8-31.3-21-49-17.9c-2.4,1.4-4.8,3.1-7,4.9c-22.1,18.6-25,51.6-6.4,73.7
			c12.4,14.8,31.3,21,49,17.9c2.4-1.4,4.8-3.1,7-4.9C1246.1,438.8,1249,405.8,1230.4,383.7z"/>
		<path class="st5" d="M1170.8,374.1c-6.7,6.8-11.2,15.1-13.4,24l85.3,18.1c-0.2-10-3.2-19.9-9.2-28.5L1170.8,374.1z"/>
		<path class="st5" d="M1155.8,410.8c0,4.9,0.7,9.9,2.1,14.7l77.5,18.6c2.6-4.4,4.5-9,5.7-13.9L1155.8,410.8z"/>
		<path class="st11" d="M973.2,518l73.1,87.1c-19.2-268.2,274.3-359.5,373.4-382.6C1080.4,203.2,973.2,518,973.2,518z"/>
		<path class="st11" d="M1287,266.7c52.9-23.4,102.1-37.1,132.7-44.2c-63.4-3.6-118.7,4.4-166.8,19.9
			C1263.6,249.1,1275.2,257.1,1287,266.7z"/>
		<path class="st0" d="M1016.1,439.5c0,0-123.4-80.5-142.7,89.1c-2,14.2,27.2-15.8,27.2-15.8s34.8-51.5,90.3-0.5
			S1016.1,439.5,1016.1,439.5z"/>
		
			<ellipse transform="matrix(0.7659 -0.643 0.643 0.7659 -134.9508 783.8722)" class="st0" cx="1009" cy="577.3" rx="82.2" ry="19.8"/>
		<path class="st11" d="M1031,482.8c0.1-0.5,0.6-2.6,1-5.5c0.4-3.4,0.4-6.4,0.2-8.6c-4-3.4-10.7-10-14.2-20.3
			c-1.1-3.2-1.7-6.2-2-8.9c0,0-6.8-4.4-17.4-9c-3.6,4.7-7.1,10.4-10.1,13c-7.6,6.6-15.4,13.3-24.8,16.9c-5.8,2.2-12.1,3.1-18.1,4.8
			c-15.6,4.4-29.4,14.2-40.3,26.2c-10.6,11.7-18.8,25.4-25.9,39.6c8-4.7,21-18,21-18c1.9-2.8,14-19.7,36.8-22.7
			c1.5-0.2,26.8-3.1,44.7,15.6c7.1,7.4,10.3,15.4,11.9,20.2c18.2,9.3,25.8,8,29.4,5.1C1032.6,523.5,1028.3,494,1031,482.8z"/>
		<path class="st5" d="M1041.4,554.8c1.2-0.2,2.4-0.1,3.4,0.5c1.4,1,1.7,3.1,1.1,4.7s-1.8,2.9-3,4.2c-8.1,8.3-16.4,16.5-24.8,24.5
			c-3.8,3.6-7.7,7.2-12.3,9.7c-1.3,0.7-2.9,1.3-4.2,0.5c-1.7-1-1.3-3.8,0.2-5.1c1.5-1.3,3.6-1.6,5.5-2.1c7-1.8,12.9-6.6,17.4-12.3
			c3.6-4.5,7.1-10.1,9.2-15.5C1035.3,559.7,1035.8,555.7,1041.4,554.8z"/>
		
			<ellipse transform="matrix(0.7659 -0.643 0.643 0.7659 -147.8503 776.7396)" class="st5" cx="992.8" cy="591.4" rx="3.4" ry="3.2"/>
		<path class="st5" d="M1030.5,628.5c-5.9,2.6-13.2,3-18.6-0.6c-2.6-1.7-4.5-4.2-6.2-6.7c-0.4-0.6-0.8-1.3-0.9-2
			c-0.2-1.9,2.1-3.2,4-3c7.4,1,12.1,8.4,20.7,5.8c6-1.8,9.6-8.7,16.7-6.2C1043.1,621,1036,626.1,1030.5,628.5z"/>
	</g>
	<g>
		<path class="st2" d="M1204.5,724.6l26,1.8l-104.4,106.4l36.2,17.9l23.1,13.6l22.9,27l25.4,44.4l6,30.9c0,0,4.5,13,0.5,19.6
			l27.4-12.5l34.1-3.6l37.8,15.3l37.2,17.6l28.3,16.8l19,13.8l66.3-122.1l4.8,18.7l-16.7,30.8L1450,1017l-35,61l-79.5-71.9
			l-61.2-15.4c-8.9-1.3-19.9-1.8-32.2,0.2c-3,0.5-5.8,1.1-8.4,1.8c-0.3-2.3-1-5.9-2.4-10.3c-3.2-9.8-8-16.5-10.6-20
			c-7.2-9.7-28.2-36.9-57.6-72.8l-61.5-37.2l-15.4-4.9L1204.5,724.6z"/>
		<path class="st1" d="M1474.3,855.5l18.5,28.1l-32.1,66.1l-37.7,65.1l-21.4,2.6l-42.1-23.6l-42.8-16.5l-26.1-2.7l-20.5,1.5
			l-8.4,1.8c-3.5,1.1-7.1,2.2-10.7,3.4c-3,1-5.9,1.9-8.8,2.9c2.5-2.6,6.1-6.1,11-9.8c6.7-5.1,13.1-8.4,19.8-11.2
			c0,0,13.2-5.7,48.7-14l0,0l29.6,3.3l56.1,23.4l18.8-42.9L1474.3,855.5z"/>
		<path class="st5" d="M1246.5,720.6l59.3,42.8l16.4,33l6.3,23.6c1.7,4.7,3.4,11.4,3.2,19.5c-0.1,3-0.4,5.8-0.9,8.3
			c2.7-1.8,5.8-3.7,9.1-5.5c4.1-2.2,8.1-4.1,11.7-5.6c7.5-3.2,15.1-6.5,22.6-9.7l28.3,1.1l31.2,3.5l29.6,9.5l10.4,10.3l-16.2,35.1
			l-19.2,33.8l-17.1,38.6l-12.2,13.8l-53.7-15.9l-38.7-5.7l-31.1,6.9l-11.8,5.1c-6,4.6-11.2,7.4-14.9,9.2c-3.1,1.5-7.4,3.2-12.4,7.1
			c-1.9,1.5-3.4,2.9-4.3,3.9c0.1-1.7,0.1-4.1-0.5-6.9c-1-4.2-2.9-7.1-3.3-7.7c-2.3-3.6-5.1-15.9-8-49l-43.9-59.9l-39.6-18.2
			l6.2-26.8C1184.1,783.3,1215.3,752,1246.5,720.6z"/>
		<path class="st11" d="M1486.4,871.6l19.3,15.4l-82.4,157.1c-25-21.6-48.4-35.3-65.2-43.8c-24.5-12.4-43.8-21.9-70.7-22.5
			c-20.4-0.5-37,4.3-47.3,8.2c14.5-6.5,40.4-16.1,73.5-15c28.8,1,63.7,9.8,100.1,36.2L1486.4,871.6z"/>
		<path class="st11" d="M1493.9,921.4l5.2,9l-87.1,166.2c-9.9-16.1-25.5-36.9-49.3-56c-50.6-40.5-105.8-46.8-129.1-48
			c14.6-4.2,32.7-7.2,53.2-6c75.6,4.6,122.9,63.9,133.1,77.3L1493.9,921.4z"/>
		<path class="st11" d="M1198.3,721.5l14.5,2.2l-111,118.2c16.4,4.6,38.2,13.1,60,29.6c55,41.5,68.5,102.5,71.9,121.1
			c-6.8-17.6-18.1-40.2-37.2-62.5c-46.8-54.4-108.2-68.9-131.2-73.1L1198.3,721.5z"/>
		<path class="st12" d="M1251.8,753.9c11-0.4,21.8,7.2,25.3,17.7"/>
		<path class="st12" d="M1286.1,782.1c13.4,8.8,23.3,22.8,27.2,38.3"/>
		<path class="st12" d="M1242.9,762c5.4,2.9,9.9,7.3,12.9,12.7"/>
		<path class="st12" d="M1225.3,778.7c3.8,1.9,7.3,4.3,10.5,7.1"/>
		<path class="st12" d="M1258.2,784.3c4.5,4.4,8.3,9.6,11.2,15.2"/>
		<path class="st12" d="M1284.5,809.3c5.3,4.8,9,11.3,10.5,18.3"/>
		<path class="st12" d="M1239.8,793c11.3,6,21.1,14.9,28.2,25.6"/>
		<path class="st12" d="M1211.7,792.4c10,4,18.7,11.4,24,20.8"/>
		<path class="st12" d="M1200.4,806.6c8-0.6,15.6,4.2,20.5,10.6s7.6,14.1,10.2,21.6"/>
		<path class="st12" d="M1245.3,816.4c7.4,3.5,13.2,9.9,16,17.6"/>
		<path class="st12" d="M1274.2,824.4c5.4,5.3,10.4,11.1,14.8,17.4"/>
		<path class="st12" d="M1307.8,827.7c4.8,4.4,8.3,10.3,9.7,16.7"/>
		<path class="st12" d="M1192.5,821.4c10.2,0.9,19.8,6.9,25,15.7"/>
		<path class="st12" d="M1242.2,836.4c8.3,5.4,15.3,12.9,19.9,21.7"/>
		<path class="st12" d="M1274.1,851c9.5,4.3,17.3,12.5,21,22.2"/>
		<path class="st12" d="M1219.7,855.7c18.9,2.7,35.7,16.6,41.9,34.6"/>
		<path class="st12" d="M1227.8,880.4c6.6,9.6,12.7,19.5,18.4,29.7"/>
		<path class="st12" d="M1185.2,836.6c10.5,2.3,19.7,10,23.9,19.9"/>
		<path class="st12" d="M1339.2,851.3c2.6-3.1,7.4-4.2,11.1-2.5"/>
		<path class="st12" d="M1357.6,845.3c3.8-2,8.6-2,12.4-0.1"/>
		<path class="st12" d="M1382.7,844.8c5-2.4,10.9-2.4,16.4-1.2c5.4,1.3,10.5,3.8,15.4,6.4"/>
		<path class="st12" d="M1424,848.4c6.8,0.9,13.4,3.8,18.8,8.1"/>
		<path class="st12" d="M1341.9,861.3c4.8-1.2,10.2-0.3,14.4,2.4"/>
		<path class="st12" d="M1361.5,856.4c3.8-3.1,9.9-2.9,13.5,0.5"/>
		<path class="st12" d="M1384.8,855.2c6.6-1,13.7,0.9,18.9,5.2"/>
		<path class="st12" d="M1412.8,859.3c5.4-0.1,10.8,1.9,14.9,5.5"/>
		<path class="st12" d="M1339.5,876.1c16.6-5.5,34.9-5.3,51.4,0.4"/>
		<path class="st12" d="M1406,875.3c6.9-0.2,13.9,1.4,20.1,4.6"/>
		<path class="st12" d="M1339.4,884.3c4.8-1.6,10.1-1.5,15.1-0.5c5,0.9,9.8,2.7,14.6,4.5"/>
		<path class="st12" d="M1382,886.5c8.1,0,16.1,2.3,22.8,6.8"/>
		<path class="st12" d="M1414,890.6c4.5,0.4,8.8,2.7,11.6,6.3"/>
		<path class="st12" d="M1322.9,905c1.1-2.6,3.5-4.4,6.1-5.5c2.6-1,5.5-1.2,8.3-1.1c6.7,0.2,13.4,2.1,19.2,5.5"/>
		<path class="st12" d="M1365.9,905.6c3.4-2.1,7.7-2.8,11.7-2c3.9,0.9,7.5,3.3,9.8,6.6"/>
		<path class="st12" d="M1396.4,905.5c5.8-1.7,12.7,1.4,15.2,6.9"/>
		<path class="st12" d="M1308.5,920.8c4.5-2.7,9.8-3.7,15.1-3.6c5.2,0.1,10.4,1.1,15.5,2.2"/>
		<path class="st12" d="M1305.8,938c18.6-7.7,40.3-7.5,58.7,0.6"/>
		<path class="st12" d="M1353.2,918.4c5.9-2,12.9,0.1,16.8,4.9"/>
		<path class="st12" d="M1380,919.7c6.1-1.3,12.8,0.8,17.2,5.2"/>
		<path class="st12" d="M1381.2,935.4c5.6-1.4,11.8-0.6,16.9,2.2"/>
		<path class="st12" d="M1400.4,918.7c4.2,0.2,8.2,2.2,11,5.3"/>
		<path class="st12" d="M1298.7,847.8c4.3-0.4,8.8,2.2,10.5,6.2"/>
		<path class="st12" d="M1273,880.2c3.9,1.5,7,5,8.1,9.1"/>
		<path class="st12" d="M1259.3,905.4c3.5,1.5,6.3,4.6,7.4,8.2"/>
		<path class="st12" d="M1246.5,924.6c4.2,1,7.8,4,9.7,7.9"/>
		<path class="st12" d="M1242.2,941.1c3.2-0.4,6.5,1.3,8,4.2"/>
		<path class="st12" d="M1335.5,869.7c-3.9-0.7-7.9-0.3-11.6,1.1"/>
		<path class="st12" d="M1331,885c-3.4-1.4-7.3-1.6-10.8-0.6"/>
		<path class="st0" d="M1330.8,847.7c0.5-2.4,0.8-5.2,0.9-8.3c0.1-2,0-3.9-0.2-5.8l-91.2,138.8c0.2,1.6,0.4,3.4,0.4,5.3
			c0.1,3.1-0.2,5.8-0.5,8.2c2.3-3.3,4.5-5.5,6.1-6.8c1.2-1,2.3-1.8,2.8-2.1c1.9-1.3,3.7-2.3,5.3-3.1l83.8-130.9
			C1335.6,844.7,1333.1,846.2,1330.8,847.7z"/>
		<path class="st11" d="M1339.6,842.7c0,0,50.2-53.5,151.2,0l-76.6,148.8c-11.3-8.2-29.5-19.4-54.1-26.7
			c-11.9-3.5-29.2-8.4-51.5-6.8c-30.4,2.2-53.1,15.3-65.5,24c9.6-9.5,23.5-20.7,42.3-28.9c54.7-23.8,107.5-3.2,120.5,2.3l54.8-105.4
			C1460.8,849.9,1391.8,819.1,1339.6,842.7z"/>
		<path class="st11" d="M1331.6,838.8c0,0-14.3-83.1-80.3-103l-86.8,95.3c13.1,7.8,34.1,22.7,51.1,48.5
			c29.5,44.9,26.2,91.5,24.6,106.3c-2-16.4-6.9-37.8-18.6-60.3c-31.3-60.2-88.3-83.6-106.4-90.3l128.2-133.7
			C1243.3,701.8,1334.6,741.3,1331.6,838.8z"/>
	</g>
</g>
<g>
</g>
<g>
</g>
<g>
</g>
<g>
</g>
<g>
</g>
<g>
</g>
</svg>
